<?xml version="1.0" encoding="utf-8" standalone="no"?>
<!DOCTYPE svg PUBLIC "-//W3C//DTD SVG 1.1//EN"
  "http://www.w3.org/Graphics/SVG/1.1/DTD/svg11.dtd">
<svg xmlns:xlink="http://www.w3.org/1999/xlink" width="829.117188pt" height="258.348438pt" viewBox="0 0 829.117188 258.348438" xmlns="http://www.w3.org/2000/svg" version="1.1">
 <metadata>
  <rdf:RDF xmlns:dc="http://purl.org/dc/elements/1.1/" xmlns:cc="http://creativecommons.org/ns#" xmlns:rdf="http://www.w3.org/1999/02/22-rdf-syntax-ns#">
   <cc:Work>
    <dc:type rdf:resource="http://purl.org/dc/dcmitype/StillImage"/>
    <dc:date>2026-04-22T09:49:59.426035</dc:date>
    <dc:format>image/svg+xml</dc:format>
    <dc:creator>
     <cc:Agent>
      <dc:title>Matplotlib v3.7.5, https://matplotlib.org/</dc:title>
     </cc:Agent>
    </dc:creator>
   </cc:Work>
  </rdf:RDF>
 </metadata>
 <defs>
  <style type="text/css">*{stroke-linejoin: round; stroke-linecap: butt}</style>
 </defs>
 <g id="figure_1">
  <g id="patch_1">
   <path d="M 0 258.348438 
L 829.117188 258.348438 
L 829.117188 0 
L 0 0 
z
" style="fill: #ffffff"/>
  </g>
  <g id="axes_1">
   <g id="patch_2">
    <path d="M 44.317188 225.36 
L 274.081893 225.36 
L 274.081893 3.6 
L 44.317188 3.6 
z
" style="fill: #ffffff"/>
   </g>
   <g id="matplotlib.axis_1">
    <g id="xtick_1">
     <g id="line2d_1">
      <path d="M 48.617596 225.36 
L 48.617596 3.6 
" clip-path="url(#p0216de4f0f)" style="fill: none; stroke: #b0b0b0; stroke-width: 0.8; stroke-linecap: square"/>
     </g>
     <g id="line2d_2">
      <defs>
       <path id="mc687974875" d="M 0 0 
L 0 3.5 
" style="stroke: #000000; stroke-width: 0.8"/>
      </defs>
      <g>
       <use xlink:href="#mc687974875" x="48.617596" y="225.36" style="stroke: #000000; stroke-width: 0.8"/>
      </g>
     </g>
     <g id="text_1">
      <!-- 0 -->
      <g transform="translate(45.754471 239.198594) scale(0.09 -0.09)">
       <defs>
        <path id="DejaVuSerif-30" d="M 2034 219 
Q 2513 219 2750 744 
Q 2988 1269 2988 2328 
Q 2988 3391 2750 3916 
Q 2513 4441 2034 4441 
Q 1556 4441 1318 3916 
Q 1081 3391 1081 2328 
Q 1081 1269 1318 744 
Q 1556 219 2034 219 
z
M 2034 -91 
Q 1275 -91 848 546 
Q 422 1184 422 2328 
Q 422 3475 848 4112 
Q 1275 4750 2034 4750 
Q 2797 4750 3222 4112 
Q 3647 3475 3647 2328 
Q 3647 1184 3222 546 
Q 2797 -91 2034 -91 
z
" transform="scale(0.015625)"/>
       </defs>
       <use xlink:href="#DejaVuSerif-30"/>
      </g>
     </g>
    </g>
    <g id="xtick_2">
     <g id="line2d_3">
      <path d="M 79.334803 225.36 
L 79.334803 3.6 
" clip-path="url(#p0216de4f0f)" style="fill: none; stroke: #b0b0b0; stroke-width: 0.8; stroke-linecap: square"/>
     </g>
     <g id="line2d_4">
      <g>
       <use xlink:href="#mc687974875" x="79.334803" y="225.36" style="stroke: #000000; stroke-width: 0.8"/>
      </g>
     </g>
     <g id="text_2">
      <!-- 5 -->
      <g transform="translate(76.471678 239.198594) scale(0.09 -0.09)">
       <defs>
        <path id="DejaVuSerif-35" d="M 3219 4666 
L 3219 4153 
L 1081 4153 
L 1081 2816 
Q 1244 2928 1461 2984 
Q 1678 3041 1947 3041 
Q 2703 3041 3140 2622 
Q 3578 2203 3578 1478 
Q 3578 738 3136 323 
Q 2694 -91 1894 -91 
Q 1572 -91 1234 -12 
Q 897 66 544 225 
L 544 1131 
L 897 1131 
Q 925 688 1179 453 
Q 1434 219 1894 219 
Q 2388 219 2653 544 
Q 2919 869 2919 1478 
Q 2919 2084 2655 2407 
Q 2391 2731 1894 2731 
Q 1613 2731 1398 2631 
Q 1184 2531 1019 2322 
L 750 2322 
L 750 4666 
L 3219 4666 
z
" transform="scale(0.015625)"/>
       </defs>
       <use xlink:href="#DejaVuSerif-35"/>
      </g>
     </g>
    </g>
    <g id="xtick_3">
     <g id="line2d_5">
      <path d="M 110.05201 225.36 
L 110.05201 3.6 
" clip-path="url(#p0216de4f0f)" style="fill: none; stroke: #b0b0b0; stroke-width: 0.8; stroke-linecap: square"/>
     </g>
     <g id="line2d_6">
      <g>
       <use xlink:href="#mc687974875" x="110.05201" y="225.36" style="stroke: #000000; stroke-width: 0.8"/>
      </g>
     </g>
     <g id="text_3">
      <!-- 10 -->
      <g transform="translate(104.32576 239.198594) scale(0.09 -0.09)">
       <defs>
        <path id="DejaVuSerif-31" d="M 909 0 
L 909 331 
L 1722 331 
L 1722 4213 
L 781 3603 
L 781 4013 
L 1919 4750 
L 2350 4750 
L 2350 331 
L 3163 331 
L 3163 0 
L 909 0 
z
" transform="scale(0.015625)"/>
       </defs>
       <use xlink:href="#DejaVuSerif-31"/>
       <use xlink:href="#DejaVuSerif-30" x="63.623047"/>
      </g>
     </g>
    </g>
    <g id="xtick_4">
     <g id="line2d_7">
      <path d="M 140.769216 225.36 
L 140.769216 3.6 
" clip-path="url(#p0216de4f0f)" style="fill: none; stroke: #b0b0b0; stroke-width: 0.8; stroke-linecap: square"/>
     </g>
     <g id="line2d_8">
      <g>
       <use xlink:href="#mc687974875" x="140.769216" y="225.36" style="stroke: #000000; stroke-width: 0.8"/>
      </g>
     </g>
     <g id="text_4">
      <!-- 15 -->
      <g transform="translate(135.042966 239.198594) scale(0.09 -0.09)">
       <use xlink:href="#DejaVuSerif-31"/>
       <use xlink:href="#DejaVuSerif-35" x="63.623047"/>
      </g>
     </g>
    </g>
    <g id="xtick_5">
     <g id="line2d_9">
      <path d="M 171.486423 225.36 
L 171.486423 3.6 
" clip-path="url(#p0216de4f0f)" style="fill: none; stroke: #b0b0b0; stroke-width: 0.8; stroke-linecap: square"/>
     </g>
     <g id="line2d_10">
      <g>
       <use xlink:href="#mc687974875" x="171.486423" y="225.36" style="stroke: #000000; stroke-width: 0.8"/>
      </g>
     </g>
     <g id="text_5">
      <!-- 20 -->
      <g transform="translate(165.760173 239.198594) scale(0.09 -0.09)">
       <defs>
        <path id="DejaVuSerif-32" d="M 819 3553 
L 469 3553 
L 469 4384 
Q 803 4563 1142 4656 
Q 1481 4750 1806 4750 
Q 2534 4750 2956 4397 
Q 3378 4044 3378 3438 
Q 3378 2753 2422 1800 
Q 2347 1728 2309 1691 
L 1131 513 
L 3078 513 
L 3078 1088 
L 3444 1088 
L 3444 0 
L 434 0 
L 434 341 
L 1850 1753 
Q 2319 2222 2519 2614 
Q 2719 3006 2719 3438 
Q 2719 3909 2473 4175 
Q 2228 4441 1797 4441 
Q 1350 4441 1106 4219 
Q 863 3997 819 3553 
z
" transform="scale(0.015625)"/>
       </defs>
       <use xlink:href="#DejaVuSerif-32"/>
       <use xlink:href="#DejaVuSerif-30" x="63.623047"/>
      </g>
     </g>
    </g>
    <g id="xtick_6">
     <g id="line2d_11">
      <path d="M 202.20363 225.36 
L 202.20363 3.6 
" clip-path="url(#p0216de4f0f)" style="fill: none; stroke: #b0b0b0; stroke-width: 0.8; stroke-linecap: square"/>
     </g>
     <g id="line2d_12">
      <g>
       <use xlink:href="#mc687974875" x="202.20363" y="225.36" style="stroke: #000000; stroke-width: 0.8"/>
      </g>
     </g>
     <g id="text_6">
      <!-- 25 -->
      <g transform="translate(196.47738 239.198594) scale(0.09 -0.09)">
       <use xlink:href="#DejaVuSerif-32"/>
       <use xlink:href="#DejaVuSerif-35" x="63.623047"/>
      </g>
     </g>
    </g>
    <g id="xtick_7">
     <g id="line2d_13">
      <path d="M 232.920836 225.36 
L 232.920836 3.6 
" clip-path="url(#p0216de4f0f)" style="fill: none; stroke: #b0b0b0; stroke-width: 0.8; stroke-linecap: square"/>
     </g>
     <g id="line2d_14">
      <g>
       <use xlink:href="#mc687974875" x="232.920836" y="225.36" style="stroke: #000000; stroke-width: 0.8"/>
      </g>
     </g>
     <g id="text_7">
      <!-- 30 -->
      <g transform="translate(227.194586 239.198594) scale(0.09 -0.09)">
       <defs>
        <path id="DejaVuSerif-33" d="M 622 4469 
Q 988 4606 1323 4678 
Q 1659 4750 1953 4750 
Q 2638 4750 3022 4454 
Q 3406 4159 3406 3634 
Q 3406 3213 3140 2930 
Q 2875 2647 2388 2547 
Q 2963 2466 3280 2130 
Q 3597 1794 3597 1259 
Q 3597 606 3158 257 
Q 2719 -91 1894 -91 
Q 1528 -91 1179 -12 
Q 831 66 488 225 
L 488 1131 
L 838 1131 
Q 869 681 1141 450 
Q 1413 219 1906 219 
Q 2384 219 2661 495 
Q 2938 772 2938 1253 
Q 2938 1803 2653 2086 
Q 2369 2369 1819 2369 
L 1522 2369 
L 1522 2688 
L 1678 2688 
Q 2225 2688 2498 2914 
Q 2772 3141 2772 3597 
Q 2772 4006 2547 4223 
Q 2322 4441 1900 4441 
Q 1478 4441 1245 4241 
Q 1013 4041 972 3647 
L 622 3647 
L 622 4469 
z
" transform="scale(0.015625)"/>
       </defs>
       <use xlink:href="#DejaVuSerif-33"/>
       <use xlink:href="#DejaVuSerif-30" x="63.623047"/>
      </g>
     </g>
    </g>
    <g id="xtick_8">
     <g id="line2d_15">
      <path d="M 263.638043 225.36 
L 263.638043 3.6 
" clip-path="url(#p0216de4f0f)" style="fill: none; stroke: #b0b0b0; stroke-width: 0.8; stroke-linecap: square"/>
     </g>
     <g id="line2d_16">
      <g>
       <use xlink:href="#mc687974875" x="263.638043" y="225.36" style="stroke: #000000; stroke-width: 0.8"/>
      </g>
     </g>
     <g id="text_8">
      <!-- 35 -->
      <g transform="translate(257.911793 239.198594) scale(0.09 -0.09)">
       <use xlink:href="#DejaVuSerif-33"/>
       <use xlink:href="#DejaVuSerif-35" x="63.623047"/>
      </g>
     </g>
    </g>
    <g id="text_9">
     <!-- Epoch -->
     <g transform="translate(143.31829 252.66875) scale(0.1 -0.1)">
      <defs>
       <path id="DejaVuSerif-45" d="M 353 0 
L 353 331 
L 947 331 
L 947 4331 
L 353 4331 
L 353 4666 
L 4109 4666 
L 4109 3628 
L 3725 3628 
L 3725 4281 
L 1581 4281 
L 1581 2719 
L 3109 2719 
L 3109 3303 
L 3494 3303 
L 3494 1753 
L 3109 1753 
L 3109 2338 
L 1581 2338 
L 1581 384 
L 3775 384 
L 3775 1038 
L 4159 1038 
L 4159 0 
L 353 0 
z
" transform="scale(0.015625)"/>
       <path id="DejaVuSerif-70" d="M 1313 1825 
L 1313 1497 
Q 1313 897 1542 583 
Q 1772 269 2209 269 
Q 2650 269 2876 622 
Q 3103 975 3103 1663 
Q 3103 2353 2876 2703 
Q 2650 3053 2209 3053 
Q 1772 3053 1542 2737 
Q 1313 2422 1313 1825 
z
M 738 2988 
L 184 2988 
L 184 3322 
L 1313 3322 
L 1313 2803 
Q 1481 3116 1742 3264 
Q 2003 3413 2388 3413 
Q 3000 3413 3387 2928 
Q 3775 2444 3775 1663 
Q 3775 881 3387 395 
Q 3000 -91 2388 -91 
Q 2003 -91 1742 57 
Q 1481 206 1313 519 
L 1313 -997 
L 1856 -997 
L 1856 -1331 
L 184 -1331 
L 184 -997 
L 738 -997 
L 738 2988 
z
" transform="scale(0.015625)"/>
       <path id="DejaVuSerif-6f" d="M 1925 219 
Q 2388 219 2623 584 
Q 2859 950 2859 1663 
Q 2859 2375 2623 2739 
Q 2388 3103 1925 3103 
Q 1463 3103 1227 2739 
Q 991 2375 991 1663 
Q 991 950 1228 584 
Q 1466 219 1925 219 
z
M 1925 -91 
Q 1200 -91 759 389 
Q 319 869 319 1663 
Q 319 2456 758 2934 
Q 1197 3413 1925 3413 
Q 2653 3413 3092 2934 
Q 3531 2456 3531 1663 
Q 3531 869 3092 389 
Q 2653 -91 1925 -91 
z
" transform="scale(0.015625)"/>
       <path id="DejaVuSerif-63" d="M 3291 997 
Q 3169 466 2822 187 
Q 2475 -91 1925 -91 
Q 1200 -91 759 389 
Q 319 869 319 1663 
Q 319 2459 759 2936 
Q 1200 3413 1925 3413 
Q 2241 3413 2553 3339 
Q 2866 3266 3181 3116 
L 3181 2266 
L 2847 2266 
Q 2781 2703 2561 2903 
Q 2341 3103 1931 3103 
Q 1466 3103 1228 2742 
Q 991 2381 991 1663 
Q 991 944 1227 581 
Q 1463 219 1931 219 
Q 2303 219 2525 412 
Q 2747 606 2828 997 
L 3291 997 
z
" transform="scale(0.015625)"/>
       <path id="DejaVuSerif-68" d="M 263 0 
L 263 331 
L 781 331 
L 781 4531 
L 231 4531 
L 231 4863 
L 1356 4863 
L 1356 2731 
Q 1516 3069 1770 3241 
Q 2025 3413 2363 3413 
Q 2913 3413 3172 3097 
Q 3431 2781 3431 2113 
L 3431 331 
L 3944 331 
L 3944 0 
L 2356 0 
L 2356 331 
L 2853 331 
L 2853 1931 
Q 2853 2541 2704 2764 
Q 2556 2988 2175 2988 
Q 1775 2988 1565 2697 
Q 1356 2406 1356 1850 
L 1356 331 
L 1856 331 
L 1856 0 
L 263 0 
z
" transform="scale(0.015625)"/>
      </defs>
      <use xlink:href="#DejaVuSerif-45"/>
      <use xlink:href="#DejaVuSerif-70" x="72.998047"/>
      <use xlink:href="#DejaVuSerif-6f" x="137.011719"/>
      <use xlink:href="#DejaVuSerif-63" x="197.216797"/>
      <use xlink:href="#DejaVuSerif-68" x="253.222656"/>
     </g>
    </g>
   </g>
   <g id="matplotlib.axis_2">
    <g id="ytick_1">
     <g id="line2d_17">
      <path d="M 44.317188 198.690147 
L 274.081893 198.690147 
" clip-path="url(#p0216de4f0f)" style="fill: none; stroke: #b0b0b0; stroke-width: 0.8; stroke-linecap: square"/>
     </g>
     <g id="line2d_18">
      <defs>
       <path id="m78749df8fa" d="M 0 0 
L -3.5 0 
" style="stroke: #000000; stroke-width: 0.8"/>
      </defs>
      <g>
       <use xlink:href="#m78749df8fa" x="44.317188" y="198.690147" style="stroke: #000000; stroke-width: 0.8"/>
      </g>
     </g>
     <g id="text_10">
      <!-- 0.08 -->
      <g transform="translate(17.278125 202.109444) scale(0.09 -0.09)">
       <defs>
        <path id="DejaVuSerif-2e" d="M 603 325 
Q 603 500 722 622 
Q 841 744 1019 744 
Q 1191 744 1312 622 
Q 1434 500 1434 325 
Q 1434 153 1312 31 
Q 1191 -91 1019 -91 
Q 841 -91 722 29 
Q 603 150 603 325 
z
" transform="scale(0.015625)"/>
        <path id="DejaVuSerif-38" d="M 2981 1275 
Q 2981 1775 2732 2051 
Q 2484 2328 2034 2328 
Q 1584 2328 1336 2051 
Q 1088 1775 1088 1275 
Q 1088 772 1336 495 
Q 1584 219 2034 219 
Q 2484 219 2732 495 
Q 2981 772 2981 1275 
z
M 2853 3541 
Q 2853 3966 2637 4203 
Q 2422 4441 2034 4441 
Q 1650 4441 1433 4203 
Q 1216 3966 1216 3541 
Q 1216 3113 1433 2875 
Q 1650 2638 2034 2638 
Q 2422 2638 2637 2875 
Q 2853 3113 2853 3541 
z
M 2516 2484 
Q 3047 2413 3344 2092 
Q 3641 1772 3641 1275 
Q 3641 619 3225 264 
Q 2809 -91 2034 -91 
Q 1263 -91 845 264 
Q 428 619 428 1275 
Q 428 1772 725 2092 
Q 1022 2413 1556 2484 
Q 1084 2569 832 2842 
Q 581 3116 581 3541 
Q 581 4103 968 4426 
Q 1356 4750 2034 4750 
Q 2713 4750 3100 4426 
Q 3488 4103 3488 3541 
Q 3488 3116 3236 2842 
Q 2984 2569 2516 2484 
z
" transform="scale(0.015625)"/>
       </defs>
       <use xlink:href="#DejaVuSerif-30"/>
       <use xlink:href="#DejaVuSerif-2e" x="63.623047"/>
       <use xlink:href="#DejaVuSerif-30" x="95.410156"/>
       <use xlink:href="#DejaVuSerif-38" x="159.033203"/>
      </g>
     </g>
    </g>
    <g id="ytick_2">
     <g id="line2d_19">
      <path d="M 44.317188 167.646501 
L 274.081893 167.646501 
" clip-path="url(#p0216de4f0f)" style="fill: none; stroke: #b0b0b0; stroke-width: 0.8; stroke-linecap: square"/>
     </g>
     <g id="line2d_20">
      <g>
       <use xlink:href="#m78749df8fa" x="44.317188" y="167.646501" style="stroke: #000000; stroke-width: 0.8"/>
      </g>
     </g>
     <g id="text_11">
      <!-- 0.09 -->
      <g transform="translate(17.278125 171.065798) scale(0.09 -0.09)">
       <defs>
        <path id="DejaVuSerif-39" d="M 2994 2091 
Q 2784 1856 2512 1740 
Q 2241 1625 1900 1625 
Q 1206 1625 804 2044 
Q 403 2463 403 3188 
Q 403 3897 839 4323 
Q 1275 4750 2003 4750 
Q 2794 4750 3217 4161 
Q 3641 3572 3641 2478 
Q 3641 1253 3137 581 
Q 2634 -91 1722 -91 
Q 1475 -91 1203 -44 
Q 931 3 647 97 
L 647 872 
L 997 872 
Q 1038 556 1241 387 
Q 1444 219 1784 219 
Q 2391 219 2687 676 
Q 2984 1134 2994 2091 
z
M 1978 4441 
Q 1534 4441 1298 4117 
Q 1063 3794 1063 3188 
Q 1063 2581 1298 2256 
Q 1534 1931 1978 1931 
Q 2422 1931 2658 2245 
Q 2894 2559 2894 3150 
Q 2894 3772 2656 4106 
Q 2419 4441 1978 4441 
z
" transform="scale(0.015625)"/>
       </defs>
       <use xlink:href="#DejaVuSerif-30"/>
       <use xlink:href="#DejaVuSerif-2e" x="63.623047"/>
       <use xlink:href="#DejaVuSerif-30" x="95.410156"/>
       <use xlink:href="#DejaVuSerif-39" x="159.033203"/>
      </g>
     </g>
    </g>
    <g id="ytick_3">
     <g id="line2d_21">
      <path d="M 44.317188 136.602856 
L 274.081893 136.602856 
" clip-path="url(#p0216de4f0f)" style="fill: none; stroke: #b0b0b0; stroke-width: 0.8; stroke-linecap: square"/>
     </g>
     <g id="line2d_22">
      <g>
       <use xlink:href="#m78749df8fa" x="44.317188" y="136.602856" style="stroke: #000000; stroke-width: 0.8"/>
      </g>
     </g>
     <g id="text_12">
      <!-- 0.10 -->
      <g transform="translate(17.278125 140.022153) scale(0.09 -0.09)">
       <use xlink:href="#DejaVuSerif-30"/>
       <use xlink:href="#DejaVuSerif-2e" x="63.623047"/>
       <use xlink:href="#DejaVuSerif-31" x="95.410156"/>
       <use xlink:href="#DejaVuSerif-30" x="159.033203"/>
      </g>
     </g>
    </g>
    <g id="ytick_4">
     <g id="line2d_23">
      <path d="M 44.317188 105.559211 
L 274.081893 105.559211 
" clip-path="url(#p0216de4f0f)" style="fill: none; stroke: #b0b0b0; stroke-width: 0.8; stroke-linecap: square"/>
     </g>
     <g id="line2d_24">
      <g>
       <use xlink:href="#m78749df8fa" x="44.317188" y="105.559211" style="stroke: #000000; stroke-width: 0.8"/>
      </g>
     </g>
     <g id="text_13">
      <!-- 0.11 -->
      <g transform="translate(17.278125 108.978508) scale(0.09 -0.09)">
       <use xlink:href="#DejaVuSerif-30"/>
       <use xlink:href="#DejaVuSerif-2e" x="63.623047"/>
       <use xlink:href="#DejaVuSerif-31" x="95.410156"/>
       <use xlink:href="#DejaVuSerif-31" x="159.033203"/>
      </g>
     </g>
    </g>
    <g id="ytick_5">
     <g id="line2d_25">
      <path d="M 44.317188 74.515565 
L 274.081893 74.515565 
" clip-path="url(#p0216de4f0f)" style="fill: none; stroke: #b0b0b0; stroke-width: 0.8; stroke-linecap: square"/>
     </g>
     <g id="line2d_26">
      <g>
       <use xlink:href="#m78749df8fa" x="44.317188" y="74.515565" style="stroke: #000000; stroke-width: 0.8"/>
      </g>
     </g>
     <g id="text_14">
      <!-- 0.12 -->
      <g transform="translate(17.278125 77.934862) scale(0.09 -0.09)">
       <use xlink:href="#DejaVuSerif-30"/>
       <use xlink:href="#DejaVuSerif-2e" x="63.623047"/>
       <use xlink:href="#DejaVuSerif-31" x="95.410156"/>
       <use xlink:href="#DejaVuSerif-32" x="159.033203"/>
      </g>
     </g>
    </g>
    <g id="ytick_6">
     <g id="line2d_27">
      <path d="M 44.317188 43.47192 
L 274.081893 43.47192 
" clip-path="url(#p0216de4f0f)" style="fill: none; stroke: #b0b0b0; stroke-width: 0.8; stroke-linecap: square"/>
     </g>
     <g id="line2d_28">
      <g>
       <use xlink:href="#m78749df8fa" x="44.317188" y="43.47192" style="stroke: #000000; stroke-width: 0.8"/>
      </g>
     </g>
     <g id="text_15">
      <!-- 0.13 -->
      <g transform="translate(17.278125 46.891217) scale(0.09 -0.09)">
       <use xlink:href="#DejaVuSerif-30"/>
       <use xlink:href="#DejaVuSerif-2e" x="63.623047"/>
       <use xlink:href="#DejaVuSerif-31" x="95.410156"/>
       <use xlink:href="#DejaVuSerif-33" x="159.033203"/>
      </g>
     </g>
    </g>
    <g id="ytick_7">
     <g id="line2d_29">
      <path d="M 44.317188 12.428275 
L 274.081893 12.428275 
" clip-path="url(#p0216de4f0f)" style="fill: none; stroke: #b0b0b0; stroke-width: 0.8; stroke-linecap: square"/>
     </g>
     <g id="line2d_30">
      <g>
       <use xlink:href="#m78749df8fa" x="44.317188" y="12.428275" style="stroke: #000000; stroke-width: 0.8"/>
      </g>
     </g>
     <g id="text_16">
      <!-- 0.14 -->
      <g transform="translate(17.278125 15.847572) scale(0.09 -0.09)">
       <defs>
        <path id="DejaVuSerif-34" d="M 2234 1581 
L 2234 4063 
L 641 1581 
L 2234 1581 
z
M 3609 0 
L 1484 0 
L 1484 331 
L 2234 331 
L 2234 1247 
L 197 1247 
L 197 1588 
L 2241 4750 
L 2859 4750 
L 2859 1581 
L 3750 1581 
L 3750 1247 
L 2859 1247 
L 2859 331 
L 3609 331 
L 3609 0 
z
" transform="scale(0.015625)"/>
       </defs>
       <use xlink:href="#DejaVuSerif-30"/>
       <use xlink:href="#DejaVuSerif-2e" x="63.623047"/>
       <use xlink:href="#DejaVuSerif-31" x="95.410156"/>
       <use xlink:href="#DejaVuSerif-34" x="159.033203"/>
      </g>
     </g>
    </g>
    <g id="text_17">
     <!-- Total Loss -->
     <g transform="translate(11.198438 140.078438) rotate(-90) scale(0.1 -0.1)">
      <defs>
       <path id="DejaVuSerif-54" d="M 1222 0 
L 1222 331 
L 1819 331 
L 1819 4294 
L 447 4294 
L 447 3566 
L 63 3566 
L 63 4666 
L 4206 4666 
L 4206 3566 
L 3822 3566 
L 3822 4294 
L 2450 4294 
L 2450 331 
L 3047 331 
L 3047 0 
L 1222 0 
z
" transform="scale(0.015625)"/>
       <path id="DejaVuSerif-74" d="M 691 2988 
L 184 2988 
L 184 3322 
L 691 3322 
L 691 4353 
L 1269 4353 
L 1269 3322 
L 2350 3322 
L 2350 2988 
L 1269 2988 
L 1269 878 
Q 1269 456 1350 337 
Q 1431 219 1650 219 
Q 1875 219 1978 351 
Q 2081 484 2088 781 
L 2522 781 
Q 2497 328 2275 118 
Q 2053 -91 1600 -91 
Q 1103 -91 897 129 
Q 691 350 691 878 
L 691 2988 
z
" transform="scale(0.015625)"/>
       <path id="DejaVuSerif-61" d="M 2547 1044 
L 2547 1747 
L 1806 1747 
Q 1378 1747 1168 1562 
Q 959 1378 959 997 
Q 959 650 1171 447 
Q 1384 244 1747 244 
Q 2106 244 2326 466 
Q 2547 688 2547 1044 
z
M 3122 2075 
L 3122 331 
L 3634 331 
L 3634 0 
L 2547 0 
L 2547 359 
Q 2356 128 2106 18 
Q 1856 -91 1522 -91 
Q 969 -91 644 203 
Q 319 497 319 997 
Q 319 1513 691 1797 
Q 1063 2081 1741 2081 
L 2547 2081 
L 2547 2309 
Q 2547 2688 2317 2895 
Q 2088 3103 1672 3103 
Q 1328 3103 1125 2947 
Q 922 2791 872 2484 
L 575 2484 
L 575 3156 
Q 875 3284 1158 3348 
Q 1441 3413 1709 3413 
Q 2400 3413 2761 3070 
Q 3122 2728 3122 2075 
z
" transform="scale(0.015625)"/>
       <path id="DejaVuSerif-6c" d="M 1313 331 
L 1856 331 
L 1856 0 
L 184 0 
L 184 331 
L 738 331 
L 738 4531 
L 184 4531 
L 184 4863 
L 1313 4863 
L 1313 331 
z
" transform="scale(0.015625)"/>
       <path id="DejaVuSerif-20" transform="scale(0.015625)"/>
       <path id="DejaVuSerif-4c" d="M 353 0 
L 353 331 
L 947 331 
L 947 4331 
L 353 4331 
L 353 4666 
L 2175 4666 
L 2175 4331 
L 1581 4331 
L 1581 384 
L 3713 384 
L 3713 1166 
L 4097 1166 
L 4097 0 
L 353 0 
z
" transform="scale(0.015625)"/>
       <path id="DejaVuSerif-73" d="M 359 184 
L 359 959 
L 691 959 
Q 703 588 923 403 
Q 1144 219 1575 219 
Q 1963 219 2166 364 
Q 2369 509 2369 788 
Q 2369 1006 2220 1140 
Q 2072 1275 1594 1428 
L 1178 1569 
Q 750 1706 558 1912 
Q 366 2119 366 2438 
Q 366 2894 700 3153 
Q 1034 3413 1625 3413 
Q 1888 3413 2178 3344 
Q 2469 3275 2778 3144 
L 2778 2419 
L 2447 2419 
Q 2434 2741 2221 2922 
Q 2009 3103 1644 3103 
Q 1281 3103 1095 2975 
Q 909 2847 909 2591 
Q 909 2381 1050 2254 
Q 1191 2128 1613 1997 
L 2069 1856 
Q 2541 1709 2748 1489 
Q 2956 1269 2956 922 
Q 2956 450 2595 179 
Q 2234 -91 1600 -91 
Q 1278 -91 972 -22 
Q 666 47 359 184 
z
" transform="scale(0.015625)"/>
      </defs>
      <use xlink:href="#DejaVuSerif-54"/>
      <use xlink:href="#DejaVuSerif-6f" x="58.949219"/>
      <use xlink:href="#DejaVuSerif-74" x="119.154297"/>
      <use xlink:href="#DejaVuSerif-61" x="159.339844"/>
      <use xlink:href="#DejaVuSerif-6c" x="218.958984"/>
      <use xlink:href="#DejaVuSerif-20" x="250.941406"/>
      <use xlink:href="#DejaVuSerif-4c" x="282.728516"/>
      <use xlink:href="#DejaVuSerif-6f" x="349.134766"/>
      <use xlink:href="#DejaVuSerif-73" x="409.339844"/>
      <use xlink:href="#DejaVuSerif-73" x="460.658203"/>
     </g>
    </g>
   </g>
   <g id="line2d_31">
    <path d="M 54.761038 13.68 
L 60.904479 147.700119 
L 67.04792 168.283277 
L 73.191362 177.816757 
L 79.334803 183.586882 
L 85.478244 188.526117 
L 91.621686 191.889057 
L 97.765127 194.714363 
L 103.908568 196.698213 
L 110.05201 197.880709 
L 116.195451 199.212037 
L 122.338892 200.021271 
L 128.482334 200.595722 
L 134.625775 200.995145 
L 140.769216 201.889441 
L 146.912658 202.353365 
L 153.056099 202.803863 
L 159.19954 203.354088 
L 165.342982 203.758933 
L 171.486423 203.463889 
L 177.629864 204.477958 
L 183.773306 204.479533 
L 189.916747 204.946412 
L 196.060188 205.212187 
L 202.20363 205.846669 
L 208.347071 206.090391 
L 214.490512 206.339809 
L 220.633954 206.653449 
L 226.777395 206.669212 
L 232.920836 207.047285 
L 239.064278 207.254774 
L 245.207719 207.65306 
L 251.35116 207.786099 
L 257.494602 208.326604 
L 263.638043 207.950499 
" clip-path="url(#p0216de4f0f)" style="fill: none; stroke: #0000ff; stroke-width: 1.2; stroke-linecap: square"/>
   </g>
   <g id="line2d_32">
    <path d="M 54.761038 154.036513 
L 60.904479 177.524186 
L 67.04792 187.961758 
L 73.191362 181.181521 
L 79.334803 192.136773 
L 85.478244 199.417636 
L 91.621686 192.281705 
L 97.765127 183.868799 
L 103.908568 201.447438 
L 110.05201 182.246146 
L 116.195451 202.605754 
L 122.338892 178.364872 
L 128.482334 205.844398 
L 134.625775 212.181142 
L 140.769216 206.04737 
L 146.912658 212.935537 
L 153.056099 177.690195 
L 159.19954 209.583955 
L 165.342982 197.522502 
L 171.486423 215.28 
L 177.629864 194.29024 
L 183.773306 207.979148 
L 189.916747 200.791988 
L 196.060188 195.236566 
L 202.20363 208.347937 
L 208.347071 206.701289 
L 214.490512 208.713224 
L 220.633954 210.581753 
L 226.777395 211.240664 
L 232.920836 197.213854 
L 239.064278 203.398149 
L 245.207719 211.806478 
L 251.35116 211.629937 
L 257.494602 207.249998 
L 263.638043 196.923524 
" clip-path="url(#p0216de4f0f)" style="fill: none; stroke-dasharray: 5.55,2.4; stroke-dashoffset: 0; stroke: #ff0000; stroke-width: 1.5"/>
   </g>
   <g id="patch_3">
    <path d="M 44.317188 225.36 
L 44.317188 3.6 
" style="fill: none; stroke: #000000; stroke-width: 0.8; stroke-linejoin: miter; stroke-linecap: square"/>
   </g>
   <g id="patch_4">
    <path d="M 44.317188 225.36 
L 274.081893 225.36 
" style="fill: none; stroke: #000000; stroke-width: 0.8; stroke-linejoin: miter; stroke-linecap: square"/>
   </g>
   <g id="legend_1">
    <g id="line2d_33">
     <path d="M 203.913143 14.07875 
L 211.913143 14.07875 
L 219.913143 14.07875 
" style="fill: none; stroke: #0000ff; stroke-width: 1.2; stroke-linecap: square"/>
    </g>
    <g id="text_18">
     <!-- Training -->
     <g transform="translate(226.313143 16.87875) scale(0.08 -0.08)">
      <defs>
       <path id="DejaVuSerif-72" d="M 3059 3328 
L 3059 2497 
L 2728 2497 
Q 2713 2744 2591 2866 
Q 2469 2988 2234 2988 
Q 1809 2988 1582 2694 
Q 1356 2400 1356 1850 
L 1356 331 
L 2022 331 
L 2022 0 
L 263 0 
L 263 331 
L 781 331 
L 781 2994 
L 231 2994 
L 231 3322 
L 1356 3322 
L 1356 2731 
Q 1525 3078 1790 3245 
Q 2056 3413 2438 3413 
Q 2578 3413 2733 3391 
Q 2888 3369 3059 3328 
z
" transform="scale(0.015625)"/>
       <path id="DejaVuSerif-69" d="M 622 4353 
Q 622 4497 726 4603 
Q 831 4709 978 4709 
Q 1122 4709 1226 4603 
Q 1331 4497 1331 4353 
Q 1331 4206 1228 4103 
Q 1125 4000 978 4000 
Q 831 4000 726 4103 
Q 622 4206 622 4353 
z
M 1356 331 
L 1900 331 
L 1900 0 
L 231 0 
L 231 331 
L 781 331 
L 781 2988 
L 231 2988 
L 231 3322 
L 1356 3322 
L 1356 331 
z
" transform="scale(0.015625)"/>
       <path id="DejaVuSerif-6e" d="M 263 0 
L 263 331 
L 781 331 
L 781 2988 
L 231 2988 
L 231 3322 
L 1356 3322 
L 1356 2731 
Q 1516 3069 1770 3241 
Q 2025 3413 2363 3413 
Q 2913 3413 3172 3097 
Q 3431 2781 3431 2113 
L 3431 331 
L 3944 331 
L 3944 0 
L 2356 0 
L 2356 331 
L 2853 331 
L 2853 1931 
Q 2853 2541 2703 2767 
Q 2553 2994 2175 2994 
Q 1775 2994 1565 2701 
Q 1356 2409 1356 1850 
L 1356 331 
L 1856 331 
L 1856 0 
L 263 0 
z
" transform="scale(0.015625)"/>
       <path id="DejaVuSerif-67" d="M 3359 2988 
L 3359 72 
Q 3359 -644 2965 -1033 
Q 2572 -1422 1844 -1422 
Q 1516 -1422 1216 -1362 
Q 916 -1303 641 -1184 
L 641 -488 
L 941 -488 
Q 997 -813 1206 -963 
Q 1416 -1113 1806 -1113 
Q 2313 -1113 2548 -827 
Q 2784 -541 2784 72 
L 2784 519 
Q 2616 206 2355 57 
Q 2094 -91 1709 -91 
Q 1097 -91 708 395 
Q 319 881 319 1663 
Q 319 2444 706 2928 
Q 1094 3413 1709 3413 
Q 2094 3413 2355 3264 
Q 2616 3116 2784 2803 
L 2784 3322 
L 3909 3322 
L 3909 2988 
L 3359 2988 
z
M 2784 1825 
Q 2784 2422 2554 2737 
Q 2325 3053 1888 3053 
Q 1444 3053 1217 2703 
Q 991 2353 991 1663 
Q 991 975 1217 622 
Q 1444 269 1888 269 
Q 2325 269 2554 583 
Q 2784 897 2784 1497 
L 2784 1825 
z
" transform="scale(0.015625)"/>
      </defs>
      <use xlink:href="#DejaVuSerif-54"/>
      <use xlink:href="#DejaVuSerif-72" x="66.699219"/>
      <use xlink:href="#DejaVuSerif-61" x="114.501953"/>
      <use xlink:href="#DejaVuSerif-69" x="174.121094"/>
      <use xlink:href="#DejaVuSerif-6e" x="206.103516"/>
      <use xlink:href="#DejaVuSerif-69" x="270.507812"/>
      <use xlink:href="#DejaVuSerif-6e" x="302.490234"/>
      <use xlink:href="#DejaVuSerif-67" x="366.894531"/>
     </g>
    </g>
    <g id="line2d_34">
     <path d="M 203.913143 25.935 
L 211.913143 25.935 
L 219.913143 25.935 
" style="fill: none; stroke-dasharray: 5.55,2.4; stroke-dashoffset: 0; stroke: #ff0000; stroke-width: 1.5"/>
    </g>
    <g id="text_19">
     <!-- Validation -->
     <g transform="translate(226.313143 28.735) scale(0.08 -0.08)">
      <defs>
       <path id="DejaVuSerif-56" d="M 1119 4331 
L 2497 750 
L 3872 4331 
L 3347 4331 
L 3347 4666 
L 4716 4666 
L 4716 4331 
L 4263 4331 
L 2597 0 
L 2059 0 
L 403 4331 
L -63 4331 
L -63 4666 
L 1638 4666 
L 1638 4331 
L 1119 4331 
z
" transform="scale(0.015625)"/>
       <path id="DejaVuSerif-64" d="M 3359 331 
L 3909 331 
L 3909 0 
L 2784 0 
L 2784 519 
Q 2616 206 2355 57 
Q 2094 -91 1709 -91 
Q 1097 -91 708 395 
Q 319 881 319 1663 
Q 319 2444 706 2928 
Q 1094 3413 1709 3413 
Q 2094 3413 2355 3264 
Q 2616 3116 2784 2803 
L 2784 4531 
L 2241 4531 
L 2241 4863 
L 3359 4863 
L 3359 331 
z
M 2784 1497 
L 2784 1825 
Q 2784 2422 2554 2737 
Q 2325 3053 1888 3053 
Q 1444 3053 1217 2703 
Q 991 2353 991 1663 
Q 991 975 1217 622 
Q 1444 269 1888 269 
Q 2325 269 2554 583 
Q 2784 897 2784 1497 
z
" transform="scale(0.015625)"/>
      </defs>
      <use xlink:href="#DejaVuSerif-56"/>
      <use xlink:href="#DejaVuSerif-61" x="63.091797"/>
      <use xlink:href="#DejaVuSerif-6c" x="122.710938"/>
      <use xlink:href="#DejaVuSerif-69" x="154.693359"/>
      <use xlink:href="#DejaVuSerif-64" x="186.675781"/>
      <use xlink:href="#DejaVuSerif-61" x="250.689453"/>
      <use xlink:href="#DejaVuSerif-74" x="310.308594"/>
      <use xlink:href="#DejaVuSerif-69" x="350.494141"/>
      <use xlink:href="#DejaVuSerif-6f" x="382.476562"/>
      <use xlink:href="#DejaVuSerif-6e" x="442.681641"/>
     </g>
    </g>
   </g>
  </g>
  <g id="axes_2">
   <g id="patch_5">
    <path d="M 320.034835 225.36 
L 549.79954 225.36 
L 549.79954 3.6 
L 320.034835 3.6 
z
" style="fill: #ffffff"/>
   </g>
   <g id="matplotlib.axis_3">
    <g id="xtick_9">
     <g id="line2d_35">
      <path d="M 324.335243 225.36 
L 324.335243 3.6 
" clip-path="url(#p1d115720bf)" style="fill: none; stroke: #b0b0b0; stroke-width: 0.8; stroke-linecap: square"/>
     </g>
     <g id="line2d_36">
      <g>
       <use xlink:href="#mc687974875" x="324.335243" y="225.36" style="stroke: #000000; stroke-width: 0.8"/>
      </g>
     </g>
     <g id="text_20">
      <!-- 0 -->
      <g transform="translate(321.472118 239.198594) scale(0.09 -0.09)">
       <use xlink:href="#DejaVuSerif-30"/>
      </g>
     </g>
    </g>
    <g id="xtick_10">
     <g id="line2d_37">
      <path d="M 355.05245 225.36 
L 355.05245 3.6 
" clip-path="url(#p1d115720bf)" style="fill: none; stroke: #b0b0b0; stroke-width: 0.8; stroke-linecap: square"/>
     </g>
     <g id="line2d_38">
      <g>
       <use xlink:href="#mc687974875" x="355.05245" y="225.36" style="stroke: #000000; stroke-width: 0.8"/>
      </g>
     </g>
     <g id="text_21">
      <!-- 5 -->
      <g transform="translate(352.189325 239.198594) scale(0.09 -0.09)">
       <use xlink:href="#DejaVuSerif-35"/>
      </g>
     </g>
    </g>
    <g id="xtick_11">
     <g id="line2d_39">
      <path d="M 385.769657 225.36 
L 385.769657 3.6 
" clip-path="url(#p1d115720bf)" style="fill: none; stroke: #b0b0b0; stroke-width: 0.8; stroke-linecap: square"/>
     </g>
     <g id="line2d_40">
      <g>
       <use xlink:href="#mc687974875" x="385.769657" y="225.36" style="stroke: #000000; stroke-width: 0.8"/>
      </g>
     </g>
     <g id="text_22">
      <!-- 10 -->
      <g transform="translate(380.043407 239.198594) scale(0.09 -0.09)">
       <use xlink:href="#DejaVuSerif-31"/>
       <use xlink:href="#DejaVuSerif-30" x="63.623047"/>
      </g>
     </g>
    </g>
    <g id="xtick_12">
     <g id="line2d_41">
      <path d="M 416.486863 225.36 
L 416.486863 3.6 
" clip-path="url(#p1d115720bf)" style="fill: none; stroke: #b0b0b0; stroke-width: 0.8; stroke-linecap: square"/>
     </g>
     <g id="line2d_42">
      <g>
       <use xlink:href="#mc687974875" x="416.486863" y="225.36" style="stroke: #000000; stroke-width: 0.8"/>
      </g>
     </g>
     <g id="text_23">
      <!-- 15 -->
      <g transform="translate(410.760613 239.198594) scale(0.09 -0.09)">
       <use xlink:href="#DejaVuSerif-31"/>
       <use xlink:href="#DejaVuSerif-35" x="63.623047"/>
      </g>
     </g>
    </g>
    <g id="xtick_13">
     <g id="line2d_43">
      <path d="M 447.20407 225.36 
L 447.20407 3.6 
" clip-path="url(#p1d115720bf)" style="fill: none; stroke: #b0b0b0; stroke-width: 0.8; stroke-linecap: square"/>
     </g>
     <g id="line2d_44">
      <g>
       <use xlink:href="#mc687974875" x="447.20407" y="225.36" style="stroke: #000000; stroke-width: 0.8"/>
      </g>
     </g>
     <g id="text_24">
      <!-- 20 -->
      <g transform="translate(441.47782 239.198594) scale(0.09 -0.09)">
       <use xlink:href="#DejaVuSerif-32"/>
       <use xlink:href="#DejaVuSerif-30" x="63.623047"/>
      </g>
     </g>
    </g>
    <g id="xtick_14">
     <g id="line2d_45">
      <path d="M 477.921277 225.36 
L 477.921277 3.6 
" clip-path="url(#p1d115720bf)" style="fill: none; stroke: #b0b0b0; stroke-width: 0.8; stroke-linecap: square"/>
     </g>
     <g id="line2d_46">
      <g>
       <use xlink:href="#mc687974875" x="477.921277" y="225.36" style="stroke: #000000; stroke-width: 0.8"/>
      </g>
     </g>
     <g id="text_25">
      <!-- 25 -->
      <g transform="translate(472.195027 239.198594) scale(0.09 -0.09)">
       <use xlink:href="#DejaVuSerif-32"/>
       <use xlink:href="#DejaVuSerif-35" x="63.623047"/>
      </g>
     </g>
    </g>
    <g id="xtick_15">
     <g id="line2d_47">
      <path d="M 508.638484 225.36 
L 508.638484 3.6 
" clip-path="url(#p1d115720bf)" style="fill: none; stroke: #b0b0b0; stroke-width: 0.8; stroke-linecap: square"/>
     </g>
     <g id="line2d_48">
      <g>
       <use xlink:href="#mc687974875" x="508.638484" y="225.36" style="stroke: #000000; stroke-width: 0.8"/>
      </g>
     </g>
     <g id="text_26">
      <!-- 30 -->
      <g transform="translate(502.912234 239.198594) scale(0.09 -0.09)">
       <use xlink:href="#DejaVuSerif-33"/>
       <use xlink:href="#DejaVuSerif-30" x="63.623047"/>
      </g>
     </g>
    </g>
    <g id="xtick_16">
     <g id="line2d_49">
      <path d="M 539.35569 225.36 
L 539.35569 3.6 
" clip-path="url(#p1d115720bf)" style="fill: none; stroke: #b0b0b0; stroke-width: 0.8; stroke-linecap: square"/>
     </g>
     <g id="line2d_50">
      <g>
       <use xlink:href="#mc687974875" x="539.35569" y="225.36" style="stroke: #000000; stroke-width: 0.8"/>
      </g>
     </g>
     <g id="text_27">
      <!-- 35 -->
      <g transform="translate(533.62944 239.198594) scale(0.09 -0.09)">
       <use xlink:href="#DejaVuSerif-33"/>
       <use xlink:href="#DejaVuSerif-35" x="63.623047"/>
      </g>
     </g>
    </g>
    <g id="text_28">
     <!-- Epoch -->
     <g transform="translate(419.035938 252.66875) scale(0.1 -0.1)">
      <use xlink:href="#DejaVuSerif-45"/>
      <use xlink:href="#DejaVuSerif-70" x="72.998047"/>
      <use xlink:href="#DejaVuSerif-6f" x="137.011719"/>
      <use xlink:href="#DejaVuSerif-63" x="197.216797"/>
      <use xlink:href="#DejaVuSerif-68" x="253.222656"/>
     </g>
    </g>
   </g>
   <g id="matplotlib.axis_4">
    <g id="ytick_8">
     <g id="line2d_51">
      <defs>
       <path id="m53eea74f82" d="M 0 0 
L -2 0 
" style="stroke: #000000; stroke-width: 0.6"/>
      </defs>
      <g>
       <use xlink:href="#m53eea74f82" x="320.034835" y="195.03036" style="stroke: #000000; stroke-width: 0.6"/>
      </g>
     </g>
     <g id="text_29">
      <!-- $\mathdefault{1.4\times10^{-3}}$ -->
      <g transform="translate(269.094835 198.449657) scale(0.09 -0.09)">
       <defs>
        <path id="DejaVuSerif-d7" d="M 4481 3450 
L 3034 2003 
L 4481 563 
L 4122 213 
L 2681 1650 
L 1241 213 
L 884 563 
L 2322 2003 
L 884 3450 
L 1241 3803 
L 2681 2363 
L 4122 3803 
L 4481 3450 
z
" transform="scale(0.015625)"/>
        <path id="DejaVuSerif-2212" d="M 678 2259 
L 4684 2259 
L 4684 1753 
L 678 1753 
L 678 2259 
z
" transform="scale(0.015625)"/>
       </defs>
       <use xlink:href="#DejaVuSerif-31" transform="translate(0 0.7125)"/>
       <use xlink:href="#DejaVuSerif-2e" transform="translate(63.623047 0.7125)"/>
       <use xlink:href="#DejaVuSerif-34" transform="translate(95.410156 0.7125)"/>
       <use xlink:href="#DejaVuSerif-d7" transform="translate(173.473199 0.7125)"/>
       <use xlink:href="#DejaVuSerif-31" transform="translate(271.702258 0.7125)"/>
       <use xlink:href="#DejaVuSerif-30" transform="translate(335.325305 0.7125)"/>
       <use xlink:href="#DejaVuSerif-2212" transform="translate(399.856711 37.046875) scale(0.7)"/>
       <use xlink:href="#DejaVuSerif-33" transform="translate(458.509055 37.046875) scale(0.7)"/>
      </g>
     </g>
    </g>
    <g id="ytick_9">
     <g id="line2d_52">
      <g>
       <use xlink:href="#m53eea74f82" x="320.034835" y="146.959351" style="stroke: #000000; stroke-width: 0.6"/>
      </g>
     </g>
     <g id="text_30">
      <!-- $\mathdefault{1.6\times10^{-3}}$ -->
      <g transform="translate(269.094835 150.378648) scale(0.09 -0.09)">
       <defs>
        <path id="DejaVuSerif-36" d="M 2094 219 
Q 2534 219 2771 542 
Q 3009 866 3009 1472 
Q 3009 2078 2771 2401 
Q 2534 2725 2094 2725 
Q 1647 2725 1412 2412 
Q 1178 2100 1178 1509 
Q 1178 888 1415 553 
Q 1653 219 2094 219 
z
M 1075 2569 
Q 1288 2803 1556 2918 
Q 1825 3034 2163 3034 
Q 2859 3034 3264 2615 
Q 3669 2197 3669 1472 
Q 3669 763 3233 336 
Q 2797 -91 2069 -91 
Q 1278 -91 853 498 
Q 428 1088 428 2181 
Q 428 3406 931 4078 
Q 1434 4750 2350 4750 
Q 2597 4750 2869 4703 
Q 3141 4656 3425 4563 
L 3425 3794 
L 3072 3794 
Q 3034 4109 2831 4275 
Q 2628 4441 2284 4441 
Q 1678 4441 1381 3981 
Q 1084 3522 1075 2569 
z
" transform="scale(0.015625)"/>
       </defs>
       <use xlink:href="#DejaVuSerif-31" transform="translate(0 0.7125)"/>
       <use xlink:href="#DejaVuSerif-2e" transform="translate(63.623047 0.7125)"/>
       <use xlink:href="#DejaVuSerif-36" transform="translate(95.410156 0.7125)"/>
       <use xlink:href="#DejaVuSerif-d7" transform="translate(173.473199 0.7125)"/>
       <use xlink:href="#DejaVuSerif-31" transform="translate(271.702258 0.7125)"/>
       <use xlink:href="#DejaVuSerif-30" transform="translate(335.325305 0.7125)"/>
       <use xlink:href="#DejaVuSerif-2212" transform="translate(399.856711 37.046875) scale(0.7)"/>
       <use xlink:href="#DejaVuSerif-33" transform="translate(458.509055 37.046875) scale(0.7)"/>
      </g>
     </g>
    </g>
    <g id="ytick_10">
     <g id="line2d_53">
      <g>
       <use xlink:href="#m53eea74f82" x="320.034835" y="104.557716" style="stroke: #000000; stroke-width: 0.6"/>
      </g>
     </g>
     <g id="text_31">
      <!-- $\mathdefault{1.8\times10^{-3}}$ -->
      <g transform="translate(269.364835 107.977013) scale(0.09 -0.09)">
       <use xlink:href="#DejaVuSerif-31" transform="translate(0 0.7125)"/>
       <use xlink:href="#DejaVuSerif-2e" transform="translate(63.623047 0.7125)"/>
       <use xlink:href="#DejaVuSerif-38" transform="translate(91.785156 0.7125)"/>
       <use xlink:href="#DejaVuSerif-d7" transform="translate(169.848199 0.7125)"/>
       <use xlink:href="#DejaVuSerif-31" transform="translate(268.077258 0.7125)"/>
       <use xlink:href="#DejaVuSerif-30" transform="translate(331.700305 0.7125)"/>
       <use xlink:href="#DejaVuSerif-2212" transform="translate(396.231711 37.046875) scale(0.7)"/>
       <use xlink:href="#DejaVuSerif-33" transform="translate(454.884055 37.046875) scale(0.7)"/>
      </g>
     </g>
    </g>
    <g id="ytick_11">
     <g id="line2d_54">
      <g>
       <use xlink:href="#m53eea74f82" x="320.034835" y="66.628161" style="stroke: #000000; stroke-width: 0.6"/>
      </g>
     </g>
     <g id="text_32">
      <!-- $\mathdefault{2\times10^{-3}}$ -->
      <g transform="translate(277.644835 70.047458) scale(0.09 -0.09)">
       <use xlink:href="#DejaVuSerif-32" transform="translate(0 0.7125)"/>
       <use xlink:href="#DejaVuSerif-d7" transform="translate(78.063043 0.7125)"/>
       <use xlink:href="#DejaVuSerif-31" transform="translate(176.292102 0.7125)"/>
       <use xlink:href="#DejaVuSerif-30" transform="translate(239.915149 0.7125)"/>
       <use xlink:href="#DejaVuSerif-2212" transform="translate(304.446555 37.046875) scale(0.7)"/>
       <use xlink:href="#DejaVuSerif-33" transform="translate(363.098899 37.046875) scale(0.7)"/>
      </g>
     </g>
    </g>
    <g id="ytick_12">
     <g id="line2d_55">
      <g>
       <use xlink:href="#m53eea74f82" x="320.034835" y="32.316705" style="stroke: #000000; stroke-width: 0.6"/>
      </g>
     </g>
     <g id="text_33">
      <!-- $\mathdefault{2.2\times10^{-3}}$ -->
      <g transform="translate(269.274835 35.736002) scale(0.09 -0.09)">
       <use xlink:href="#DejaVuSerif-32" transform="translate(0 0.7125)"/>
       <use xlink:href="#DejaVuSerif-2e" transform="translate(63.623047 0.7125)"/>
       <use xlink:href="#DejaVuSerif-32" transform="translate(92.785156 0.7125)"/>
       <use xlink:href="#DejaVuSerif-d7" transform="translate(170.848199 0.7125)"/>
       <use xlink:href="#DejaVuSerif-31" transform="translate(269.077258 0.7125)"/>
       <use xlink:href="#DejaVuSerif-30" transform="translate(332.700305 0.7125)"/>
       <use xlink:href="#DejaVuSerif-2212" transform="translate(397.231711 37.046875) scale(0.7)"/>
       <use xlink:href="#DejaVuSerif-33" transform="translate(455.884055 37.046875) scale(0.7)"/>
      </g>
     </g>
    </g>
    <g id="text_34">
     <!-- MSE Loss -->
     <g transform="translate(263.015147 139.725313) rotate(-90) scale(0.1 -0.1)">
      <defs>
       <path id="DejaVuSerif-4d" d="M 353 0 
L 353 331 
L 947 331 
L 947 4331 
L 319 4331 
L 319 4666 
L 1678 4666 
L 3316 1344 
L 4953 4666 
L 6228 4666 
L 6228 4331 
L 5606 4331 
L 5606 331 
L 6203 331 
L 6203 0 
L 4378 0 
L 4378 331 
L 4972 331 
L 4972 3938 
L 3372 684 
L 2931 684 
L 1331 3938 
L 1331 331 
L 1925 331 
L 1925 0 
L 353 0 
z
" transform="scale(0.015625)"/>
       <path id="DejaVuSerif-53" d="M 594 225 
L 594 1288 
L 953 1284 
Q 969 753 1261 498 
Q 1553 244 2150 244 
Q 2706 244 2998 464 
Q 3291 684 3291 1106 
Q 3291 1444 3114 1625 
Q 2938 1806 2369 1978 
L 1753 2163 
Q 1084 2366 811 2669 
Q 538 2972 538 3500 
Q 538 4094 959 4422 
Q 1381 4750 2144 4750 
Q 2469 4750 2856 4679 
Q 3244 4609 3681 4475 
L 3681 3481 
L 3328 3481 
Q 3275 3975 2998 4195 
Q 2722 4416 2156 4416 
Q 1663 4416 1405 4214 
Q 1147 4013 1147 3628 
Q 1147 3294 1340 3103 
Q 1534 2913 2163 2725 
L 2741 2553 
Q 3375 2363 3645 2067 
Q 3916 1772 3916 1275 
Q 3916 597 3481 253 
Q 3047 -91 2188 -91 
Q 1803 -91 1404 -12 
Q 1006 66 594 225 
z
" transform="scale(0.015625)"/>
      </defs>
      <use xlink:href="#DejaVuSerif-4d"/>
      <use xlink:href="#DejaVuSerif-53" x="102.392578"/>
      <use xlink:href="#DejaVuSerif-45" x="170.898438"/>
      <use xlink:href="#DejaVuSerif-20" x="243.896484"/>
      <use xlink:href="#DejaVuSerif-4c" x="275.683594"/>
      <use xlink:href="#DejaVuSerif-6f" x="342.089844"/>
      <use xlink:href="#DejaVuSerif-73" x="402.294922"/>
      <use xlink:href="#DejaVuSerif-73" x="453.613281"/>
     </g>
    </g>
   </g>
   <g id="line2d_56">
    <path d="M 330.478685 65.861694 
L 336.622126 109.812443 
L 342.765567 113.038358 
L 348.909009 116.87148 
L 355.05245 120.476995 
L 361.195891 123.077375 
L 367.339333 125.261238 
L 373.482774 127.354105 
L 379.626215 129.02572 
L 385.769657 130.310432 
L 391.913098 130.973648 
L 398.056539 131.85583 
L 404.199981 132.608497 
L 410.343422 132.758444 
L 416.486863 133.929903 
L 422.630305 134.232146 
L 428.773746 134.152213 
L 434.917188 134.696947 
L 441.060629 135.009025 
L 447.20407 135.227639 
L 453.347512 135.398582 
L 459.490953 135.426313 
L 465.634394 135.709629 
L 471.777836 135.568892 
L 477.921277 135.847454 
L 484.064718 136.401102 
L 490.20816 136.418925 
L 496.351601 136.6448 
L 502.495042 136.81113 
L 508.638484 137.132937 
L 514.781925 137.234008 
L 520.925366 137.369626 
L 527.068808 137.760084 
L 533.212249 137.897149 
L 539.35569 137.524378 
" clip-path="url(#p1d115720bf)" style="fill: none; stroke: #1f77b4; stroke-opacity: 0.6; stroke-width: 0.8; stroke-linecap: square"/>
   </g>
   <g id="line2d_57">
    <path d="M 330.478685 116.409404 
L 336.622126 119.599182 
L 342.765567 133.570874 
L 348.909009 132.65388 
L 355.05245 141.496863 
L 361.195891 130.427159 
L 367.339333 143.428478 
L 373.482774 138.490724 
L 379.626215 145.580065 
L 385.769657 143.021165 
L 391.913098 149.048952 
L 398.056539 150.779184 
L 404.199981 142.495443 
L 410.343422 125.623291 
L 416.486863 147.951794 
L 422.630305 150.083962 
L 428.773746 137.778935 
L 434.917188 152.958792 
L 441.060629 143.961054 
L 447.20407 151.344341 
L 453.347512 139.567582 
L 459.490953 143.572185 
L 465.634394 146.9084 
L 471.777836 117.438268 
L 477.921277 144.716335 
L 484.064718 149.833864 
L 490.20816 146.788798 
L 496.351601 144.917513 
L 502.495042 152.283201 
L 508.638484 147.750355 
L 514.781925 123.613833 
L 520.925366 150.92309 
L 527.068808 150.102042 
L 533.212249 149.905784 
L 539.35569 148.65377 
" clip-path="url(#p1d115720bf)" style="fill: none; stroke-dasharray: 4.44,1.92; stroke-dashoffset: 0; stroke: #1f77b4; stroke-width: 1.2"/>
   </g>
   <g id="line2d_58">
    <path d="M 330.478685 106.618774 
L 336.622126 189.564267 
L 342.765567 192.11213 
L 348.909009 194.544019 
L 355.05245 196.16891 
L 361.195891 197.355313 
L 367.339333 198.330264 
L 373.482774 199.431082 
L 379.626215 199.920687 
L 385.769657 200.69803 
L 391.913098 201.02322 
L 398.056539 201.719704 
L 404.199981 201.858399 
L 410.343422 202.678586 
L 416.486863 203.262801 
L 422.630305 203.500625 
L 428.773746 203.872485 
L 434.917188 203.686148 
L 441.060629 204.156137 
L 447.20407 203.893873 
L 453.347512 204.525959 
L 459.490953 204.372159 
L 465.634394 204.437102 
L 471.777836 204.655566 
L 477.921277 204.433183 
L 484.064718 204.778805 
L 490.20816 205.060637 
L 496.351601 204.903209 
L 502.495042 205.329873 
L 508.638484 205.385171 
L 514.781925 205.503963 
L 520.925366 205.472721 
L 527.068808 205.940598 
L 533.212249 206.271994 
L 539.35569 206.683365 
" clip-path="url(#p1d115720bf)" style="fill: none; stroke: #ff7f0e; stroke-opacity: 0.6; stroke-width: 0.8; stroke-linecap: square"/>
   </g>
   <g id="line2d_59">
    <path d="M 330.478685 203.497648 
L 336.622126 203.665642 
L 342.765567 205.70439 
L 348.909009 204.415148 
L 355.05245 200.353049 
L 361.195891 206.019534 
L 367.339333 195.822785 
L 373.482774 197.742875 
L 379.626215 207.279677 
L 385.769657 202.286997 
L 391.913098 207.384383 
L 398.056539 206.747928 
L 404.199981 209.371054 
L 410.343422 205.988874 
L 416.486863 207.211071 
L 422.630305 201.905892 
L 428.773746 199.57826 
L 434.917188 209.467644 
L 441.060629 213.56503 
L 447.20407 204.405026 
L 453.347512 209.629432 
L 459.490953 206.634734 
L 465.634394 215.28 
L 471.777836 211.991995 
L 477.921277 214.345084 
L 484.064718 208.259589 
L 490.20816 210.58042 
L 496.351601 206.099156 
L 502.495042 210.314117 
L 508.638484 212.66065 
L 514.781925 204.974719 
L 520.925366 211.244945 
L 527.068808 206.37954 
L 533.212249 209.992953 
L 539.35569 208.968366 
" clip-path="url(#p1d115720bf)" style="fill: none; stroke-dasharray: 4.44,1.92; stroke-dashoffset: 0; stroke: #ff7f0e; stroke-width: 1.2"/>
   </g>
   <g id="line2d_60">
    <path d="M 330.478685 13.68 
L 336.622126 109.92059 
L 342.765567 113.724644 
L 348.909009 117.09988 
L 355.05245 120.592808 
L 361.195891 123.562278 
L 367.339333 125.915558 
L 373.482774 127.866618 
L 379.626215 129.627814 
L 385.769657 130.791643 
L 391.913098 131.468644 
L 398.056539 132.18902 
L 404.199981 132.8983 
L 410.343422 132.930267 
L 416.486863 134.010742 
L 422.630305 134.208936 
L 428.773746 134.164887 
L 434.917188 134.671055 
L 441.060629 134.901612 
L 447.20407 135.073901 
L 453.347512 135.158002 
L 459.490953 135.265082 
L 465.634394 135.401192 
L 471.777836 135.35243 
L 477.921277 135.534752 
L 484.064718 136.169334 
L 490.20816 136.076059 
L 496.351601 136.3676 
L 502.495042 136.525833 
L 508.638484 136.823938 
L 514.781925 136.774139 
L 520.925366 136.995181 
L 527.068808 137.385779 
L 533.212249 137.5394 
L 539.35569 137.215576 
" clip-path="url(#p1d115720bf)" style="fill: none; stroke: #d62728; stroke-opacity: 0.6; stroke-width: 0.8; stroke-linecap: square"/>
   </g>
   <g id="line2d_61">
    <path d="M 330.478685 93.702157 
L 336.622126 115.934192 
L 342.765567 130.222835 
L 348.909009 135.866974 
L 355.05245 139.009996 
L 361.195891 137.527369 
L 367.339333 143.985165 
L 373.482774 137.968425 
L 379.626215 143.977769 
L 385.769657 145.18895 
L 391.913098 149.221253 
L 398.056539 149.939647 
L 404.199981 143.669181 
L 410.343422 136.884096 
L 416.486863 148.145088 
L 422.630305 149.805031 
L 428.773746 137.539313 
L 434.917188 152.372614 
L 441.060629 141.131033 
L 447.20407 152.455548 
L 453.347512 139.026161 
L 459.490953 136.229416 
L 465.634394 145.166777 
L 471.777836 112.72596 
L 477.921277 144.015033 
L 484.064718 151.290061 
L 490.20816 145.256368 
L 496.351601 142.352761 
L 502.495042 150.070991 
L 508.638484 147.788845 
L 514.781925 122.940609 
L 520.925366 149.19405 
L 527.068808 151.756936 
L 533.212249 149.660161 
L 539.35569 149.577252 
" clip-path="url(#p1d115720bf)" style="fill: none; stroke-dasharray: 4.44,1.92; stroke-dashoffset: 0; stroke: #d62728; stroke-width: 1.2"/>
   </g>
   <g id="line2d_62">
    <path d="M 330.478685 122.42465 
L 336.622126 189.612627 
L 342.765567 191.787704 
L 348.909009 193.874028 
L 355.05245 195.680191 
L 361.195891 196.855663 
L 367.339333 197.397418 
L 373.482774 198.329954 
L 379.626215 198.871914 
L 385.769657 199.80582 
L 391.913098 200.291941 
L 398.056539 200.956347 
L 404.199981 201.024192 
L 410.343422 201.802387 
L 416.486863 202.487624 
L 422.630305 202.877993 
L 428.773746 203.374492 
L 434.917188 203.408598 
L 441.060629 204.051449 
L 447.20407 203.844935 
L 453.347512 204.518348 
L 459.490953 204.356656 
L 465.634394 204.451226 
L 471.777836 204.633189 
L 477.921277 204.481543 
L 484.064718 204.834169 
L 490.20816 205.077113 
L 496.351601 204.960249 
L 502.495042 205.305034 
L 508.638484 205.36556 
L 514.781925 205.524021 
L 520.925366 205.482438 
L 527.068808 205.945986 
L 533.212249 206.276861 
L 539.35569 206.74868 
" clip-path="url(#p1d115720bf)" style="fill: none; stroke: #9467bd; stroke-opacity: 0.6; stroke-width: 0.8; stroke-linecap: square"/>
   </g>
   <g id="line2d_63">
    <path d="M 330.478685 204.877881 
L 336.622126 203.481937 
L 342.765567 204.749175 
L 348.909009 205.381885 
L 355.05245 198.044426 
L 361.195891 205.897287 
L 367.339333 197.040504 
L 373.482774 196.320094 
L 379.626215 194.822961 
L 385.769657 197.211614 
L 391.913098 208.03553 
L 398.056539 205.656772 
L 404.199981 209.064498 
L 410.343422 204.354518 
L 416.486863 209.31207 
L 422.630305 189.714617 
L 428.773746 199.861527 
L 434.917188 209.198134 
L 441.060629 213.306652 
L 447.20407 198.566188 
L 453.347512 208.244751 
L 459.490953 206.349455 
L 465.634394 212.184399 
L 471.777836 212.442773 
L 477.921277 214.339715 
L 484.064718 208.630896 
L 490.20816 210.778204 
L 496.351601 202.308599 
L 502.495042 210.311393 
L 508.638484 212.475896 
L 514.781925 204.099477 
L 520.925366 211.163216 
L 527.068808 206.611047 
L 533.212249 209.326954 
L 539.35569 208.744578 
" clip-path="url(#p1d115720bf)" style="fill: none; stroke-dasharray: 4.44,1.92; stroke-dashoffset: 0; stroke: #9467bd; stroke-width: 1.2"/>
   </g>
   <g id="patch_6">
    <path d="M 320.034835 225.36 
L 320.034835 3.6 
" style="fill: none; stroke: #000000; stroke-width: 0.8; stroke-linejoin: miter; stroke-linecap: square"/>
   </g>
   <g id="patch_7">
    <path d="M 320.034835 225.36 
L 549.79954 225.36 
" style="fill: none; stroke: #000000; stroke-width: 0.8; stroke-linejoin: miter; stroke-linecap: square"/>
   </g>
   <g id="legend_2">
    <g id="line2d_64">
     <path d="M 378.254853 11.459063 
L 384.254853 11.459063 
L 390.254853 11.459063 
" style="fill: none; stroke: #1f77b4; stroke-opacity: 0.6; stroke-width: 0.8; stroke-linecap: square"/>
    </g>
    <g id="text_35">
     <!-- T1 (Ind.Grav) Train -->
     <g transform="translate(395.054853 13.559063) scale(0.06 -0.06)">
      <defs>
       <path id="DejaVuSerif-28" d="M 2041 -997 
Q 1281 -656 893 83 
Q 506 822 506 1931 
Q 506 3044 893 3783 
Q 1281 4522 2041 4863 
L 2041 4556 
Q 1559 4225 1350 3623 
Q 1141 3022 1141 1931 
Q 1141 844 1350 242 
Q 1559 -359 2041 -691 
L 2041 -997 
z
" transform="scale(0.015625)"/>
       <path id="DejaVuSerif-49" d="M 1581 331 
L 2175 331 
L 2175 0 
L 353 0 
L 353 331 
L 947 331 
L 947 4331 
L 353 4331 
L 353 4666 
L 2175 4666 
L 2175 4331 
L 1581 4331 
L 1581 331 
z
" transform="scale(0.015625)"/>
       <path id="DejaVuSerif-47" d="M 4097 3272 
Q 3988 3856 3641 4136 
Q 3294 4416 2675 4416 
Q 1869 4416 1472 3897 
Q 1075 3378 1075 2328 
Q 1075 1300 1484 772 
Q 1894 244 2688 244 
Q 3041 244 3362 331 
Q 3684 419 3975 594 
L 3975 1797 
L 3097 1797 
L 3097 2131 
L 4609 2131 
L 4609 391 
Q 4194 150 3714 29 
Q 3234 -91 2688 -91 
Q 1631 -91 995 570 
Q 359 1231 359 2328 
Q 359 3434 996 4092 
Q 1634 4750 2713 4750 
Q 3113 4750 3539 4658 
Q 3966 4566 4447 4378 
L 4447 3272 
L 4097 3272 
z
" transform="scale(0.015625)"/>
       <path id="DejaVuSerif-76" d="M 1581 0 
L 359 2988 
L -19 2988 
L -19 3322 
L 1509 3322 
L 1509 2988 
L 978 2988 
L 1913 703 
L 2847 2988 
L 2350 2988 
L 2350 3322 
L 3597 3322 
L 3597 2988 
L 3225 2988 
L 2003 0 
L 1581 0 
z
" transform="scale(0.015625)"/>
       <path id="DejaVuSerif-29" d="M 453 -997 
L 453 -691 
Q 934 -359 1145 242 
Q 1356 844 1356 1931 
Q 1356 3022 1145 3623 
Q 934 4225 453 4556 
L 453 4863 
Q 1216 4522 1603 3783 
Q 1991 3044 1991 1931 
Q 1991 822 1603 83 
Q 1216 -656 453 -997 
z
" transform="scale(0.015625)"/>
      </defs>
      <use xlink:href="#DejaVuSerif-54"/>
      <use xlink:href="#DejaVuSerif-31" x="66.699219"/>
      <use xlink:href="#DejaVuSerif-20" x="130.322266"/>
      <use xlink:href="#DejaVuSerif-28" x="162.109375"/>
      <use xlink:href="#DejaVuSerif-49" x="201.123047"/>
      <use xlink:href="#DejaVuSerif-6e" x="240.625"/>
      <use xlink:href="#DejaVuSerif-64" x="305.029297"/>
      <use xlink:href="#DejaVuSerif-2e" x="369.042969"/>
      <use xlink:href="#DejaVuSerif-47" x="400.830078"/>
      <use xlink:href="#DejaVuSerif-72" x="480.712891"/>
      <use xlink:href="#DejaVuSerif-61" x="528.515625"/>
      <use xlink:href="#DejaVuSerif-76" x="588.134766"/>
      <use xlink:href="#DejaVuSerif-29" x="644.628906"/>
      <use xlink:href="#DejaVuSerif-20" x="683.642578"/>
      <use xlink:href="#DejaVuSerif-54" x="715.429688"/>
      <use xlink:href="#DejaVuSerif-72" x="782.128906"/>
      <use xlink:href="#DejaVuSerif-61" x="829.931641"/>
      <use xlink:href="#DejaVuSerif-69" x="889.550781"/>
      <use xlink:href="#DejaVuSerif-6e" x="921.533203"/>
     </g>
    </g>
    <g id="line2d_65">
     <path d="M 378.254853 20.265938 
L 384.254853 20.265938 
L 390.254853 20.265938 
" style="fill: none; stroke-dasharray: 4.44,1.92; stroke-dashoffset: 0; stroke: #1f77b4; stroke-width: 1.2"/>
    </g>
    <g id="text_36">
     <!-- T1 (Ind.Grav) Val -->
     <g transform="translate(395.054853 22.365938) scale(0.06 -0.06)">
      <use xlink:href="#DejaVuSerif-54"/>
      <use xlink:href="#DejaVuSerif-31" x="66.699219"/>
      <use xlink:href="#DejaVuSerif-20" x="130.322266"/>
      <use xlink:href="#DejaVuSerif-28" x="162.109375"/>
      <use xlink:href="#DejaVuSerif-49" x="201.123047"/>
      <use xlink:href="#DejaVuSerif-6e" x="240.625"/>
      <use xlink:href="#DejaVuSerif-64" x="305.029297"/>
      <use xlink:href="#DejaVuSerif-2e" x="369.042969"/>
      <use xlink:href="#DejaVuSerif-47" x="400.830078"/>
      <use xlink:href="#DejaVuSerif-72" x="480.712891"/>
      <use xlink:href="#DejaVuSerif-61" x="528.515625"/>
      <use xlink:href="#DejaVuSerif-76" x="588.134766"/>
      <use xlink:href="#DejaVuSerif-29" x="644.628906"/>
      <use xlink:href="#DejaVuSerif-20" x="683.642578"/>
      <use xlink:href="#DejaVuSerif-56" x="715.429688"/>
      <use xlink:href="#DejaVuSerif-61" x="778.521484"/>
      <use xlink:href="#DejaVuSerif-6c" x="838.140625"/>
     </g>
    </g>
    <g id="line2d_66">
     <path d="M 378.254853 29.072813 
L 384.254853 29.072813 
L 390.254853 29.072813 
" style="fill: none; stroke: #ff7f0e; stroke-opacity: 0.6; stroke-width: 0.8; stroke-linecap: square"/>
    </g>
    <g id="text_37">
     <!-- T2 (Ind.Mag) Train -->
     <g transform="translate(395.054853 31.172813) scale(0.06 -0.06)">
      <use xlink:href="#DejaVuSerif-54"/>
      <use xlink:href="#DejaVuSerif-32" x="66.699219"/>
      <use xlink:href="#DejaVuSerif-20" x="130.322266"/>
      <use xlink:href="#DejaVuSerif-28" x="162.109375"/>
      <use xlink:href="#DejaVuSerif-49" x="201.123047"/>
      <use xlink:href="#DejaVuSerif-6e" x="240.625"/>
      <use xlink:href="#DejaVuSerif-64" x="305.029297"/>
      <use xlink:href="#DejaVuSerif-2e" x="369.042969"/>
      <use xlink:href="#DejaVuSerif-4d" x="400.830078"/>
      <use xlink:href="#DejaVuSerif-61" x="503.222656"/>
      <use xlink:href="#DejaVuSerif-67" x="562.841797"/>
      <use xlink:href="#DejaVuSerif-29" x="626.855469"/>
      <use xlink:href="#DejaVuSerif-20" x="665.869141"/>
      <use xlink:href="#DejaVuSerif-54" x="697.65625"/>
      <use xlink:href="#DejaVuSerif-72" x="764.355469"/>
      <use xlink:href="#DejaVuSerif-61" x="812.158203"/>
      <use xlink:href="#DejaVuSerif-69" x="871.777344"/>
      <use xlink:href="#DejaVuSerif-6e" x="903.759766"/>
     </g>
    </g>
    <g id="line2d_67">
     <path d="M 378.254853 37.965 
L 384.254853 37.965 
L 390.254853 37.965 
" style="fill: none; stroke-dasharray: 4.44,1.92; stroke-dashoffset: 0; stroke: #ff7f0e; stroke-width: 1.2"/>
    </g>
    <g id="text_38">
     <!-- T2 (Ind.Mag) Val -->
     <g transform="translate(395.054853 40.065) scale(0.06 -0.06)">
      <use xlink:href="#DejaVuSerif-54"/>
      <use xlink:href="#DejaVuSerif-32" x="66.699219"/>
      <use xlink:href="#DejaVuSerif-20" x="130.322266"/>
      <use xlink:href="#DejaVuSerif-28" x="162.109375"/>
      <use xlink:href="#DejaVuSerif-49" x="201.123047"/>
      <use xlink:href="#DejaVuSerif-6e" x="240.625"/>
      <use xlink:href="#DejaVuSerif-64" x="305.029297"/>
      <use xlink:href="#DejaVuSerif-2e" x="369.042969"/>
      <use xlink:href="#DejaVuSerif-4d" x="400.830078"/>
      <use xlink:href="#DejaVuSerif-61" x="503.222656"/>
      <use xlink:href="#DejaVuSerif-67" x="562.841797"/>
      <use xlink:href="#DejaVuSerif-29" x="626.855469"/>
      <use xlink:href="#DejaVuSerif-20" x="665.869141"/>
      <use xlink:href="#DejaVuSerif-56" x="697.65625"/>
      <use xlink:href="#DejaVuSerif-61" x="760.748047"/>
      <use xlink:href="#DejaVuSerif-6c" x="820.367188"/>
     </g>
    </g>
    <g id="line2d_68">
     <path d="M 466.21204 11.459063 
L 472.21204 11.459063 
L 478.21204 11.459063 
" style="fill: none; stroke: #d62728; stroke-opacity: 0.6; stroke-width: 0.8; stroke-linecap: square"/>
    </g>
    <g id="text_39">
     <!-- T4 (JointGrav) Train -->
     <g transform="translate(483.01204 13.559063) scale(0.06 -0.06)">
      <defs>
       <path id="DejaVuSerif-4a" d="M -538 -1119 
L -538 -384 
L -181 -384 
Q -172 -694 -34 -845 
Q 103 -997 378 -997 
Q 750 -997 897 -762 
Q 1044 -528 1044 153 
L 1044 4331 
L 319 4331 
L 319 4666 
L 2272 4666 
L 2272 4331 
L 1678 4331 
L 1678 128 
Q 1678 -644 1368 -987 
Q 1059 -1331 372 -1331 
Q 150 -1331 -79 -1278 
Q -309 -1225 -538 -1119 
z
" transform="scale(0.015625)"/>
      </defs>
      <use xlink:href="#DejaVuSerif-54"/>
      <use xlink:href="#DejaVuSerif-34" x="66.699219"/>
      <use xlink:href="#DejaVuSerif-20" x="130.322266"/>
      <use xlink:href="#DejaVuSerif-28" x="162.109375"/>
      <use xlink:href="#DejaVuSerif-4a" x="201.123047"/>
      <use xlink:href="#DejaVuSerif-6f" x="241.210938"/>
      <use xlink:href="#DejaVuSerif-69" x="301.416016"/>
      <use xlink:href="#DejaVuSerif-6e" x="333.398438"/>
      <use xlink:href="#DejaVuSerif-74" x="397.802734"/>
      <use xlink:href="#DejaVuSerif-47" x="437.988281"/>
      <use xlink:href="#DejaVuSerif-72" x="517.871094"/>
      <use xlink:href="#DejaVuSerif-61" x="565.673828"/>
      <use xlink:href="#DejaVuSerif-76" x="625.292969"/>
      <use xlink:href="#DejaVuSerif-29" x="681.787109"/>
      <use xlink:href="#DejaVuSerif-20" x="720.800781"/>
      <use xlink:href="#DejaVuSerif-54" x="752.587891"/>
      <use xlink:href="#DejaVuSerif-72" x="819.287109"/>
      <use xlink:href="#DejaVuSerif-61" x="867.089844"/>
      <use xlink:href="#DejaVuSerif-69" x="926.708984"/>
      <use xlink:href="#DejaVuSerif-6e" x="958.691406"/>
     </g>
    </g>
    <g id="line2d_69">
     <path d="M 466.21204 20.265938 
L 472.21204 20.265938 
L 478.21204 20.265938 
" style="fill: none; stroke-dasharray: 4.44,1.92; stroke-dashoffset: 0; stroke: #d62728; stroke-width: 1.2"/>
    </g>
    <g id="text_40">
     <!-- T4 (JointGrav) Val -->
     <g transform="translate(483.01204 22.365938) scale(0.06 -0.06)">
      <use xlink:href="#DejaVuSerif-54"/>
      <use xlink:href="#DejaVuSerif-34" x="66.699219"/>
      <use xlink:href="#DejaVuSerif-20" x="130.322266"/>
      <use xlink:href="#DejaVuSerif-28" x="162.109375"/>
      <use xlink:href="#DejaVuSerif-4a" x="201.123047"/>
      <use xlink:href="#DejaVuSerif-6f" x="241.210938"/>
      <use xlink:href="#DejaVuSerif-69" x="301.416016"/>
      <use xlink:href="#DejaVuSerif-6e" x="333.398438"/>
      <use xlink:href="#DejaVuSerif-74" x="397.802734"/>
      <use xlink:href="#DejaVuSerif-47" x="437.988281"/>
      <use xlink:href="#DejaVuSerif-72" x="517.871094"/>
      <use xlink:href="#DejaVuSerif-61" x="565.673828"/>
      <use xlink:href="#DejaVuSerif-76" x="625.292969"/>
      <use xlink:href="#DejaVuSerif-29" x="681.787109"/>
      <use xlink:href="#DejaVuSerif-20" x="720.800781"/>
      <use xlink:href="#DejaVuSerif-56" x="752.587891"/>
      <use xlink:href="#DejaVuSerif-61" x="815.679688"/>
      <use xlink:href="#DejaVuSerif-6c" x="875.298828"/>
     </g>
    </g>
    <g id="line2d_70">
     <path d="M 466.21204 29.072813 
L 472.21204 29.072813 
L 478.21204 29.072813 
" style="fill: none; stroke: #9467bd; stroke-opacity: 0.6; stroke-width: 0.8; stroke-linecap: square"/>
    </g>
    <g id="text_41">
     <!-- T5 (JointMag) Train -->
     <g transform="translate(483.01204 31.172813) scale(0.06 -0.06)">
      <use xlink:href="#DejaVuSerif-54"/>
      <use xlink:href="#DejaVuSerif-35" x="66.699219"/>
      <use xlink:href="#DejaVuSerif-20" x="130.322266"/>
      <use xlink:href="#DejaVuSerif-28" x="162.109375"/>
      <use xlink:href="#DejaVuSerif-4a" x="201.123047"/>
      <use xlink:href="#DejaVuSerif-6f" x="241.210938"/>
      <use xlink:href="#DejaVuSerif-69" x="301.416016"/>
      <use xlink:href="#DejaVuSerif-6e" x="333.398438"/>
      <use xlink:href="#DejaVuSerif-74" x="397.802734"/>
      <use xlink:href="#DejaVuSerif-4d" x="437.988281"/>
      <use xlink:href="#DejaVuSerif-61" x="540.380859"/>
      <use xlink:href="#DejaVuSerif-67" x="600"/>
      <use xlink:href="#DejaVuSerif-29" x="664.013672"/>
      <use xlink:href="#DejaVuSerif-20" x="703.027344"/>
      <use xlink:href="#DejaVuSerif-54" x="734.814453"/>
      <use xlink:href="#DejaVuSerif-72" x="801.513672"/>
      <use xlink:href="#DejaVuSerif-61" x="849.316406"/>
      <use xlink:href="#DejaVuSerif-69" x="908.935547"/>
      <use xlink:href="#DejaVuSerif-6e" x="940.917969"/>
     </g>
    </g>
    <g id="line2d_71">
     <path d="M 466.21204 37.965 
L 472.21204 37.965 
L 478.21204 37.965 
" style="fill: none; stroke-dasharray: 4.44,1.92; stroke-dashoffset: 0; stroke: #9467bd; stroke-width: 1.2"/>
    </g>
    <g id="text_42">
     <!-- T5 (JointMag) Val -->
     <g transform="translate(483.01204 40.065) scale(0.06 -0.06)">
      <use xlink:href="#DejaVuSerif-54"/>
      <use xlink:href="#DejaVuSerif-35" x="66.699219"/>
      <use xlink:href="#DejaVuSerif-20" x="130.322266"/>
      <use xlink:href="#DejaVuSerif-28" x="162.109375"/>
      <use xlink:href="#DejaVuSerif-4a" x="201.123047"/>
      <use xlink:href="#DejaVuSerif-6f" x="241.210938"/>
      <use xlink:href="#DejaVuSerif-69" x="301.416016"/>
      <use xlink:href="#DejaVuSerif-6e" x="333.398438"/>
      <use xlink:href="#DejaVuSerif-74" x="397.802734"/>
      <use xlink:href="#DejaVuSerif-4d" x="437.988281"/>
      <use xlink:href="#DejaVuSerif-61" x="540.380859"/>
      <use xlink:href="#DejaVuSerif-67" x="600"/>
      <use xlink:href="#DejaVuSerif-29" x="664.013672"/>
      <use xlink:href="#DejaVuSerif-20" x="703.027344"/>
      <use xlink:href="#DejaVuSerif-56" x="734.814453"/>
      <use xlink:href="#DejaVuSerif-61" x="797.90625"/>
      <use xlink:href="#DejaVuSerif-6c" x="857.525391"/>
     </g>
    </g>
   </g>
  </g>
  <g id="axes_3">
   <g id="patch_8">
    <path d="M 595.752482 225.36 
L 825.517188 225.36 
L 825.517188 3.6 
L 595.752482 3.6 
z
" style="fill: #ffffff"/>
   </g>
   <g id="matplotlib.axis_5">
    <g id="xtick_17">
     <g id="line2d_72">
      <path d="M 600.052891 225.36 
L 600.052891 3.6 
" clip-path="url(#p49ead9c807)" style="fill: none; stroke: #b0b0b0; stroke-width: 0.8; stroke-linecap: square"/>
     </g>
     <g id="line2d_73">
      <g>
       <use xlink:href="#mc687974875" x="600.052891" y="225.36" style="stroke: #000000; stroke-width: 0.8"/>
      </g>
     </g>
     <g id="text_43">
      <!-- 0 -->
      <g transform="translate(597.189766 239.198594) scale(0.09 -0.09)">
       <use xlink:href="#DejaVuSerif-30"/>
      </g>
     </g>
    </g>
    <g id="xtick_18">
     <g id="line2d_74">
      <path d="M 630.770097 225.36 
L 630.770097 3.6 
" clip-path="url(#p49ead9c807)" style="fill: none; stroke: #b0b0b0; stroke-width: 0.8; stroke-linecap: square"/>
     </g>
     <g id="line2d_75">
      <g>
       <use xlink:href="#mc687974875" x="630.770097" y="225.36" style="stroke: #000000; stroke-width: 0.8"/>
      </g>
     </g>
     <g id="text_44">
      <!-- 5 -->
      <g transform="translate(627.906972 239.198594) scale(0.09 -0.09)">
       <use xlink:href="#DejaVuSerif-35"/>
      </g>
     </g>
    </g>
    <g id="xtick_19">
     <g id="line2d_76">
      <path d="M 661.487304 225.36 
L 661.487304 3.6 
" clip-path="url(#p49ead9c807)" style="fill: none; stroke: #b0b0b0; stroke-width: 0.8; stroke-linecap: square"/>
     </g>
     <g id="line2d_77">
      <g>
       <use xlink:href="#mc687974875" x="661.487304" y="225.36" style="stroke: #000000; stroke-width: 0.8"/>
      </g>
     </g>
     <g id="text_45">
      <!-- 10 -->
      <g transform="translate(655.761054 239.198594) scale(0.09 -0.09)">
       <use xlink:href="#DejaVuSerif-31"/>
       <use xlink:href="#DejaVuSerif-30" x="63.623047"/>
      </g>
     </g>
    </g>
    <g id="xtick_20">
     <g id="line2d_78">
      <path d="M 692.204511 225.36 
L 692.204511 3.6 
" clip-path="url(#p49ead9c807)" style="fill: none; stroke: #b0b0b0; stroke-width: 0.8; stroke-linecap: square"/>
     </g>
     <g id="line2d_79">
      <g>
       <use xlink:href="#mc687974875" x="692.204511" y="225.36" style="stroke: #000000; stroke-width: 0.8"/>
      </g>
     </g>
     <g id="text_46">
      <!-- 15 -->
      <g transform="translate(686.478261 239.198594) scale(0.09 -0.09)">
       <use xlink:href="#DejaVuSerif-31"/>
       <use xlink:href="#DejaVuSerif-35" x="63.623047"/>
      </g>
     </g>
    </g>
    <g id="xtick_21">
     <g id="line2d_80">
      <path d="M 722.921717 225.36 
L 722.921717 3.6 
" clip-path="url(#p49ead9c807)" style="fill: none; stroke: #b0b0b0; stroke-width: 0.8; stroke-linecap: square"/>
     </g>
     <g id="line2d_81">
      <g>
       <use xlink:href="#mc687974875" x="722.921717" y="225.36" style="stroke: #000000; stroke-width: 0.8"/>
      </g>
     </g>
     <g id="text_47">
      <!-- 20 -->
      <g transform="translate(717.195467 239.198594) scale(0.09 -0.09)">
       <use xlink:href="#DejaVuSerif-32"/>
       <use xlink:href="#DejaVuSerif-30" x="63.623047"/>
      </g>
     </g>
    </g>
    <g id="xtick_22">
     <g id="line2d_82">
      <path d="M 753.638924 225.36 
L 753.638924 3.6 
" clip-path="url(#p49ead9c807)" style="fill: none; stroke: #b0b0b0; stroke-width: 0.8; stroke-linecap: square"/>
     </g>
     <g id="line2d_83">
      <g>
       <use xlink:href="#mc687974875" x="753.638924" y="225.36" style="stroke: #000000; stroke-width: 0.8"/>
      </g>
     </g>
     <g id="text_48">
      <!-- 25 -->
      <g transform="translate(747.912674 239.198594) scale(0.09 -0.09)">
       <use xlink:href="#DejaVuSerif-32"/>
       <use xlink:href="#DejaVuSerif-35" x="63.623047"/>
      </g>
     </g>
    </g>
    <g id="xtick_23">
     <g id="line2d_84">
      <path d="M 784.356131 225.36 
L 784.356131 3.6 
" clip-path="url(#p49ead9c807)" style="fill: none; stroke: #b0b0b0; stroke-width: 0.8; stroke-linecap: square"/>
     </g>
     <g id="line2d_85">
      <g>
       <use xlink:href="#mc687974875" x="784.356131" y="225.36" style="stroke: #000000; stroke-width: 0.8"/>
      </g>
     </g>
     <g id="text_49">
      <!-- 30 -->
      <g transform="translate(778.629881 239.198594) scale(0.09 -0.09)">
       <use xlink:href="#DejaVuSerif-33"/>
       <use xlink:href="#DejaVuSerif-30" x="63.623047"/>
      </g>
     </g>
    </g>
    <g id="xtick_24">
     <g id="line2d_86">
      <path d="M 815.073337 225.36 
L 815.073337 3.6 
" clip-path="url(#p49ead9c807)" style="fill: none; stroke: #b0b0b0; stroke-width: 0.8; stroke-linecap: square"/>
     </g>
     <g id="line2d_87">
      <g>
       <use xlink:href="#mc687974875" x="815.073337" y="225.36" style="stroke: #000000; stroke-width: 0.8"/>
      </g>
     </g>
     <g id="text_50">
      <!-- 35 -->
      <g transform="translate(809.347087 239.198594) scale(0.09 -0.09)">
       <use xlink:href="#DejaVuSerif-33"/>
       <use xlink:href="#DejaVuSerif-35" x="63.623047"/>
      </g>
     </g>
    </g>
    <g id="text_51">
     <!-- Epoch -->
     <g transform="translate(694.753585 252.66875) scale(0.1 -0.1)">
      <use xlink:href="#DejaVuSerif-45"/>
      <use xlink:href="#DejaVuSerif-70" x="72.998047"/>
      <use xlink:href="#DejaVuSerif-6f" x="137.011719"/>
      <use xlink:href="#DejaVuSerif-63" x="197.216797"/>
      <use xlink:href="#DejaVuSerif-68" x="253.222656"/>
     </g>
    </g>
   </g>
   <g id="matplotlib.axis_6">
    <g id="ytick_13">
     <g id="line2d_88">
      <path d="M 595.752482 208.974875 
L 825.517188 208.974875 
" clip-path="url(#p49ead9c807)" style="fill: none; stroke: #b0b0b0; stroke-width: 0.8; stroke-linecap: square"/>
     </g>
     <g id="line2d_89">
      <g>
       <use xlink:href="#m78749df8fa" x="595.752482" y="208.974875" style="stroke: #000000; stroke-width: 0.8"/>
      </g>
     </g>
     <g id="text_52">
      <!-- 0.070 -->
      <g transform="translate(562.987169 212.394172) scale(0.09 -0.09)">
       <defs>
        <path id="DejaVuSerif-37" d="M 3609 4347 
L 1784 0 
L 1319 0 
L 3059 4153 
L 903 4153 
L 903 3578 
L 538 3578 
L 538 4666 
L 3609 4666 
L 3609 4347 
z
" transform="scale(0.015625)"/>
       </defs>
       <use xlink:href="#DejaVuSerif-30"/>
       <use xlink:href="#DejaVuSerif-2e" x="63.623047"/>
       <use xlink:href="#DejaVuSerif-30" x="95.410156"/>
       <use xlink:href="#DejaVuSerif-37" x="159.033203"/>
       <use xlink:href="#DejaVuSerif-30" x="222.65625"/>
      </g>
     </g>
    </g>
    <g id="ytick_14">
     <g id="line2d_90">
      <path d="M 595.752482 183.769676 
L 825.517188 183.769676 
" clip-path="url(#p49ead9c807)" style="fill: none; stroke: #b0b0b0; stroke-width: 0.8; stroke-linecap: square"/>
     </g>
     <g id="line2d_91">
      <g>
       <use xlink:href="#m78749df8fa" x="595.752482" y="183.769676" style="stroke: #000000; stroke-width: 0.8"/>
      </g>
     </g>
     <g id="text_53">
      <!-- 0.075 -->
      <g transform="translate(562.987169 187.188973) scale(0.09 -0.09)">
       <use xlink:href="#DejaVuSerif-30"/>
       <use xlink:href="#DejaVuSerif-2e" x="63.623047"/>
       <use xlink:href="#DejaVuSerif-30" x="95.410156"/>
       <use xlink:href="#DejaVuSerif-37" x="159.033203"/>
       <use xlink:href="#DejaVuSerif-35" x="222.65625"/>
      </g>
     </g>
    </g>
    <g id="ytick_15">
     <g id="line2d_92">
      <path d="M 595.752482 158.564477 
L 825.517188 158.564477 
" clip-path="url(#p49ead9c807)" style="fill: none; stroke: #b0b0b0; stroke-width: 0.8; stroke-linecap: square"/>
     </g>
     <g id="line2d_93">
      <g>
       <use xlink:href="#m78749df8fa" x="595.752482" y="158.564477" style="stroke: #000000; stroke-width: 0.8"/>
      </g>
     </g>
     <g id="text_54">
      <!-- 0.080 -->
      <g transform="translate(562.987169 161.983774) scale(0.09 -0.09)">
       <use xlink:href="#DejaVuSerif-30"/>
       <use xlink:href="#DejaVuSerif-2e" x="63.623047"/>
       <use xlink:href="#DejaVuSerif-30" x="95.410156"/>
       <use xlink:href="#DejaVuSerif-38" x="159.033203"/>
       <use xlink:href="#DejaVuSerif-30" x="222.65625"/>
      </g>
     </g>
    </g>
    <g id="ytick_16">
     <g id="line2d_94">
      <path d="M 595.752482 133.359278 
L 825.517188 133.359278 
" clip-path="url(#p49ead9c807)" style="fill: none; stroke: #b0b0b0; stroke-width: 0.8; stroke-linecap: square"/>
     </g>
     <g id="line2d_95">
      <g>
       <use xlink:href="#m78749df8fa" x="595.752482" y="133.359278" style="stroke: #000000; stroke-width: 0.8"/>
      </g>
     </g>
     <g id="text_55">
      <!-- 0.085 -->
      <g transform="translate(562.987169 136.778575) scale(0.09 -0.09)">
       <use xlink:href="#DejaVuSerif-30"/>
       <use xlink:href="#DejaVuSerif-2e" x="63.623047"/>
       <use xlink:href="#DejaVuSerif-30" x="95.410156"/>
       <use xlink:href="#DejaVuSerif-38" x="159.033203"/>
       <use xlink:href="#DejaVuSerif-35" x="222.65625"/>
      </g>
     </g>
    </g>
    <g id="ytick_17">
     <g id="line2d_96">
      <path d="M 595.752482 108.154079 
L 825.517188 108.154079 
" clip-path="url(#p49ead9c807)" style="fill: none; stroke: #b0b0b0; stroke-width: 0.8; stroke-linecap: square"/>
     </g>
     <g id="line2d_97">
      <g>
       <use xlink:href="#m78749df8fa" x="595.752482" y="108.154079" style="stroke: #000000; stroke-width: 0.8"/>
      </g>
     </g>
     <g id="text_56">
      <!-- 0.090 -->
      <g transform="translate(562.987169 111.573376) scale(0.09 -0.09)">
       <use xlink:href="#DejaVuSerif-30"/>
       <use xlink:href="#DejaVuSerif-2e" x="63.623047"/>
       <use xlink:href="#DejaVuSerif-30" x="95.410156"/>
       <use xlink:href="#DejaVuSerif-39" x="159.033203"/>
       <use xlink:href="#DejaVuSerif-30" x="222.65625"/>
      </g>
     </g>
    </g>
    <g id="ytick_18">
     <g id="line2d_98">
      <path d="M 595.752482 82.94888 
L 825.517188 82.94888 
" clip-path="url(#p49ead9c807)" style="fill: none; stroke: #b0b0b0; stroke-width: 0.8; stroke-linecap: square"/>
     </g>
     <g id="line2d_99">
      <g>
       <use xlink:href="#m78749df8fa" x="595.752482" y="82.94888" style="stroke: #000000; stroke-width: 0.8"/>
      </g>
     </g>
     <g id="text_57">
      <!-- 0.095 -->
      <g transform="translate(562.987169 86.368177) scale(0.09 -0.09)">
       <use xlink:href="#DejaVuSerif-30"/>
       <use xlink:href="#DejaVuSerif-2e" x="63.623047"/>
       <use xlink:href="#DejaVuSerif-30" x="95.410156"/>
       <use xlink:href="#DejaVuSerif-39" x="159.033203"/>
       <use xlink:href="#DejaVuSerif-35" x="222.65625"/>
      </g>
     </g>
    </g>
    <g id="ytick_19">
     <g id="line2d_100">
      <path d="M 595.752482 57.743681 
L 825.517188 57.743681 
" clip-path="url(#p49ead9c807)" style="fill: none; stroke: #b0b0b0; stroke-width: 0.8; stroke-linecap: square"/>
     </g>
     <g id="line2d_101">
      <g>
       <use xlink:href="#m78749df8fa" x="595.752482" y="57.743681" style="stroke: #000000; stroke-width: 0.8"/>
      </g>
     </g>
     <g id="text_58">
      <!-- 0.100 -->
      <g transform="translate(562.987169 61.162978) scale(0.09 -0.09)">
       <use xlink:href="#DejaVuSerif-30"/>
       <use xlink:href="#DejaVuSerif-2e" x="63.623047"/>
       <use xlink:href="#DejaVuSerif-31" x="95.410156"/>
       <use xlink:href="#DejaVuSerif-30" x="159.033203"/>
       <use xlink:href="#DejaVuSerif-30" x="222.65625"/>
      </g>
     </g>
    </g>
    <g id="ytick_20">
     <g id="line2d_102">
      <path d="M 595.752482 32.538482 
L 825.517188 32.538482 
" clip-path="url(#p49ead9c807)" style="fill: none; stroke: #b0b0b0; stroke-width: 0.8; stroke-linecap: square"/>
     </g>
     <g id="line2d_103">
      <g>
       <use xlink:href="#m78749df8fa" x="595.752482" y="32.538482" style="stroke: #000000; stroke-width: 0.8"/>
      </g>
     </g>
     <g id="text_59">
      <!-- 0.105 -->
      <g transform="translate(562.987169 35.957779) scale(0.09 -0.09)">
       <use xlink:href="#DejaVuSerif-30"/>
       <use xlink:href="#DejaVuSerif-2e" x="63.623047"/>
       <use xlink:href="#DejaVuSerif-31" x="95.410156"/>
       <use xlink:href="#DejaVuSerif-30" x="159.033203"/>
       <use xlink:href="#DejaVuSerif-35" x="222.65625"/>
      </g>
     </g>
    </g>
    <g id="ytick_21">
     <g id="line2d_104">
      <path d="M 595.752482 7.333283 
L 825.517188 7.333283 
" clip-path="url(#p49ead9c807)" style="fill: none; stroke: #b0b0b0; stroke-width: 0.8; stroke-linecap: square"/>
     </g>
     <g id="line2d_105">
      <g>
       <use xlink:href="#m78749df8fa" x="595.752482" y="7.333283" style="stroke: #000000; stroke-width: 0.8"/>
      </g>
     </g>
     <g id="text_60">
      <!-- 0.110 -->
      <g transform="translate(562.987169 10.75258) scale(0.09 -0.09)">
       <use xlink:href="#DejaVuSerif-30"/>
       <use xlink:href="#DejaVuSerif-2e" x="63.623047"/>
       <use xlink:href="#DejaVuSerif-31" x="95.410156"/>
       <use xlink:href="#DejaVuSerif-31" x="159.033203"/>
       <use xlink:href="#DejaVuSerif-30" x="222.65625"/>
      </g>
     </g>
    </g>
    <g id="text_61">
     <!-- BCE Loss -->
     <g transform="translate(556.907482 138.774531) rotate(-90) scale(0.1 -0.1)">
      <defs>
       <path id="DejaVuSerif-42" d="M 1581 331 
L 2516 331 
Q 3078 331 3337 575 
Q 3597 819 3597 1350 
Q 3597 1878 3339 2120 
Q 3081 2363 2516 2363 
L 1581 2363 
L 1581 331 
z
M 1581 2694 
L 2375 2694 
Q 2888 2694 3123 2891 
Q 3359 3088 3359 3513 
Q 3359 3941 3123 4136 
Q 2888 4331 2375 4331 
L 1581 4331 
L 1581 2694 
z
M 353 0 
L 353 331 
L 947 331 
L 947 4331 
L 353 4331 
L 353 4666 
L 2656 4666 
Q 3363 4666 3720 4377 
Q 4078 4088 4078 3513 
Q 4078 3097 3829 2850 
Q 3581 2603 3103 2547 
Q 3697 2472 4005 2167 
Q 4313 1863 4313 1350 
Q 4313 656 3875 328 
Q 3438 0 2509 0 
L 353 0 
z
" transform="scale(0.015625)"/>
       <path id="DejaVuSerif-43" d="M 4513 1234 
Q 4306 581 3820 245 
Q 3334 -91 2591 -91 
Q 2134 -91 1743 65 
Q 1353 222 1050 525 
Q 700 875 529 1320 
Q 359 1766 359 2328 
Q 359 3416 987 4083 
Q 1616 4750 2644 4750 
Q 3025 4750 3456 4650 
Q 3888 4550 4384 4347 
L 4384 3272 
L 4031 3272 
Q 3916 3859 3567 4137 
Q 3219 4416 2591 4416 
Q 1844 4416 1459 3886 
Q 1075 3356 1075 2328 
Q 1075 1303 1459 773 
Q 1844 244 2591 244 
Q 3113 244 3450 492 
Q 3788 741 3938 1234 
L 4513 1234 
z
" transform="scale(0.015625)"/>
      </defs>
      <use xlink:href="#DejaVuSerif-42"/>
      <use xlink:href="#DejaVuSerif-43" x="75.361328"/>
      <use xlink:href="#DejaVuSerif-45" x="151.875"/>
      <use xlink:href="#DejaVuSerif-20" x="224.873047"/>
      <use xlink:href="#DejaVuSerif-4c" x="256.660156"/>
      <use xlink:href="#DejaVuSerif-6f" x="323.066406"/>
      <use xlink:href="#DejaVuSerif-73" x="383.271484"/>
      <use xlink:href="#DejaVuSerif-73" x="434.589844"/>
     </g>
    </g>
   </g>
   <g id="line2d_106">
    <path d="M 606.196332 13.68 
L 612.339773 140.066389 
L 618.483215 161.042796 
L 624.626656 171.433272 
L 630.770097 178.165286 
L 636.913539 184.565637 
L 643.05698 188.943965 
L 649.200421 192.656605 
L 655.343863 195.233226 
L 661.487304 196.578218 
L 667.630745 198.362423 
L 673.774187 199.316928 
L 679.917628 200.009556 
L 686.061069 200.482208 
L 692.204511 201.724302 
L 698.347952 202.32419 
L 704.491393 202.897547 
L 710.634835 203.666601 
L 716.778276 204.16724 
L 722.921717 203.647233 
L 729.065159 205.186914 
L 735.2086 205.132325 
L 741.352041 205.812665 
L 747.495483 206.176409 
L 753.638924 207.098248 
L 759.782365 207.390464 
L 765.925807 207.728252 
L 772.069248 208.144399 
L 778.212689 208.09542 
L 784.356131 208.613713 
L 790.499572 208.890023 
L 796.643013 209.443651 
L 802.786455 209.592764 
L 808.929896 210.376637 
L 815.073337 209.71378 
" clip-path="url(#p49ead9c807)" style="fill: none; stroke: #0000ff; stroke-width: 1.2; stroke-linecap: square"/>
   </g>
   <g id="line2d_107">
    <path d="M 606.196332 117.945507 
L 612.339773 155.472057 
L 618.483215 171.684642 
L 624.626656 160.576941 
L 630.770097 178.309967 
L 636.913539 190.163172 
L 643.05698 178.495927 
L 649.200421 165.060734 
L 655.343863 193.154167 
L 661.487304 162.053044 
L 667.630745 194.58341 
L 673.774187 155.222482 
L 679.917628 200.057431 
L 686.061069 211.047504 
L 692.204511 200.199757 
L 698.347952 211.781437 
L 704.491393 154.949318 
L 710.634835 205.697225 
L 716.778276 186.410221 
L 722.921717 215.28 
L 729.065159 181.478102 
L 735.2086 203.772664 
L 741.352041 191.550783 
L 747.495483 184.038493 
L 753.638924 203.872979 
L 759.782365 201.142767 
L 765.925807 204.528389 
L 772.069248 207.915772 
L 778.212689 208.41647 
L 784.356131 185.706013 
L 790.499572 197.184851 
L 796.643013 209.351401 
L 802.786455 209.203748 
L 808.929896 202.022551 
L 815.073337 185.31384 
" clip-path="url(#p49ead9c807)" style="fill: none; stroke-dasharray: 5.55,2.4; stroke-dashoffset: 0; stroke: #ff0000; stroke-width: 1.5"/>
   </g>
   <g id="patch_9">
    <path d="M 595.752482 225.36 
L 595.752482 3.6 
" style="fill: none; stroke: #000000; stroke-width: 0.8; stroke-linejoin: miter; stroke-linecap: square"/>
   </g>
   <g id="patch_10">
    <path d="M 595.752482 225.36 
L 825.517188 225.36 
" style="fill: none; stroke: #000000; stroke-width: 0.8; stroke-linejoin: miter; stroke-linecap: square"/>
   </g>
   <g id="legend_3">
    <g id="line2d_108">
     <path d="M 755.348438 14.07875 
L 763.348438 14.07875 
L 771.348438 14.07875 
" style="fill: none; stroke: #0000ff; stroke-width: 1.2; stroke-linecap: square"/>
    </g>
    <g id="text_62">
     <!-- Training -->
     <g transform="translate(777.748438 16.87875) scale(0.08 -0.08)">
      <use xlink:href="#DejaVuSerif-54"/>
      <use xlink:href="#DejaVuSerif-72" x="66.699219"/>
      <use xlink:href="#DejaVuSerif-61" x="114.501953"/>
      <use xlink:href="#DejaVuSerif-69" x="174.121094"/>
      <use xlink:href="#DejaVuSerif-6e" x="206.103516"/>
      <use xlink:href="#DejaVuSerif-69" x="270.507812"/>
      <use xlink:href="#DejaVuSerif-6e" x="302.490234"/>
      <use xlink:href="#DejaVuSerif-67" x="366.894531"/>
     </g>
    </g>
    <g id="line2d_109">
     <path d="M 755.348438 25.935 
L 763.348438 25.935 
L 771.348438 25.935 
" style="fill: none; stroke-dasharray: 5.55,2.4; stroke-dashoffset: 0; stroke: #ff0000; stroke-width: 1.5"/>
    </g>
    <g id="text_63">
     <!-- Validation -->
     <g transform="translate(777.748438 28.735) scale(0.08 -0.08)">
      <use xlink:href="#DejaVuSerif-56"/>
      <use xlink:href="#DejaVuSerif-61" x="63.091797"/>
      <use xlink:href="#DejaVuSerif-6c" x="122.710938"/>
      <use xlink:href="#DejaVuSerif-69" x="154.693359"/>
      <use xlink:href="#DejaVuSerif-64" x="186.675781"/>
      <use xlink:href="#DejaVuSerif-61" x="250.689453"/>
      <use xlink:href="#DejaVuSerif-74" x="310.308594"/>
      <use xlink:href="#DejaVuSerif-69" x="350.494141"/>
      <use xlink:href="#DejaVuSerif-6f" x="382.476562"/>
      <use xlink:href="#DejaVuSerif-6e" x="442.681641"/>
     </g>
    </g>
   </g>
  </g>
 </g>
 <defs>
  <clipPath id="p0216de4f0f">
   <rect x="44.317188" y="3.6" width="229.764706" height="221.76"/>
  </clipPath>
  <clipPath id="p1d115720bf">
   <rect x="320.034835" y="3.6" width="229.764706" height="221.76"/>
  </clipPath>
  <clipPath id="p49ead9c807">
   <rect x="595.752482" y="3.6" width="229.764706" height="221.76"/>
  </clipPath>
 </defs>
</svg>
