<?xml version="1.0" encoding="utf-8" standalone="no"?>
<!DOCTYPE svg PUBLIC "-//W3C//DTD SVG 1.1//EN"
  "http://www.w3.org/Graphics/SVG/1.1/DTD/svg11.dtd">
<svg xmlns:xlink="http://www.w3.org/1999/xlink" width="720.847059pt" height="477.395875pt" viewBox="0 0 720.847059 477.395875" xmlns="http://www.w3.org/2000/svg" version="1.1">
 <metadata>
  <rdf:RDF xmlns:dc="http://purl.org/dc/elements/1.1/" xmlns:cc="http://creativecommons.org/ns#" xmlns:rdf="http://www.w3.org/1999/02/22-rdf-syntax-ns#">
   <cc:Work>
    <dc:type rdf:resource="http://purl.org/dc/dcmitype/StillImage"/>
    <dc:date>2026-04-22T09:50:00.050428</dc:date>
    <dc:format>image/svg+xml</dc:format>
    <dc:creator>
     <cc:Agent>
      <dc:title>Matplotlib v3.7.5, https://matplotlib.org/</dc:title>
     </cc:Agent>
    </dc:creator>
   </cc:Work>
  </rdf:RDF>
 </metadata>
 <defs>
  <style type="text/css">*{stroke-linejoin: round; stroke-linecap: butt}</style>
 </defs>
 <g id="figure_1">
  <g id="patch_1">
   <path d="M -0 477.395875 
L 720.847059 477.395875 
L 720.847059 0 
L -0 0 
z
" style="fill: #ffffff"/>
  </g>
  <g id="axes_1">
   <g id="patch_2">
    <path d="M 43.92 191.555875 
L 164.88 191.555875 
L 164.88 70.595875 
L 43.92 70.595875 
z
" clip-path="url(#p419dd93fbf)" style="fill: #e74c3c; opacity: 0.7; stroke: #000000; stroke-width: 1.5; stroke-linejoin: miter"/>
   </g>
   <g id="text_1">
    <!-- $\rho$ -->
    <g transform="translate(100.83 134.910562) scale(0.14 -0.14)">
     <defs>
      <path id="STIXGeneral-Italic-3c1" d="M -58 -864 
L 422 966 
Q 640 1811 1081 2316 
Q 1523 2822 2042 2822 
Q 2189 2822 2278 2816 
Q 2368 2810 2525 2765 
Q 2682 2720 2774 2633 
Q 2867 2547 2940 2371 
Q 3014 2195 3014 1946 
Q 3014 1210 2403 570 
Q 1792 -70 1107 -70 
Q 864 -70 672 38 
L 442 -864 
Q 378 -1126 243 -1312 
L -256 -1312 
Q -128 -1114 -58 -864 
z
M 2445 1997 
Q 2445 2291 2333 2489 
Q 2221 2688 2022 2688 
Q 1747 2688 1472 2361 
Q 1197 2035 1056 1530 
Q 762 467 762 288 
Q 762 186 851 118 
Q 941 51 1075 51 
Q 1472 58 1798 390 
Q 2125 723 2285 1161 
Q 2445 1600 2445 1997 
z
" transform="scale(0.015625)"/>
     </defs>
     <use xlink:href="#STIXGeneral-Italic-3c1" transform="translate(0 0.90625)"/>
    </g>
   </g>
   <g id="text_2">
    <!-- Single rectangular body -->
    <g style="fill: #808080" transform="translate(55.46375 214.978375) scale(0.08 -0.08)">
     <defs>
      <path id="DejaVuSerif-Italic-53" d="M 184 225 
L 391 1288 
L 750 1284 
Q 663 753 905 498 
Q 1147 244 1744 244 
Q 2300 244 2636 464 
Q 2972 684 3053 1106 
Q 3119 1444 2976 1625 
Q 2834 1806 2300 1978 
L 1722 2163 
Q 1091 2366 877 2669 
Q 663 2972 766 3500 
Q 881 4094 1367 4422 
Q 1853 4750 2616 4750 
Q 2941 4750 3314 4679 
Q 3688 4609 4097 4475 
L 3906 3481 
L 3553 3481 
Q 3594 3975 3361 4195 
Q 3128 4416 2563 4416 
Q 2069 4416 1772 4214 
Q 1475 4013 1400 3628 
Q 1334 3294 1490 3103 
Q 1647 2913 2241 2725 
L 2784 2553 
Q 3381 2363 3593 2067 
Q 3806 1772 3709 1275 
Q 3578 597 3076 253 
Q 2575 -91 1716 -91 
Q 1331 -91 948 -12 
Q 566 66 184 225 
z
" transform="scale(0.015625)"/>
      <path id="DejaVuSerif-Italic-69" d="M 1009 4353 
Q 1038 4497 1163 4603 
Q 1288 4709 1434 4709 
Q 1578 4709 1663 4603 
Q 1728 4522 1728 4422 
Q 1728 4388 1719 4353 
Q 1691 4206 1567 4103 
Q 1444 4000 1297 4000 
Q 1150 4000 1066 4103 
Q 1003 4181 1003 4281 
Q 1003 4316 1009 4353 
z
M 963 331 
L 1506 331 
L 1444 0 
L 325 0 
L 903 2988 
L 353 2988 
L 419 3322 
L 1544 3322 
L 963 331 
z
" transform="scale(0.015625)"/>
      <path id="DejaVuSerif-Italic-6e" d="M 450 0 
L 1031 2988 
L 481 2988 
L 544 3322 
L 1669 3322 
L 1556 2731 
Q 1781 3069 2068 3241 
Q 2356 3413 2694 3413 
Q 3244 3413 3444 3097 
Q 3563 2906 3563 2588 
Q 3563 2378 3509 2113 
L 3163 331 
L 3675 331 
L 3613 0 
L 2522 0 
L 2897 1931 
Q 2959 2253 2959 2469 
Q 2959 2659 2909 2769 
Q 2803 2994 2425 2994 
Q 2025 2994 1759 2701 
Q 1494 2409 1384 1850 
L 1025 0 
L 450 0 
z
" transform="scale(0.015625)"/>
      <path id="DejaVuSerif-Italic-67" d="M 3822 3322 
L 3188 72 
Q 3044 -672 2581 -1031 
Q 2078 -1422 1381 -1422 
Q 1053 -1422 765 -1362 
Q 478 -1303 225 -1184 
L 363 -488 
L 663 -488 
Q 653 -813 834 -963 
Q 1016 -1113 1406 -1113 
Q 1913 -1113 2203 -825 
Q 2494 -544 2613 72 
L 2700 519 
Q 2472 206 2181 57 
Q 1891 -91 1525 -91 
Q 975 -91 697 281 
Q 522 516 503 841 
Q 491 1031 534 1256 
Q 750 2359 1516 2928 
Q 2169 3409 2931 3413 
Q 3631 3416 3822 3322 
z
M 3184 2988 
Q 3181 3094 2844 3094 
Q 2234 3094 1775 2625 
Q 1316 2153 1147 1297 
Q 1100 1044 1113 853 
Q 1125 659 1203 528 
Q 1356 269 1756 269 
Q 2194 269 2484 583 
Q 2775 897 2891 1497 
L 2953 1825 
L 3184 2988 
z
" transform="scale(0.015625)"/>
      <path id="DejaVuSerif-Italic-6c" d="M 903 331 
L 1447 331 
L 1384 0 
L 266 0 
L 1147 4531 
L 594 4531 
L 656 4863 
L 1784 4863 
L 903 331 
z
" transform="scale(0.015625)"/>
      <path id="DejaVuSerif-Italic-65" d="M 938 1275 
Q 925 1156 925 1050 
Q 925 756 1031 563 
Q 1216 219 1709 219 
Q 2072 219 2250 328 
Q 2569 525 2644 778 
L 3066 778 
Q 2941 381 2475 103 
Q 2150 -91 1506 -91 
Q 863 -91 516 388 
Q 272 722 272 1206 
Q 272 1419 319 1659 
Q 472 2450 1000 2931 
Q 1528 3413 2278 3413 
Q 3500 3413 3500 2547 
Q 3500 1913 2859 1603 
Q 2206 1288 938 1275 
z
M 2541 1975 
Q 2891 2181 2891 2569 
Q 2891 3103 2181 3103 
Q 1763 3103 1472 2784 
Q 1181 2466 1003 1606 
Q 2006 1653 2541 1975 
z
" transform="scale(0.015625)"/>
      <path id="DejaVuSerif-Italic-20" transform="scale(0.015625)"/>
      <path id="DejaVuSerif-Italic-72" d="M 3375 3328 
L 3213 2497 
L 2881 2497 
Q 2891 2559 2891 2613 
Q 2891 2775 2816 2866 
Q 2719 2988 2484 2988 
Q 2059 2988 1775 2694 
Q 1491 2400 1384 1850 
L 1025 0 
L 450 0 
L 1031 2994 
L 481 2994 
L 544 3322 
L 1669 3322 
L 1556 2731 
Q 1791 3078 2089 3245 
Q 2388 3413 2769 3413 
Q 2909 3413 3059 3391 
Q 3209 3369 3375 3328 
z
" transform="scale(0.015625)"/>
      <path id="DejaVuSerif-Italic-63" d="M 3163 997 
Q 2938 466 2536 187 
Q 2134 -91 1584 -91 
Q 859 -91 513 388 
Q 272 722 272 1203 
Q 272 1419 319 1663 
Q 475 2459 1008 2936 
Q 1541 3413 2266 3413 
Q 2581 3413 2879 3339 
Q 3178 3266 3463 3116 
L 3300 2266 
L 2966 2266 
Q 2966 2309 2966 2347 
Q 2966 2722 2803 2903 
Q 2622 3103 2213 3103 
Q 1747 3103 1439 2742 
Q 1131 2381 991 1663 
Q 928 1334 928 1078 
Q 928 778 1016 581 
Q 1181 219 1650 219 
Q 2022 219 2281 412 
Q 2541 606 2700 997 
L 3163 997 
z
" transform="scale(0.015625)"/>
      <path id="DejaVuSerif-Italic-74" d="M 856 2988 
L 350 2988 
L 416 3322 
L 922 3322 
L 1122 4353 
L 1700 4353 
L 1500 3322 
L 2581 3322 
L 2516 2988 
L 1434 2988 
L 1025 878 
Q 978 631 978 488 
Q 978 388 1000 338 
Q 1059 219 1278 219 
Q 1503 219 1633 351 
Q 1763 484 1825 781 
L 2259 781 
Q 2147 328 1884 118 
Q 1622 -91 1169 -91 
Q 672 -91 506 131 
Q 406 266 406 516 
Q 406 675 447 878 
L 856 2988 
z
" transform="scale(0.015625)"/>
      <path id="DejaVuSerif-Italic-61" d="M 2325 519 
Q 1909 -91 1238 -91 
Q 688 -91 409 281 
Q 216 544 216 919 
Q 216 1078 250 1256 
Q 463 2359 1231 2928 
Q 1884 3413 2675 3413 
Q 3206 3413 3388 3322 
L 2806 331 
L 3300 331 
L 3238 0 
L 2225 0 
L 2325 519 
z
M 822 938 
Q 822 269 1469 269 
Q 1863 269 2130 583 
Q 2397 897 2516 1497 
L 2806 3003 
L 2806 3003 
Q 2806 3094 2556 3094 
Q 1956 3094 1491 2625 
Q 1028 2153 863 1297 
Q 822 1097 822 938 
z
" transform="scale(0.015625)"/>
      <path id="DejaVuSerif-Italic-75" d="M 3097 3322 
L 3672 3322 
L 3091 331 
L 3634 331 
L 3572 0 
L 2453 0 
L 2566 588 
Q 2341 256 2055 82 
Q 1769 -91 1434 -91 
Q 881 -91 681 225 
Q 559 413 559 734 
Q 559 944 613 1209 
L 956 2988 
L 438 2988 
L 503 3322 
L 1600 3322 
L 1225 1388 
Q 1163 1066 1163 853 
Q 1163 663 1213 556 
Q 1316 331 1697 331 
Q 2097 331 2364 625 
Q 2631 919 2738 1478 
L 3097 3322 
z
" transform="scale(0.015625)"/>
      <path id="DejaVuSerif-Italic-62" d="M 1153 4531 
L 600 4531 
L 666 4863 
L 1794 4863 
L 1394 2803 
Q 1622 3116 1912 3264 
Q 2203 3413 2588 3413 
Q 3200 3413 3494 2928 
Q 3688 2609 3688 2163 
Q 3688 1928 3634 1663 
Q 3481 881 3000 395 
Q 2519 -91 1906 -91 
Q 1522 -91 1289 57 
Q 1056 206 950 519 
L 850 0 
L 275 0 
L 1153 4531 
z
M 1141 1497 
Q 1091 1250 1091 1053 
Q 1091 769 1191 581 
Q 1359 269 1797 269 
Q 2238 269 2533 622 
Q 2828 975 2963 1663 
Q 3025 1978 3025 2225 
Q 3025 2513 2938 2703 
Q 2781 3053 2338 3053 
Q 1900 3053 1609 2737 
Q 1319 2422 1203 1825 
L 1141 1497 
z
" transform="scale(0.015625)"/>
      <path id="DejaVuSerif-Italic-6f" d="M 1644 219 
Q 2106 219 2414 584 
Q 2722 950 2859 1663 
Q 2922 1988 2922 2241 
Q 2922 2541 2834 2738 
Q 2669 3103 2206 3103 
Q 1744 3103 1436 2739 
Q 1128 2375 991 1663 
Q 928 1338 928 1088 
Q 928 784 1019 584 
Q 1184 219 1644 219 
z
M 1584 -91 
Q 859 -91 513 388 
Q 272 722 272 1203 
Q 272 1419 319 1663 
Q 472 2456 1005 2934 
Q 1538 3413 2266 3413 
Q 2994 3413 3341 2934 
Q 3578 2603 3578 2122 
Q 3578 1906 3531 1663 
Q 3378 869 2845 389 
Q 2313 -91 1584 -91 
z
" transform="scale(0.015625)"/>
      <path id="DejaVuSerif-Italic-64" d="M 3841 4863 
L 2897 0 
L 2322 0 
L 2422 519 
Q 2191 206 1902 57 
Q 1613 -91 1228 -91 
Q 616 -91 322 394 
Q 125 716 125 1166 
Q 125 1397 178 1663 
Q 331 2444 812 2928 
Q 1294 3413 1909 3413 
Q 2294 3413 2525 3264 
Q 2756 3116 2866 2803 
L 3200 4531 
L 2656 4531 
L 2722 4863 
L 3841 4863 
z
M 2613 1497 
L 2675 1825 
Q 2722 2069 2722 2266 
Q 2722 2550 2622 2738 
Q 2456 3053 2019 3053 
Q 1575 3053 1279 2703 
Q 984 2353 850 1663 
Q 788 1347 788 1103 
Q 788 813 875 622 
Q 1031 269 1475 269 
Q 1913 269 2203 583 
Q 2494 897 2613 1497 
z
" transform="scale(0.015625)"/>
      <path id="DejaVuSerif-Italic-79" d="M 3681 3294 
Q 3372 1506 2828 563 
Q 2031 -822 1391 -1238 
Q 1106 -1422 356 -1422 
Q 209 -1422 60 -1397 
Q -88 -1372 -238 -1325 
L -113 -691 
L 181 -691 
Q 175 -741 175 -788 
Q 175 -919 231 -994 
Q 309 -1100 513 -1100 
Q 1063 -1100 1541 -622 
L 756 2988 
L 378 2988 
L 444 3322 
L 1303 3322 
L 2041 25 
Q 2544 778 2666 1088 
Q 3059 2059 3138 2959 
L 2759 2959 
L 2825 3294 
L 3681 3294 
z
" transform="scale(0.015625)"/>
     </defs>
     <use xlink:href="#DejaVuSerif-Italic-53"/>
     <use xlink:href="#DejaVuSerif-Italic-69" x="68.505859"/>
     <use xlink:href="#DejaVuSerif-Italic-6e" x="100.488281"/>
     <use xlink:href="#DejaVuSerif-Italic-67" x="164.892578"/>
     <use xlink:href="#DejaVuSerif-Italic-6c" x="228.90625"/>
     <use xlink:href="#DejaVuSerif-Italic-65" x="260.888672"/>
     <use xlink:href="#DejaVuSerif-Italic-20" x="320.068359"/>
     <use xlink:href="#DejaVuSerif-Italic-72" x="351.855469"/>
     <use xlink:href="#DejaVuSerif-Italic-65" x="399.658203"/>
     <use xlink:href="#DejaVuSerif-Italic-63" x="458.837891"/>
     <use xlink:href="#DejaVuSerif-Italic-74" x="514.84375"/>
     <use xlink:href="#DejaVuSerif-Italic-61" x="555.029297"/>
     <use xlink:href="#DejaVuSerif-Italic-6e" x="614.648438"/>
     <use xlink:href="#DejaVuSerif-Italic-67" x="679.052734"/>
     <use xlink:href="#DejaVuSerif-Italic-75" x="743.066406"/>
     <use xlink:href="#DejaVuSerif-Italic-6c" x="807.470703"/>
     <use xlink:href="#DejaVuSerif-Italic-61" x="839.453125"/>
     <use xlink:href="#DejaVuSerif-Italic-72" x="899.072266"/>
     <use xlink:href="#DejaVuSerif-Italic-20" x="946.875"/>
     <use xlink:href="#DejaVuSerif-Italic-62" x="978.662109"/>
     <use xlink:href="#DejaVuSerif-Italic-6f" x="1042.675781"/>
     <use xlink:href="#DejaVuSerif-Italic-64" x="1102.880859"/>
     <use xlink:href="#DejaVuSerif-Italic-79" x="1166.894531"/>
    </g>
    <!-- or cube anomaly -->
    <g style="fill: #808080" transform="translate(70.70625 224.050375) scale(0.08 -0.08)">
     <defs>
      <path id="DejaVuSerif-Italic-6d" d="M 3503 2675 
Q 3741 3041 4034 3227 
Q 4328 3413 4672 3413 
Q 5194 3413 5388 3088 
Q 5503 2894 5503 2578 
Q 5503 2372 5453 2113 
L 5106 331 
L 5625 331 
L 5563 0 
L 4469 0 
L 4866 2047 
Q 4913 2291 4913 2466 
Q 4913 2659 4856 2772 
Q 4750 2988 4403 2988 
Q 4019 2988 3761 2697 
Q 3503 2406 3394 1850 
L 3034 0 
L 2459 0 
L 2863 2069 
Q 2906 2303 2906 2472 
Q 2906 2666 2850 2775 
Q 2741 2988 2394 2988 
Q 2009 2988 1751 2697 
Q 1494 2406 1384 1850 
L 1025 0 
L 450 0 
L 1031 2994 
L 481 2994 
L 544 3322 
L 1669 3322 
L 1556 2731 
Q 1778 3063 2059 3238 
Q 2341 3413 2653 3413 
Q 3041 3413 3262 3220 
Q 3484 3028 3503 2675 
z
" transform="scale(0.015625)"/>
     </defs>
     <use xlink:href="#DejaVuSerif-Italic-6f"/>
     <use xlink:href="#DejaVuSerif-Italic-72" x="60.205078"/>
     <use xlink:href="#DejaVuSerif-Italic-20" x="108.007812"/>
     <use xlink:href="#DejaVuSerif-Italic-63" x="139.794922"/>
     <use xlink:href="#DejaVuSerif-Italic-75" x="195.800781"/>
     <use xlink:href="#DejaVuSerif-Italic-62" x="260.205078"/>
     <use xlink:href="#DejaVuSerif-Italic-65" x="324.21875"/>
     <use xlink:href="#DejaVuSerif-Italic-20" x="383.398438"/>
     <use xlink:href="#DejaVuSerif-Italic-61" x="415.185547"/>
     <use xlink:href="#DejaVuSerif-Italic-6e" x="474.804688"/>
     <use xlink:href="#DejaVuSerif-Italic-6f" x="539.208984"/>
     <use xlink:href="#DejaVuSerif-Italic-6d" x="599.414062"/>
     <use xlink:href="#DejaVuSerif-Italic-61" x="694.238281"/>
     <use xlink:href="#DejaVuSerif-Italic-6c" x="753.857422"/>
     <use xlink:href="#DejaVuSerif-Italic-79" x="785.839844"/>
    </g>
   </g>
   <g id="text_3">
    <!-- Type 1: -->
    <g transform="translate(82.598516 11.801875) scale(0.11 -0.11)">
     <defs>
      <path id="DejaVuSerif-Bold-54" d="M 1159 0 
L 1159 378 
L 1778 378 
L 1778 4238 
L 500 4238 
L 500 3500 
L 72 3500 
L 72 4666 
L 4697 4666 
L 4697 3500 
L 4275 3500 
L 4275 4238 
L 2988 4238 
L 2988 378 
L 3609 378 
L 3609 0 
L 1159 0 
z
" transform="scale(0.015625)"/>
      <path id="DejaVuSerif-Bold-79" d="M 1997 -750 
Q 1847 -1116 1634 -1269 
Q 1422 -1422 1063 -1422 
Q 909 -1422 721 -1387 
Q 534 -1353 313 -1288 
L 313 -594 
L 666 -597 
Q 675 -838 779 -953 
Q 884 -1069 1094 -1069 
Q 1297 -1069 1422 -958 
Q 1547 -847 1672 -538 
L 1722 -422 
L 275 2944 
L -84 2944 
L -84 3322 
L 1831 3322 
L 1831 2944 
L 1434 2944 
L 2278 978 
L 3066 2944 
L 2625 2944 
L 2625 3322 
L 3872 3322 
L 3872 2944 
L 3469 2944 
L 1997 -750 
z
" transform="scale(0.015625)"/>
      <path id="DejaVuSerif-Bold-70" d="M 1728 1825 
L 1728 1497 
Q 1728 916 1876 656 
Q 2025 397 2356 397 
Q 2697 397 2836 672 
Q 2975 947 2975 1663 
Q 2975 2378 2836 2651 
Q 2697 2925 2356 2925 
Q 2025 2925 1876 2665 
Q 1728 2406 1728 1825 
z
M 622 2944 
L 147 2944 
L 147 3322 
L 1728 3322 
L 1728 2900 
Q 1869 3159 2106 3286 
Q 2344 3413 2694 3413 
Q 3403 3413 3811 2945 
Q 4219 2478 4219 1663 
Q 4219 847 3811 378 
Q 3403 -91 2694 -91 
Q 2344 -91 2106 36 
Q 1869 163 1728 422 
L 1728 -953 
L 2241 -953 
L 2241 -1331 
L 147 -1331 
L 147 -953 
L 622 -953 
L 622 2944 
z
" transform="scale(0.015625)"/>
      <path id="DejaVuSerif-Bold-65" d="M 2566 1875 
Q 2566 2531 2444 2795 
Q 2322 3059 2028 3059 
Q 1744 3059 1620 2800 
Q 1497 2541 1497 1931 
L 1497 1875 
L 2566 1875 
z
M 3781 1503 
L 1497 1503 
L 1497 1478 
Q 1497 834 1690 548 
Q 1884 263 2316 263 
Q 2675 263 2897 453 
Q 3119 644 3181 1006 
L 3700 1006 
Q 3566 441 3166 175 
Q 2766 -91 2047 -91 
Q 1184 -91 723 364 
Q 263 819 263 1663 
Q 263 2488 734 2950 
Q 1206 3413 2047 3413 
Q 2872 3413 3312 2927 
Q 3753 2441 3781 1503 
z
" transform="scale(0.015625)"/>
      <path id="DejaVuSerif-Bold-20" transform="scale(0.015625)"/>
      <path id="DejaVuSerif-Bold-31" d="M 878 0 
L 878 378 
L 1753 378 
L 1753 4153 
L 781 3578 
L 781 4044 
L 1953 4750 
L 2938 4750 
L 2938 378 
L 3816 378 
L 3816 0 
L 878 0 
z
" transform="scale(0.015625)"/>
      <path id="DejaVuSerif-Bold-3a" d="M 588 2541 
Q 588 2788 761 2963 
Q 934 3138 1178 3138 
Q 1422 3138 1597 2961 
Q 1772 2784 1772 2541 
Q 1772 2297 1598 2125 
Q 1425 1953 1178 1953 
Q 931 1953 759 2125 
Q 588 2297 588 2541 
z
M 588 506 
Q 588 750 761 925 
Q 934 1100 1178 1100 
Q 1422 1100 1597 925 
Q 1772 750 1772 506 
Q 1772 259 1597 84 
Q 1422 -91 1178 -91 
Q 934 -91 761 84 
Q 588 259 588 506 
z
" transform="scale(0.015625)"/>
     </defs>
     <use xlink:href="#DejaVuSerif-Bold-54"/>
     <use xlink:href="#DejaVuSerif-Bold-79" x="63.414062"/>
     <use xlink:href="#DejaVuSerif-Bold-70" x="121.519531"/>
     <use xlink:href="#DejaVuSerif-Bold-65" x="191.441406"/>
     <use xlink:href="#DejaVuSerif-Bold-20" x="255.064453"/>
     <use xlink:href="#DejaVuSerif-Bold-31" x="289.878906"/>
     <use xlink:href="#DejaVuSerif-Bold-3a" x="359.458984"/>
    </g>
    <!-- Cuboid/Cube -->
    <g transform="translate(64.843828 24.275875) scale(0.11 -0.11)">
     <defs>
      <path id="DejaVuSerif-Bold-43" d="M 4769 1331 
Q 4584 609 4106 259 
Q 3628 -91 2822 -91 
Q 1641 -91 955 561 
Q 269 1213 269 2328 
Q 269 3447 955 4098 
Q 1641 4750 2822 4750 
Q 3238 4750 3688 4650 
Q 4138 4550 4641 4347 
L 4641 3200 
L 4244 3200 
Q 4122 3788 3800 4080 
Q 3478 4372 2950 4372 
Q 2269 4372 1937 3870 
Q 1606 3369 1606 2328 
Q 1606 1288 1937 788 
Q 2269 288 2956 288 
Q 3422 288 3717 547 
Q 4013 806 4147 1331 
L 4769 1331 
z
" transform="scale(0.015625)"/>
      <path id="DejaVuSerif-Bold-75" d="M 3963 3322 
L 3963 378 
L 4434 378 
L 4434 0 
L 2853 0 
L 2853 469 
Q 2656 172 2400 40 
Q 2144 -91 1753 -91 
Q 1194 -91 908 239 
Q 622 569 622 1209 
L 622 2944 
L 147 2944 
L 147 3322 
L 1728 3322 
L 1728 1381 
Q 1728 763 1831 595 
Q 1934 428 2209 428 
Q 2544 428 2698 675 
Q 2853 922 2853 1459 
L 2853 2944 
L 2450 2944 
L 2450 3322 
L 3963 3322 
z
" transform="scale(0.015625)"/>
      <path id="DejaVuSerif-Bold-62" d="M 622 378 
L 622 4488 
L 147 4488 
L 147 4863 
L 1728 4863 
L 1728 2900 
Q 1869 3159 2106 3286 
Q 2344 3413 2694 3413 
Q 3403 3413 3811 2945 
Q 4219 2478 4219 1663 
Q 4219 847 3811 378 
Q 3403 -91 2694 -91 
Q 2344 -91 2106 36 
Q 1869 163 1728 422 
L 1728 0 
L 147 0 
L 147 378 
L 622 378 
z
M 1728 1497 
Q 1728 916 1876 656 
Q 2025 397 2356 397 
Q 2697 397 2836 672 
Q 2975 947 2975 1663 
Q 2975 2378 2836 2651 
Q 2697 2925 2356 2925 
Q 2025 2925 1876 2665 
Q 1728 2406 1728 1825 
L 1728 1497 
z
" transform="scale(0.015625)"/>
      <path id="DejaVuSerif-Bold-6f" d="M 2138 263 
Q 2488 263 2630 563 
Q 2772 863 2772 1663 
Q 2772 2463 2631 2761 
Q 2491 3059 2138 3059 
Q 1784 3059 1640 2757 
Q 1497 2456 1497 1663 
Q 1497 869 1640 566 
Q 1784 263 2138 263 
z
M 2138 -91 
Q 1259 -91 761 376 
Q 263 844 263 1663 
Q 263 2484 761 2948 
Q 1259 3413 2138 3413 
Q 3019 3413 3516 2948 
Q 4013 2484 4013 1663 
Q 4013 844 3514 376 
Q 3016 -91 2138 -91 
z
" transform="scale(0.015625)"/>
      <path id="DejaVuSerif-Bold-69" d="M 588 4263 
Q 588 4516 763 4689 
Q 938 4863 1191 4863 
Q 1438 4863 1611 4689 
Q 1784 4516 1784 4263 
Q 1784 4016 1611 3842 
Q 1438 3669 1191 3669 
Q 938 3669 763 3841 
Q 588 4013 588 4263 
z
M 1797 378 
L 2272 378 
L 2272 0 
L 219 0 
L 219 378 
L 691 378 
L 691 2944 
L 219 2944 
L 219 3322 
L 1797 3322 
L 1797 378 
z
" transform="scale(0.015625)"/>
      <path id="DejaVuSerif-Bold-64" d="M 2747 1497 
L 2747 1825 
Q 2747 2406 2597 2665 
Q 2447 2925 2119 2925 
Q 1775 2925 1636 2651 
Q 1497 2378 1497 1663 
Q 1497 947 1637 672 
Q 1778 397 2119 397 
Q 2447 397 2597 656 
Q 2747 916 2747 1497 
z
M 3853 378 
L 4325 378 
L 4325 0 
L 2747 0 
L 2747 422 
Q 2606 163 2367 36 
Q 2128 -91 1778 -91 
Q 1072 -91 667 378 
Q 263 847 263 1663 
Q 263 2481 667 2947 
Q 1072 3413 1778 3413 
Q 2128 3413 2367 3286 
Q 2606 3159 2747 2900 
L 2747 4488 
L 2272 4488 
L 2272 4863 
L 3853 4863 
L 3853 378 
z
" transform="scale(0.015625)"/>
      <path id="DejaVuSerif-Bold-2f" d="M 1644 4666 
L 2338 4666 
L 691 -594 
L 0 -594 
L 1644 4666 
z
" transform="scale(0.015625)"/>
     </defs>
     <use xlink:href="#DejaVuSerif-Bold-43"/>
     <use xlink:href="#DejaVuSerif-Bold-75" x="79.589844"/>
     <use xlink:href="#DejaVuSerif-Bold-62" x="152.294922"/>
     <use xlink:href="#DejaVuSerif-Bold-6f" x="222.216797"/>
     <use xlink:href="#DejaVuSerif-Bold-69" x="288.916016"/>
     <use xlink:href="#DejaVuSerif-Bold-64" x="326.904297"/>
     <use xlink:href="#DejaVuSerif-Bold-2f" x="396.826172"/>
     <use xlink:href="#DejaVuSerif-Bold-43" x="433.349609"/>
     <use xlink:href="#DejaVuSerif-Bold-75" x="512.939453"/>
     <use xlink:href="#DejaVuSerif-Bold-62" x="585.644531"/>
     <use xlink:href="#DejaVuSerif-Bold-65" x="655.566406"/>
    </g>
   </g>
  </g>
  <g id="axes_2">
   <g id="patch_3">
    <path d="M 299.943529 191.555875 
L 420.903529 171.395875 
L 400.743529 70.595875 
L 279.783529 90.755875 
z
" clip-path="url(#p3d13c767bd)" style="fill: #3498db; opacity: 0.7; stroke: #000000; stroke-width: 1.5; stroke-linejoin: miter"/>
   </g>
   <g id="text_4">
    <!-- $\kappa$ -->
    <g transform="translate(347.193529 134.939) scale(0.14 -0.14)">
     <defs>
      <path id="STIXGeneral-Italic-3ba" d="M 979 1440 
L 998 1446 
Q 1850 2541 2464 2790 
Q 2547 2822 2630 2822 
Q 2797 2822 2886 2736 
Q 2976 2650 2976 2522 
Q 2976 2387 2893 2307 
Q 2810 2227 2682 2227 
Q 2605 2227 2502 2288 
Q 2400 2349 2336 2349 
Q 2170 2349 1990 2205 
Q 1811 2061 1414 1645 
L 2042 544 
Q 2202 262 2310 182 
Q 2419 102 2624 102 
L 2624 0 
Q 2374 -83 2182 -83 
Q 1786 -83 1555 326 
L 960 1350 
L 576 0 
L 90 0 
L 640 1978 
Q 730 2317 730 2406 
Q 730 2560 518 2560 
L 339 2560 
L 339 2650 
Q 678 2694 1306 2822 
L 1325 2803 
L 979 1440 
z
" transform="scale(0.015625)"/>
     </defs>
     <use xlink:href="#STIXGeneral-Italic-3ba" transform="translate(0 0.90625)"/>
    </g>
   </g>
   <g id="text_5">
    <!-- Single tilted prism -->
    <g style="fill: #808080" transform="translate(322.778529 214.978375) scale(0.08 -0.08)">
     <defs>
      <path id="DejaVuSerif-Italic-70" d="M 1466 1825 
L 1400 1497 
Q 1353 1250 1353 1053 
Q 1353 769 1453 581 
Q 1622 269 2059 269 
Q 2500 269 2795 622 
Q 3091 975 3225 1663 
Q 3284 1978 3284 2225 
Q 3284 2513 3200 2703 
Q 3041 3053 2600 3053 
Q 2163 3053 1872 2737 
Q 1581 2422 1466 1825 
z
M 1116 2988 
L 563 2988 
L 628 3322 
L 1756 3322 
L 1656 2803 
Q 1884 3116 2175 3264 
Q 2466 3413 2850 3413 
Q 3463 3413 3753 2928 
Q 3947 2609 3947 2163 
Q 3947 1928 3897 1663 
Q 3744 881 3262 395 
Q 2781 -91 2169 -91 
Q 1784 -91 1551 57 
Q 1319 206 1213 519 
L 850 -1331 
L 275 -1331 
L 1116 2988 
z
" transform="scale(0.015625)"/>
      <path id="DejaVuSerif-Italic-73" d="M 222 959 
L 553 959 
Q 541 869 541 788 
Q 541 219 1313 219 
Q 2088 219 2200 788 
Q 2209 844 2209 944 
Q 2209 1041 2103 1158 
Q 1997 1275 1550 1428 
L 1159 1569 
Q 759 1706 629 1882 
Q 500 2059 500 2263 
Q 500 2344 516 2438 
Q 606 2894 990 3153 
Q 1375 3413 1931 3413 
Q 2484 3413 3066 3144 
L 2925 2419 
L 2594 2419 
Q 2606 2491 2606 2553 
Q 2606 2781 2448 2942 
Q 2291 3103 1925 3103 
Q 1191 3103 1091 2591 
Q 1078 2538 1078 2444 
Q 1078 2347 1179 2237 
Q 1281 2128 1678 1997 
L 2106 1856 
Q 2550 1709 2716 1488 
Q 2831 1331 2831 1178 
Q 2831 522 2306 181 
Q 1894 -91 1262 -91 
Q 631 -91 72 184 
L 222 959 
z
" transform="scale(0.015625)"/>
     </defs>
     <use xlink:href="#DejaVuSerif-Italic-53"/>
     <use xlink:href="#DejaVuSerif-Italic-69" x="68.505859"/>
     <use xlink:href="#DejaVuSerif-Italic-6e" x="100.488281"/>
     <use xlink:href="#DejaVuSerif-Italic-67" x="164.892578"/>
     <use xlink:href="#DejaVuSerif-Italic-6c" x="228.90625"/>
     <use xlink:href="#DejaVuSerif-Italic-65" x="260.888672"/>
     <use xlink:href="#DejaVuSerif-Italic-20" x="320.068359"/>
     <use xlink:href="#DejaVuSerif-Italic-74" x="351.855469"/>
     <use xlink:href="#DejaVuSerif-Italic-69" x="392.041016"/>
     <use xlink:href="#DejaVuSerif-Italic-6c" x="424.023438"/>
     <use xlink:href="#DejaVuSerif-Italic-74" x="456.005859"/>
     <use xlink:href="#DejaVuSerif-Italic-65" x="496.191406"/>
     <use xlink:href="#DejaVuSerif-Italic-64" x="555.371094"/>
     <use xlink:href="#DejaVuSerif-Italic-20" x="619.384766"/>
     <use xlink:href="#DejaVuSerif-Italic-70" x="651.171875"/>
     <use xlink:href="#DejaVuSerif-Italic-72" x="715.185547"/>
     <use xlink:href="#DejaVuSerif-Italic-69" x="762.988281"/>
     <use xlink:href="#DejaVuSerif-Italic-73" x="794.970703"/>
     <use xlink:href="#DejaVuSerif-Italic-6d" x="846.289062"/>
    </g>
    <!-- with dip angle -->
    <g style="fill: #808080" transform="translate(331.424779 224.050375) scale(0.08 -0.08)">
     <defs>
      <path id="DejaVuSerif-Italic-77" d="M 3741 728 
Q 4156 1178 4250 1344 
Q 4594 1969 4931 2988 
L 4447 2984 
L 4513 3322 
L 5347 3322 
L 5281 2984 
L 5278 2984 
Q 4959 1825 4656 1266 
Q 4209 469 3719 0 
L 3241 0 
L 2900 2484 
L 1597 0 
L 1138 0 
L 734 2988 
L 359 2981 
L 425 3322 
L 1281 3322 
L 1631 728 
L 2991 3322 
L 3394 3322 
L 3741 728 
z
" transform="scale(0.015625)"/>
      <path id="DejaVuSerif-Italic-68" d="M 309 0 
L 1191 4531 
L 641 4531 
L 703 4863 
L 1828 4863 
L 1416 2731 
Q 1641 3069 1928 3241 
Q 2216 3413 2553 3413 
Q 3103 3413 3300 3097 
Q 3422 2906 3422 2588 
Q 3422 2378 3369 2113 
L 3022 331 
L 3534 331 
L 3472 0 
L 2381 0 
L 2756 1931 
Q 2819 2253 2819 2469 
Q 2819 2659 2769 2763 
Q 2666 2988 2284 2988 
Q 1884 2988 1617 2697 
Q 1350 2406 1244 1850 
L 884 0 
L 309 0 
z
" transform="scale(0.015625)"/>
     </defs>
     <use xlink:href="#DejaVuSerif-Italic-77"/>
     <use xlink:href="#DejaVuSerif-Italic-69" x="85.595703"/>
     <use xlink:href="#DejaVuSerif-Italic-74" x="117.578125"/>
     <use xlink:href="#DejaVuSerif-Italic-68" x="157.763672"/>
     <use xlink:href="#DejaVuSerif-Italic-20" x="222.167969"/>
     <use xlink:href="#DejaVuSerif-Italic-64" x="253.955078"/>
     <use xlink:href="#DejaVuSerif-Italic-69" x="317.96875"/>
     <use xlink:href="#DejaVuSerif-Italic-70" x="349.951172"/>
     <use xlink:href="#DejaVuSerif-Italic-20" x="413.964844"/>
     <use xlink:href="#DejaVuSerif-Italic-61" x="445.751953"/>
     <use xlink:href="#DejaVuSerif-Italic-6e" x="505.371094"/>
     <use xlink:href="#DejaVuSerif-Italic-67" x="569.775391"/>
     <use xlink:href="#DejaVuSerif-Italic-6c" x="633.789062"/>
     <use xlink:href="#DejaVuSerif-Italic-65" x="665.771484"/>
    </g>
   </g>
   <g id="text_6">
    <!-- Type 2: -->
    <g transform="translate(338.622045 11.801875) scale(0.11 -0.11)">
     <defs>
      <path id="DejaVuSerif-Bold-32" d="M 844 3513 
L 469 3513 
L 469 4519 
Q 850 4634 1223 4692 
Q 1597 4750 1978 4750 
Q 2869 4750 3367 4386 
Q 3866 4022 3866 3372 
Q 3866 2909 3591 2542 
Q 3316 2175 2541 1672 
L 1241 819 
L 3450 819 
L 3450 1369 
L 3878 1369 
L 3878 0 
L 428 0 
L 428 763 
L 1119 1241 
Q 2003 1850 2297 2278 
Q 2591 2706 2591 3278 
Q 2591 3819 2367 4101 
Q 2144 4384 1716 4384 
Q 1347 4384 1125 4161 
Q 903 3938 844 3513 
z
" transform="scale(0.015625)"/>
     </defs>
     <use xlink:href="#DejaVuSerif-Bold-54"/>
     <use xlink:href="#DejaVuSerif-Bold-79" x="63.414062"/>
     <use xlink:href="#DejaVuSerif-Bold-70" x="121.519531"/>
     <use xlink:href="#DejaVuSerif-Bold-65" x="191.441406"/>
     <use xlink:href="#DejaVuSerif-Bold-20" x="255.064453"/>
     <use xlink:href="#DejaVuSerif-Bold-32" x="289.878906"/>
     <use xlink:href="#DejaVuSerif-Bold-3a" x="359.458984"/>
    </g>
    <!-- Tilted Body -->
    <g transform="translate(324.993217 24.275875) scale(0.11 -0.11)">
     <defs>
      <path id="DejaVuSerif-Bold-6c" d="M 1797 378 
L 2272 378 
L 2272 0 
L 219 0 
L 219 378 
L 691 378 
L 691 4488 
L 219 4488 
L 219 4863 
L 1797 4863 
L 1797 378 
z
" transform="scale(0.015625)"/>
      <path id="DejaVuSerif-Bold-74" d="M 634 2944 
L 153 2944 
L 153 3322 
L 634 3322 
L 634 4353 
L 1741 4353 
L 1741 3322 
L 2663 3322 
L 2663 2944 
L 1741 2944 
L 1741 909 
Q 1741 475 1809 369 
Q 1878 263 2059 263 
Q 2259 263 2356 397 
Q 2453 531 2459 813 
L 2925 813 
Q 2897 313 2651 111 
Q 2406 -91 1806 -91 
Q 1122 -91 878 123 
Q 634 338 634 909 
L 634 2944 
z
" transform="scale(0.015625)"/>
      <path id="DejaVuSerif-Bold-42" d="M 300 0 
L 300 378 
L 897 378 
L 897 4288 
L 300 4288 
L 300 4666 
L 3066 4666 
Q 3919 4666 4347 4378 
Q 4775 4091 4775 3513 
Q 4775 3097 4479 2853 
Q 4184 2609 3603 2547 
Q 4306 2481 4681 2172 
Q 5056 1863 5056 1350 
Q 5056 656 4532 328 
Q 4009 0 2894 0 
L 300 0 
z
M 2100 2719 
L 2509 2719 
Q 3047 2719 3306 2914 
Q 3566 3109 3566 3513 
Q 3566 3919 3314 4103 
Q 3063 4288 2509 4288 
L 2100 4288 
L 2100 2719 
z
M 2100 378 
L 2547 378 
Q 3144 378 3431 615 
Q 3719 853 3719 1350 
Q 3719 1850 3428 2097 
Q 3138 2344 2547 2344 
L 2100 2344 
L 2100 378 
z
" transform="scale(0.015625)"/>
     </defs>
     <use xlink:href="#DejaVuSerif-Bold-54"/>
     <use xlink:href="#DejaVuSerif-Bold-69" x="74.414062"/>
     <use xlink:href="#DejaVuSerif-Bold-6c" x="112.402344"/>
     <use xlink:href="#DejaVuSerif-Bold-74" x="150.390625"/>
     <use xlink:href="#DejaVuSerif-Bold-65" x="196.582031"/>
     <use xlink:href="#DejaVuSerif-Bold-64" x="260.205078"/>
     <use xlink:href="#DejaVuSerif-Bold-20" x="330.126953"/>
     <use xlink:href="#DejaVuSerif-Bold-42" x="364.941406"/>
     <use xlink:href="#DejaVuSerif-Bold-6f" x="449.462891"/>
     <use xlink:href="#DejaVuSerif-Bold-64" x="516.162109"/>
     <use xlink:href="#DejaVuSerif-Bold-79" x="586.083984"/>
    </g>
   </g>
  </g>
  <g id="axes_3">
   <g id="patch_4">
    <path d="M 616.447059 131.075875 
L 624.458065 133.305802 
L 634.903985 108.742376 
L 631.12756 112.518537 
L 656.597104 100.14135 
L 649.025421 91.390941 
L 641.551421 98.902231 
L 645.453788 129.759615 
L 617.634313 138.828188 
L 601.299373 133.760007 
L 586.654761 156.537641 
L 610.292744 160.178961 
L 611.381839 183.1573 
L 602.602034 181.36834 
L 584.03881 175.309083 
L 574.351709 180.013519 
L 564.647385 150.139977 
L 564.429702 167.198739 
L 577.695706 186.888505 
L 581.064258 218.494065 
L 559.643274 215.319087 
z
" clip-path="url(#p8fee783095)" style="fill: #2ecc71; opacity: 0.7; stroke: #000000; stroke-width: 1.5; stroke-linejoin: miter"/>
   </g>
   <g id="text_7">
    <!-- ? -->
    <g transform="translate(611.759559 135.490875) scale(0.16 -0.16)">
     <defs>
      <path id="DejaVuSerif-Bold-3f" d="M 1069 506 
Q 1069 750 1244 925 
Q 1419 1100 1663 1100 
Q 1909 1100 2084 925 
Q 2259 750 2259 506 
Q 2259 259 2084 84 
Q 1909 -91 1663 -91 
Q 1419 -91 1244 84 
Q 1069 259 1069 506 
z
M 416 4538 
Q 803 4644 1153 4697 
Q 1503 4750 1831 4750 
Q 2619 4750 3041 4404 
Q 3463 4059 3463 3419 
Q 3463 2788 3055 2423 
Q 2647 2059 1881 2003 
L 1881 1363 
L 1447 1363 
L 1447 2297 
Q 1884 2431 2087 2718 
Q 2291 3006 2291 3488 
Q 2291 3938 2100 4167 
Q 1909 4397 1538 4397 
Q 1194 4397 1008 4190 
Q 822 3984 794 3578 
L 416 3578 
L 416 4538 
z
" transform="scale(0.015625)"/>
     </defs>
     <use xlink:href="#DejaVuSerif-Bold-3f"/>
    </g>
   </g>
   <g id="text_8">
    <!-- Complex irregular shape -->
    <g style="fill: #808080" transform="translate(566.053934 215.092125) scale(0.08 -0.08)">
     <defs>
      <path id="DejaVuSerif-Italic-43" d="M 4300 1234 
Q 3966 581 3414 245 
Q 2863 -91 2119 -91 
Q 1663 -91 1303 65 
Q 944 222 700 525 
Q 419 875 334 1320 
Q 250 1766 359 2328 
Q 572 3416 1330 4083 
Q 2088 4750 3116 4750 
Q 3497 4750 3908 4650 
Q 4319 4550 4775 4347 
L 4569 3272 
L 4216 3272 
Q 4213 3859 3919 4137 
Q 3625 4416 2997 4416 
Q 2250 4416 1762 3886 
Q 1275 3356 1075 2328 
Q 875 1303 1156 773 
Q 1438 244 2184 244 
Q 2706 244 3092 492 
Q 3478 741 3725 1234 
L 4300 1234 
z
" transform="scale(0.015625)"/>
      <path id="DejaVuSerif-Italic-78" d="M 409 0 
L 19 0 
L 1484 1594 
L 747 2988 
L 338 2988 
L 400 3322 
L 1244 3322 
L 1934 2028 
L 3125 3322 
L 3516 3322 
L 2078 1759 
L 2838 331 
L 3272 331 
L 3209 0 
L 2338 0 
L 1631 1325 
L 409 0 
z
" transform="scale(0.015625)"/>
     </defs>
     <use xlink:href="#DejaVuSerif-Italic-43"/>
     <use xlink:href="#DejaVuSerif-Italic-6f" x="76.513672"/>
     <use xlink:href="#DejaVuSerif-Italic-6d" x="136.71875"/>
     <use xlink:href="#DejaVuSerif-Italic-70" x="231.542969"/>
     <use xlink:href="#DejaVuSerif-Italic-6c" x="295.556641"/>
     <use xlink:href="#DejaVuSerif-Italic-65" x="327.539062"/>
     <use xlink:href="#DejaVuSerif-Italic-78" x="386.71875"/>
     <use xlink:href="#DejaVuSerif-Italic-20" x="443.115234"/>
     <use xlink:href="#DejaVuSerif-Italic-69" x="474.902344"/>
     <use xlink:href="#DejaVuSerif-Italic-72" x="506.884766"/>
     <use xlink:href="#DejaVuSerif-Italic-72" x="554.6875"/>
     <use xlink:href="#DejaVuSerif-Italic-65" x="602.490234"/>
     <use xlink:href="#DejaVuSerif-Italic-67" x="661.669922"/>
     <use xlink:href="#DejaVuSerif-Italic-75" x="725.683594"/>
     <use xlink:href="#DejaVuSerif-Italic-6c" x="790.087891"/>
     <use xlink:href="#DejaVuSerif-Italic-61" x="822.070312"/>
     <use xlink:href="#DejaVuSerif-Italic-72" x="881.689453"/>
     <use xlink:href="#DejaVuSerif-Italic-20" x="929.492188"/>
     <use xlink:href="#DejaVuSerif-Italic-73" x="961.279297"/>
     <use xlink:href="#DejaVuSerif-Italic-68" x="1012.597656"/>
     <use xlink:href="#DejaVuSerif-Italic-61" x="1077.001953"/>
     <use xlink:href="#DejaVuSerif-Italic-70" x="1136.621094"/>
     <use xlink:href="#DejaVuSerif-Italic-65" x="1200.634766"/>
    </g>
    <!-- from random walk -->
    <g style="fill: #808080" transform="translate(579.163934 224.164125) scale(0.08 -0.08)">
     <defs>
      <path id="DejaVuSerif-Italic-66" d="M 3191 4078 
L 2888 4078 
Q 2900 4144 2900 4203 
Q 2900 4347 2825 4434 
Q 2719 4556 2472 4556 
Q 2150 4556 1984 4379 
Q 1819 4203 1731 3750 
L 1647 3322 
L 2575 3322 
L 2509 2988 
L 1581 2988 
L 963 -206 
Q 853 -763 509 -1047 
Q 166 -1331 -394 -1331 
L -356 -1025 
Q -28 -1025 131 -850 
Q 297 -663 388 -206 
L 1006 2988 
L 456 2988 
L 522 3322 
L 1072 3322 
L 1153 3738 
Q 1263 4297 1606 4578 
Q 1950 4863 2509 4863 
Q 2719 4863 2920 4825 
Q 3122 4788 3316 4709 
L 3191 4078 
z
" transform="scale(0.015625)"/>
      <path id="DejaVuSerif-Italic-6b" d="M 2113 2075 
L 3034 331 
L 3513 331 
L 3450 0 
L 2528 0 
L 1622 1697 
L 1088 1275 
L 841 0 
L 266 0 
L 1147 4531 
L 594 4531 
L 656 4863 
L 1784 4863 
L 1169 1697 
L 2822 2988 
L 2344 2988 
L 2406 3322 
L 3341 3322 
L 3278 2988 
L 2113 2075 
z
" transform="scale(0.015625)"/>
     </defs>
     <use xlink:href="#DejaVuSerif-Italic-66"/>
     <use xlink:href="#DejaVuSerif-Italic-72" x="37.011719"/>
     <use xlink:href="#DejaVuSerif-Italic-6f" x="84.814453"/>
     <use xlink:href="#DejaVuSerif-Italic-6d" x="145.019531"/>
     <use xlink:href="#DejaVuSerif-Italic-20" x="239.84375"/>
     <use xlink:href="#DejaVuSerif-Italic-72" x="271.630859"/>
     <use xlink:href="#DejaVuSerif-Italic-61" x="319.433594"/>
     <use xlink:href="#DejaVuSerif-Italic-6e" x="379.052734"/>
     <use xlink:href="#DejaVuSerif-Italic-64" x="443.457031"/>
     <use xlink:href="#DejaVuSerif-Italic-6f" x="507.470703"/>
     <use xlink:href="#DejaVuSerif-Italic-6d" x="567.675781"/>
     <use xlink:href="#DejaVuSerif-Italic-20" x="662.5"/>
     <use xlink:href="#DejaVuSerif-Italic-77" x="694.287109"/>
     <use xlink:href="#DejaVuSerif-Italic-61" x="779.882812"/>
     <use xlink:href="#DejaVuSerif-Italic-6c" x="839.501953"/>
     <use xlink:href="#DejaVuSerif-Italic-6b" x="871.484375"/>
    </g>
   </g>
   <g id="text_9">
    <!-- Type 3: -->
    <g transform="translate(594.645574 11.801875) scale(0.11 -0.11)">
     <defs>
      <path id="DejaVuSerif-Bold-33" d="M 550 4531 
Q 963 4641 1350 4695 
Q 1738 4750 2106 4750 
Q 2950 4750 3401 4448 
Q 3853 4147 3853 3584 
Q 3853 3163 3593 2900 
Q 3334 2638 2834 2547 
Q 3444 2450 3744 2131 
Q 4044 1813 4044 1259 
Q 4044 606 3526 257 
Q 3009 -91 2028 -91 
Q 1659 -91 1267 -28 
Q 875 34 447 159 
L 447 1184 
L 825 1184 
Q 859 741 1103 508 
Q 1347 275 1778 275 
Q 2253 275 2512 539 
Q 2772 803 2772 1288 
Q 2772 1794 2501 2069 
Q 2231 2344 1734 2344 
L 1528 2344 
L 1528 2719 
L 1691 2719 
Q 2150 2719 2381 2931 
Q 2613 3144 2613 3566 
Q 2613 3963 2395 4173 
Q 2178 4384 1772 4384 
Q 1403 4384 1187 4182 
Q 972 3981 928 3597 
L 550 3597 
L 550 4531 
z
" transform="scale(0.015625)"/>
     </defs>
     <use xlink:href="#DejaVuSerif-Bold-54"/>
     <use xlink:href="#DejaVuSerif-Bold-79" x="63.414062"/>
     <use xlink:href="#DejaVuSerif-Bold-70" x="121.519531"/>
     <use xlink:href="#DejaVuSerif-Bold-65" x="191.441406"/>
     <use xlink:href="#DejaVuSerif-Bold-20" x="255.064453"/>
     <use xlink:href="#DejaVuSerif-Bold-33" x="289.878906"/>
     <use xlink:href="#DejaVuSerif-Bold-3a" x="359.458984"/>
    </g>
    <!-- Random Walk -->
    <g transform="translate(573.781668 24.275875) scale(0.11 -0.11)">
     <defs>
      <path id="DejaVuSerif-Bold-52" d="M 3397 2278 
Q 3675 2238 3865 2094 
Q 4056 1950 4197 1678 
L 4878 378 
L 5356 378 
L 5356 0 
L 3822 0 
L 3078 1409 
Q 2863 1847 2711 1967 
Q 2559 2088 2291 2088 
L 2100 2088 
L 2100 378 
L 2700 378 
L 2700 0 
L 300 0 
L 300 378 
L 897 378 
L 897 4288 
L 300 4288 
L 300 4666 
L 2963 4666 
Q 3775 4666 4217 4339 
Q 4659 4013 4659 3413 
Q 4659 2925 4345 2642 
Q 4031 2359 3397 2278 
z
M 2100 2463 
L 2509 2463 
Q 2947 2463 3183 2700 
Q 3419 2938 3419 3378 
Q 3419 3819 3183 4053 
Q 2947 4288 2509 4288 
L 2100 4288 
L 2100 2463 
z
" transform="scale(0.015625)"/>
      <path id="DejaVuSerif-Bold-61" d="M 3525 2041 
L 3525 378 
L 4000 378 
L 4000 0 
L 2419 0 
L 2419 422 
Q 2200 159 1931 34 
Q 1663 -91 1319 -91 
Q 809 -91 536 182 
Q 263 456 263 966 
Q 263 1525 655 1803 
Q 1047 2081 1838 2081 
L 2419 2081 
L 2419 2278 
Q 2419 2681 2228 2873 
Q 2038 3066 1638 3066 
Q 1306 3066 1126 2930 
Q 947 2794 872 2484 
L 519 2484 
L 519 3200 
Q 816 3306 1134 3359 
Q 1453 3413 1806 3413 
Q 2697 3413 3111 3081 
Q 3525 2750 3525 2041 
z
M 2419 1044 
L 2419 1709 
L 2003 1709 
Q 1694 1709 1528 1540 
Q 1363 1372 1363 1056 
Q 1363 741 1483 584 
Q 1603 428 1850 428 
Q 2106 428 2262 597 
Q 2419 766 2419 1044 
z
" transform="scale(0.015625)"/>
      <path id="DejaVuSerif-Bold-6e" d="M 219 0 
L 219 378 
L 691 378 
L 691 2944 
L 219 2944 
L 219 3322 
L 1797 3322 
L 1797 2853 
Q 1997 3150 2253 3281 
Q 2509 3413 2900 3413 
Q 3459 3413 3745 3083 
Q 4031 2753 4031 2113 
L 4031 378 
L 4506 378 
L 4506 0 
L 2522 0 
L 2522 378 
L 2925 378 
L 2925 2144 
Q 2925 2566 2817 2730 
Q 2709 2894 2444 2894 
Q 2109 2894 1953 2648 
Q 1797 2403 1797 1869 
L 1797 378 
L 2203 378 
L 2203 0 
L 219 0 
z
" transform="scale(0.015625)"/>
      <path id="DejaVuSerif-Bold-6d" d="M 3884 2778 
Q 4116 3109 4384 3261 
Q 4653 3413 5013 3413 
Q 5584 3413 5867 3089 
Q 6150 2766 6150 2113 
L 6150 378 
L 6625 378 
L 6625 0 
L 4647 0 
L 4647 378 
L 5044 378 
L 5044 1947 
Q 5044 2569 4948 2731 
Q 4853 2894 4594 2894 
Q 4300 2894 4137 2667 
Q 3975 2441 3975 2022 
L 3975 378 
L 4372 378 
L 4372 0 
L 2472 0 
L 2472 378 
L 2869 378 
L 2869 1947 
Q 2869 2569 2772 2731 
Q 2675 2894 2419 2894 
Q 2122 2894 1959 2667 
Q 1797 2441 1797 2022 
L 1797 378 
L 2194 378 
L 2194 0 
L 219 0 
L 219 378 
L 691 378 
L 691 2944 
L 219 2944 
L 219 3322 
L 1797 3322 
L 1797 2853 
Q 1991 3144 2241 3278 
Q 2491 3413 2834 3413 
Q 3241 3413 3494 3258 
Q 3747 3103 3884 2778 
z
" transform="scale(0.015625)"/>
      <path id="DejaVuSerif-Bold-57" d="M 5453 0 
L 4647 0 
L 3591 3397 
L 2534 0 
L 1728 0 
L 397 4288 
L -56 4288 
L -56 4666 
L 2156 4666 
L 2156 4288 
L 1656 4288 
L 2547 1422 
L 3553 4666 
L 4441 4666 
L 5466 1369 
L 6375 4288 
L 5819 4288 
L 5819 4666 
L 7263 4666 
L 7263 4288 
L 6784 4288 
L 5453 0 
z
" transform="scale(0.015625)"/>
      <path id="DejaVuSerif-Bold-6b" d="M 2216 0 
L 219 0 
L 219 378 
L 691 378 
L 691 4488 
L 219 4488 
L 219 4863 
L 1797 4863 
L 1797 1741 
L 3138 2944 
L 2741 2944 
L 2741 3322 
L 4256 3322 
L 4256 2944 
L 3641 2944 
L 2784 2175 
L 4184 378 
L 4544 378 
L 4544 0 
L 2638 0 
L 2638 378 
L 3028 378 
L 2106 1563 
L 1797 1288 
L 1797 378 
L 2216 378 
L 2216 0 
z
" transform="scale(0.015625)"/>
     </defs>
     <use xlink:href="#DejaVuSerif-Bold-52"/>
     <use xlink:href="#DejaVuSerif-Bold-61" x="85.355469"/>
     <use xlink:href="#DejaVuSerif-Bold-6e" x="150.150391"/>
     <use xlink:href="#DejaVuSerif-Bold-64" x="222.855469"/>
     <use xlink:href="#DejaVuSerif-Bold-6f" x="292.777344"/>
     <use xlink:href="#DejaVuSerif-Bold-6d" x="359.476562"/>
     <use xlink:href="#DejaVuSerif-Bold-20" x="465.287109"/>
     <use xlink:href="#DejaVuSerif-Bold-57" x="500.101562"/>
     <use xlink:href="#DejaVuSerif-Bold-61" x="603.65625"/>
     <use xlink:href="#DejaVuSerif-Bold-6c" x="668.451172"/>
     <use xlink:href="#DejaVuSerif-Bold-6b" x="706.439453"/>
    </g>
   </g>
  </g>
  <g id="axes_4">
   <g id="patch_5">
    <path d="M 39.888 437.507875 
L 88.272 437.507875 
L 88.272 389.123875 
L 39.888 389.123875 
z
" clip-path="url(#p4e39fc84c9)" style="fill: #e74c3c; opacity: 0.7; stroke: #000000; stroke-linejoin: miter"/>
   </g>
   <g id="patch_6">
    <path d="M 120.528 437.507875 
L 168.912 437.507875 
L 168.912 389.123875 
L 120.528 389.123875 
z
" clip-path="url(#p4e39fc84c9)" style="fill: #3498db; opacity: 0.7; stroke: #000000; stroke-linejoin: miter"/>
   </g>
   <g id="patch_7">
    <path d="M 39.888 356.867875 
L 88.272 356.867875 
L 88.272 308.483875 
L 39.888 308.483875 
z
" clip-path="url(#p4e39fc84c9)" style="fill: #2ecc71; opacity: 0.7; stroke: #000000; stroke-linejoin: miter"/>
   </g>
   <g id="patch_8">
    <path d="M 120.528 356.867875 
L 168.912 356.867875 
L 168.912 308.483875 
L 120.528 308.483875 
z
" clip-path="url(#p4e39fc84c9)" style="fill: #f39c12; opacity: 0.7; stroke: #000000; stroke-linejoin: miter"/>
   </g>
   <g id="patch_9">
    <path d="M 26.360893 451.034982 
Q 104.401329 372.994546 182.441765 294.95411 
" style="fill: none; stroke: #808080; stroke-width: 1.5; stroke-linecap: round"/>
    <path d="M 30.603534 449.620768 
L 26.360893 451.034982 
L 27.775107 446.792341 
" style="fill: none; stroke: #808080; stroke-width: 1.5; stroke-linecap: round"/>
    <path d="M 178.199124 296.368324 
L 182.441765 294.95411 
L 181.027551 299.196751 
" style="fill: none; stroke: #808080; stroke-width: 1.5; stroke-linecap: round"/>
   </g>
   <g id="text_10">
    <!-- Multiple bodies with -->
    <g style="fill: #808080" transform="translate(62.69625 457.012125) scale(0.08 -0.08)">
     <defs>
      <path id="DejaVuSerif-Italic-4d" d="M -97 0 
L -34 331 
L 559 331 
L 1338 4331 
L 709 4331 
L 775 4666 
L 2134 4666 
L 3125 1344 
L 5409 4666 
L 6684 4666 
L 6619 4331 
L 5997 4331 
L 5222 331 
L 5816 331 
L 5753 0 
L 3928 0 
L 3991 331 
L 4584 331 
L 5288 3938 
L 3053 684 
L 2613 684 
L 1647 3938 
L 944 331 
L 1538 331 
L 1475 0 
L -97 0 
z
" transform="scale(0.015625)"/>
     </defs>
     <use xlink:href="#DejaVuSerif-Italic-4d"/>
     <use xlink:href="#DejaVuSerif-Italic-75" x="102.392578"/>
     <use xlink:href="#DejaVuSerif-Italic-6c" x="166.796875"/>
     <use xlink:href="#DejaVuSerif-Italic-74" x="198.779297"/>
     <use xlink:href="#DejaVuSerif-Italic-69" x="238.964844"/>
     <use xlink:href="#DejaVuSerif-Italic-70" x="270.947266"/>
     <use xlink:href="#DejaVuSerif-Italic-6c" x="334.960938"/>
     <use xlink:href="#DejaVuSerif-Italic-65" x="366.943359"/>
     <use xlink:href="#DejaVuSerif-Italic-20" x="426.123047"/>
     <use xlink:href="#DejaVuSerif-Italic-62" x="457.910156"/>
     <use xlink:href="#DejaVuSerif-Italic-6f" x="521.923828"/>
     <use xlink:href="#DejaVuSerif-Italic-64" x="582.128906"/>
     <use xlink:href="#DejaVuSerif-Italic-69" x="646.142578"/>
     <use xlink:href="#DejaVuSerif-Italic-65" x="678.125"/>
     <use xlink:href="#DejaVuSerif-Italic-73" x="737.304688"/>
     <use xlink:href="#DejaVuSerif-Italic-20" x="788.623047"/>
     <use xlink:href="#DejaVuSerif-Italic-77" x="820.410156"/>
     <use xlink:href="#DejaVuSerif-Italic-69" x="906.005859"/>
     <use xlink:href="#DejaVuSerif-Italic-74" x="937.988281"/>
     <use xlink:href="#DejaVuSerif-Italic-68" x="978.173828"/>
    </g>
    <!-- global structure match -->
    <g style="fill: #808080" transform="translate(57.93125 465.970375) scale(0.08 -0.08)">
     <use xlink:href="#DejaVuSerif-Italic-67"/>
     <use xlink:href="#DejaVuSerif-Italic-6c" x="64.013672"/>
     <use xlink:href="#DejaVuSerif-Italic-6f" x="95.996094"/>
     <use xlink:href="#DejaVuSerif-Italic-62" x="156.201172"/>
     <use xlink:href="#DejaVuSerif-Italic-61" x="220.214844"/>
     <use xlink:href="#DejaVuSerif-Italic-6c" x="279.833984"/>
     <use xlink:href="#DejaVuSerif-Italic-20" x="311.816406"/>
     <use xlink:href="#DejaVuSerif-Italic-73" x="343.603516"/>
     <use xlink:href="#DejaVuSerif-Italic-74" x="394.921875"/>
     <use xlink:href="#DejaVuSerif-Italic-72" x="435.107422"/>
     <use xlink:href="#DejaVuSerif-Italic-75" x="482.910156"/>
     <use xlink:href="#DejaVuSerif-Italic-63" x="547.314453"/>
     <use xlink:href="#DejaVuSerif-Italic-74" x="603.320312"/>
     <use xlink:href="#DejaVuSerif-Italic-75" x="643.505859"/>
     <use xlink:href="#DejaVuSerif-Italic-72" x="707.910156"/>
     <use xlink:href="#DejaVuSerif-Italic-65" x="755.712891"/>
     <use xlink:href="#DejaVuSerif-Italic-20" x="814.892578"/>
     <use xlink:href="#DejaVuSerif-Italic-6d" x="846.679688"/>
     <use xlink:href="#DejaVuSerif-Italic-61" x="941.503906"/>
     <use xlink:href="#DejaVuSerif-Italic-74" x="1001.123047"/>
     <use xlink:href="#DejaVuSerif-Italic-63" x="1041.308594"/>
     <use xlink:href="#DejaVuSerif-Italic-68" x="1097.314453"/>
    </g>
   </g>
   <g id="text_11">
    <!-- Type 4: -->
    <g transform="translate(82.598516 253.721875) scale(0.11 -0.11)">
     <defs>
      <path id="DejaVuSerif-Bold-34" d="M 4084 0 
L 1516 0 
L 1516 378 
L 2209 378 
L 2209 1228 
L 263 1228 
L 263 1588 
L 2216 4750 
L 3391 4750 
L 3391 1631 
L 4191 1631 
L 4191 1228 
L 3391 1228 
L 3391 378 
L 4084 378 
L 4084 0 
z
M 2209 1631 
L 2209 3897 
L 819 1631 
L 2209 1631 
z
" transform="scale(0.015625)"/>
     </defs>
     <use xlink:href="#DejaVuSerif-Bold-54"/>
     <use xlink:href="#DejaVuSerif-Bold-79" x="63.414062"/>
     <use xlink:href="#DejaVuSerif-Bold-70" x="121.519531"/>
     <use xlink:href="#DejaVuSerif-Bold-65" x="191.441406"/>
     <use xlink:href="#DejaVuSerif-Bold-20" x="255.064453"/>
     <use xlink:href="#DejaVuSerif-Bold-34" x="289.878906"/>
     <use xlink:href="#DejaVuSerif-Bold-3a" x="359.458984"/>
    </g>
    <!-- Global Consistent -->
    <g transform="translate(49.626016 266.195875) scale(0.11 -0.11)">
     <defs>
      <path id="DejaVuSerif-Bold-47" d="M 4403 3200 
Q 4263 3819 3934 4095 
Q 3606 4372 3009 4372 
Q 2284 4372 1945 3880 
Q 1606 3388 1606 2328 
Q 1606 1278 1931 783 
Q 2256 288 2944 288 
Q 3206 288 3431 347 
Q 3656 406 3841 525 
L 3841 1806 
L 3278 1806 
L 3278 2181 
L 4959 2181 
L 4959 391 
Q 4434 147 3911 28 
Q 3388 -91 2841 -91 
Q 1641 -91 955 556 
Q 269 1203 269 2328 
Q 269 3456 955 4103 
Q 1641 4750 2841 4750 
Q 3341 4750 3825 4650 
Q 4309 4550 4800 4347 
L 4800 3200 
L 4403 3200 
z
" transform="scale(0.015625)"/>
      <path id="DejaVuSerif-Bold-73" d="M 300 97 
L 300 1025 
L 653 1025 
Q 697 653 931 458 
Q 1166 263 1569 263 
Q 1906 263 2086 380 
Q 2266 497 2266 716 
Q 2266 916 2152 1025 
Q 2038 1134 1709 1216 
L 1253 1331 
Q 738 1459 506 1698 
Q 275 1938 275 2344 
Q 275 2884 650 3148 
Q 1025 3413 1806 3413 
Q 2100 3413 2433 3364 
Q 2766 3316 3169 3213 
L 3169 2375 
L 2816 2375 
Q 2788 2716 2573 2887 
Q 2359 3059 1959 3059 
Q 1622 3059 1448 2951 
Q 1275 2844 1275 2638 
Q 1275 2469 1375 2372 
Q 1475 2275 1734 2209 
L 2188 2094 
Q 2841 1928 3091 1684 
Q 3341 1441 3341 1006 
Q 3341 444 2939 176 
Q 2538 -91 1691 -91 
Q 1381 -91 1034 -44 
Q 688 3 300 97 
z
" transform="scale(0.015625)"/>
     </defs>
     <use xlink:href="#DejaVuSerif-Bold-47"/>
     <use xlink:href="#DejaVuSerif-Bold-6c" x="85.400391"/>
     <use xlink:href="#DejaVuSerif-Bold-6f" x="123.388672"/>
     <use xlink:href="#DejaVuSerif-Bold-62" x="190.087891"/>
     <use xlink:href="#DejaVuSerif-Bold-61" x="260.009766"/>
     <use xlink:href="#DejaVuSerif-Bold-6c" x="324.804688"/>
     <use xlink:href="#DejaVuSerif-Bold-20" x="362.792969"/>
     <use xlink:href="#DejaVuSerif-Bold-43" x="397.607422"/>
     <use xlink:href="#DejaVuSerif-Bold-6f" x="477.197266"/>
     <use xlink:href="#DejaVuSerif-Bold-6e" x="543.896484"/>
     <use xlink:href="#DejaVuSerif-Bold-73" x="616.601562"/>
     <use xlink:href="#DejaVuSerif-Bold-69" x="672.900391"/>
     <use xlink:href="#DejaVuSerif-Bold-73" x="710.888672"/>
     <use xlink:href="#DejaVuSerif-Bold-74" x="767.1875"/>
     <use xlink:href="#DejaVuSerif-Bold-65" x="813.378906"/>
     <use xlink:href="#DejaVuSerif-Bold-6e" x="877.001953"/>
     <use xlink:href="#DejaVuSerif-Bold-74" x="949.707031"/>
    </g>
   </g>
  </g>
  <g id="axes_5">
   <g id="patch_10">
    <path d="M 295.911529 437.507875 
L 344.295529 437.507875 
L 344.295529 389.123875 
L 295.911529 389.123875 
z
" clip-path="url(#p7190a272e2)" style="fill: #e74c3c; opacity: 0.7; stroke: #000000; stroke-linejoin: miter"/>
   </g>
   <g id="patch_11">
    <path d="M 376.551529 437.507875 
L 424.935529 437.507875 
L 424.935529 389.123875 
L 376.551529 389.123875 
z
" clip-path="url(#p7190a272e2)" style="fill: #3498db; opacity: 0.7; stroke: #000000; stroke-linejoin: miter"/>
   </g>
   <g id="patch_12">
    <path d="M 336.231529 356.867875 
L 384.615529 356.867875 
L 384.615529 308.483875 
L 336.231529 308.483875 
z
" clip-path="url(#p7190a272e2)" style="fill: #2ecc71; opacity: 0.7; stroke: #000000; stroke-linejoin: miter"/>
   </g>
   <g id="line2d_1">
    <defs>
     <path id="mbe3059f50a" d="M -5 5 
L 5 -5 
M -5 -5 
L 5 5 
" style="stroke: #ff0000; stroke-width: 2"/>
    </defs>
    <g clip-path="url(#p7190a272e2)">
     <use xlink:href="#mbe3059f50a" x="320.103529" y="332.675875" style="fill: #ff0000; stroke: #ff0000; stroke-width: 2"/>
     <use xlink:href="#mbe3059f50a" x="400.743529" y="413.315875" style="fill: #ff0000; stroke: #ff0000; stroke-width: 2"/>
    </g>
   </g>
   <g id="patch_13">
    <path d="M 322.704423 410.714982 
Q 360.423856 372.995548 398.143289 335.276115 
" style="fill: none; stroke: #808080; stroke-width: 1.5; stroke-linecap: round"/>
    <path d="M 326.947063 409.300768 
L 322.704423 410.714982 
L 324.118636 406.472341 
" style="fill: none; stroke: #808080; stroke-width: 1.5; stroke-linecap: round"/>
    <path d="M 393.900649 336.690329 
L 398.143289 335.276115 
L 396.729076 339.518756 
" style="fill: none; stroke: #808080; stroke-width: 1.5; stroke-linecap: round"/>
   </g>
   <g id="patch_14">
    <path d="M 399.32849 411.900836 
Q 360.423203 372.995548 322.70377 335.276115 
" style="fill: none; stroke-dasharray: 5.55,2.4; stroke-dashoffset: 0; stroke: #ff0000; stroke-width: 1.5; stroke-linecap: round"/>
    <path d="M 324.117983 339.518756 
L 322.70377 335.276115 
L 326.94641 336.690329 
" style="fill: none; stroke-dasharray: 5.55,2.4; stroke-dashoffset: 0; stroke: #ff0000; stroke-width: 1.5; stroke-linecap: round"/>
   </g>
   <g id="text_12">
    <!-- Multiple bodies with -->
    <g style="fill: #808080" transform="translate(318.719779 457.125875) scale(0.08 -0.08)">
     <use xlink:href="#DejaVuSerif-Italic-4d"/>
     <use xlink:href="#DejaVuSerif-Italic-75" x="102.392578"/>
     <use xlink:href="#DejaVuSerif-Italic-6c" x="166.796875"/>
     <use xlink:href="#DejaVuSerif-Italic-74" x="198.779297"/>
     <use xlink:href="#DejaVuSerif-Italic-69" x="238.964844"/>
     <use xlink:href="#DejaVuSerif-Italic-70" x="270.947266"/>
     <use xlink:href="#DejaVuSerif-Italic-6c" x="334.960938"/>
     <use xlink:href="#DejaVuSerif-Italic-65" x="366.943359"/>
     <use xlink:href="#DejaVuSerif-Italic-20" x="426.123047"/>
     <use xlink:href="#DejaVuSerif-Italic-62" x="457.910156"/>
     <use xlink:href="#DejaVuSerif-Italic-6f" x="521.923828"/>
     <use xlink:href="#DejaVuSerif-Italic-64" x="582.128906"/>
     <use xlink:href="#DejaVuSerif-Italic-69" x="646.142578"/>
     <use xlink:href="#DejaVuSerif-Italic-65" x="678.125"/>
     <use xlink:href="#DejaVuSerif-Italic-73" x="737.304688"/>
     <use xlink:href="#DejaVuSerif-Italic-20" x="788.623047"/>
     <use xlink:href="#DejaVuSerif-Italic-77" x="820.410156"/>
     <use xlink:href="#DejaVuSerif-Italic-69" x="906.005859"/>
     <use xlink:href="#DejaVuSerif-Italic-74" x="937.988281"/>
     <use xlink:href="#DejaVuSerif-Italic-68" x="978.173828"/>
    </g>
    <!-- partial structure match -->
    <g style="fill: #808080" transform="translate(313.019154 466.084125) scale(0.08 -0.08)">
     <use xlink:href="#DejaVuSerif-Italic-70"/>
     <use xlink:href="#DejaVuSerif-Italic-61" x="64.013672"/>
     <use xlink:href="#DejaVuSerif-Italic-72" x="123.632812"/>
     <use xlink:href="#DejaVuSerif-Italic-74" x="171.435547"/>
     <use xlink:href="#DejaVuSerif-Italic-69" x="211.621094"/>
     <use xlink:href="#DejaVuSerif-Italic-61" x="243.603516"/>
     <use xlink:href="#DejaVuSerif-Italic-6c" x="303.222656"/>
     <use xlink:href="#DejaVuSerif-Italic-20" x="335.205078"/>
     <use xlink:href="#DejaVuSerif-Italic-73" x="366.992188"/>
     <use xlink:href="#DejaVuSerif-Italic-74" x="418.310547"/>
     <use xlink:href="#DejaVuSerif-Italic-72" x="458.496094"/>
     <use xlink:href="#DejaVuSerif-Italic-75" x="506.298828"/>
     <use xlink:href="#DejaVuSerif-Italic-63" x="570.703125"/>
     <use xlink:href="#DejaVuSerif-Italic-74" x="626.708984"/>
     <use xlink:href="#DejaVuSerif-Italic-75" x="666.894531"/>
     <use xlink:href="#DejaVuSerif-Italic-72" x="731.298828"/>
     <use xlink:href="#DejaVuSerif-Italic-65" x="779.101562"/>
     <use xlink:href="#DejaVuSerif-Italic-20" x="838.28125"/>
     <use xlink:href="#DejaVuSerif-Italic-6d" x="870.068359"/>
     <use xlink:href="#DejaVuSerif-Italic-61" x="964.892578"/>
     <use xlink:href="#DejaVuSerif-Italic-74" x="1024.511719"/>
     <use xlink:href="#DejaVuSerif-Italic-63" x="1064.697266"/>
     <use xlink:href="#DejaVuSerif-Italic-68" x="1120.703125"/>
    </g>
   </g>
   <g id="text_13">
    <!-- Type 5: -->
    <g transform="translate(338.622045 253.721875) scale(0.11 -0.11)">
     <defs>
      <path id="DejaVuSerif-Bold-35" d="M 3609 4666 
L 3609 3847 
L 1113 3847 
L 1113 2822 
Q 1319 2981 1572 3062 
Q 1825 3144 2106 3144 
Q 2969 3144 3469 2708 
Q 3969 2272 3969 1522 
Q 3969 759 3469 334 
Q 2969 -91 2069 -91 
Q 1688 -91 1311 -28 
Q 934 34 525 166 
L 525 1184 
L 900 1184 
Q 919 725 1139 500 
Q 1359 275 1791 275 
Q 2250 275 2472 583 
Q 2694 891 2694 1522 
Q 2694 2144 2476 2451 
Q 2259 2759 1819 2759 
Q 1581 2759 1395 2661 
Q 1209 2563 1050 2356 
L 738 2356 
L 738 4666 
L 3609 4666 
z
" transform="scale(0.015625)"/>
     </defs>
     <use xlink:href="#DejaVuSerif-Bold-54"/>
     <use xlink:href="#DejaVuSerif-Bold-79" x="63.414062"/>
     <use xlink:href="#DejaVuSerif-Bold-70" x="121.519531"/>
     <use xlink:href="#DejaVuSerif-Bold-65" x="191.441406"/>
     <use xlink:href="#DejaVuSerif-Bold-20" x="255.064453"/>
     <use xlink:href="#DejaVuSerif-Bold-35" x="289.878906"/>
     <use xlink:href="#DejaVuSerif-Bold-3a" x="359.458984"/>
    </g>
    <!-- Partial Consistent -->
    <g transform="translate(304.867514 266.195875) scale(0.11 -0.11)">
     <defs>
      <path id="DejaVuSerif-Bold-50" d="M 300 0 
L 300 378 
L 897 378 
L 897 4288 
L 300 4288 
L 300 4666 
L 2956 4666 
Q 3734 4666 4193 4295 
Q 4653 3925 4653 3303 
Q 4653 2678 4192 2304 
Q 3731 1931 2956 1931 
L 2100 1931 
L 2100 378 
L 2853 378 
L 2853 0 
L 300 0 
z
M 2100 2309 
L 2450 2309 
Q 2856 2309 3098 2579 
Q 3341 2850 3341 3303 
Q 3341 3753 3100 4020 
Q 2859 4288 2450 4288 
L 2100 4288 
L 2100 2309 
z
" transform="scale(0.015625)"/>
      <path id="DejaVuSerif-Bold-72" d="M 3438 3359 
L 3438 2369 
L 3084 2369 
Q 3066 2634 2941 2764 
Q 2816 2894 2578 2894 
Q 2216 2894 2006 2575 
Q 1797 2256 1797 1691 
L 1797 378 
L 2400 378 
L 2400 0 
L 219 0 
L 219 378 
L 691 378 
L 691 2944 
L 184 2944 
L 184 3322 
L 1797 3322 
L 1797 2731 
Q 1959 3078 2226 3245 
Q 2494 3413 2881 3413 
Q 2978 3413 3117 3398 
Q 3256 3384 3438 3359 
z
" transform="scale(0.015625)"/>
     </defs>
     <use xlink:href="#DejaVuSerif-Bold-50"/>
     <use xlink:href="#DejaVuSerif-Bold-61" x="72.570312"/>
     <use xlink:href="#DejaVuSerif-Bold-72" x="137.365234"/>
     <use xlink:href="#DejaVuSerif-Bold-74" x="190.050781"/>
     <use xlink:href="#DejaVuSerif-Bold-69" x="236.242188"/>
     <use xlink:href="#DejaVuSerif-Bold-61" x="274.230469"/>
     <use xlink:href="#DejaVuSerif-Bold-6c" x="339.025391"/>
     <use xlink:href="#DejaVuSerif-Bold-20" x="377.013672"/>
     <use xlink:href="#DejaVuSerif-Bold-43" x="411.828125"/>
     <use xlink:href="#DejaVuSerif-Bold-6f" x="491.417969"/>
     <use xlink:href="#DejaVuSerif-Bold-6e" x="558.117188"/>
     <use xlink:href="#DejaVuSerif-Bold-73" x="630.822266"/>
     <use xlink:href="#DejaVuSerif-Bold-69" x="687.121094"/>
     <use xlink:href="#DejaVuSerif-Bold-73" x="725.109375"/>
     <use xlink:href="#DejaVuSerif-Bold-74" x="781.408203"/>
     <use xlink:href="#DejaVuSerif-Bold-65" x="827.599609"/>
     <use xlink:href="#DejaVuSerif-Bold-6e" x="891.222656"/>
     <use xlink:href="#DejaVuSerif-Bold-74" x="963.927734"/>
    </g>
   </g>
  </g>
  <g id="axes_6">
   <g id="patch_15">
    <path d="M 551.935059 437.507875 
L 600.319059 437.507875 
L 600.319059 389.123875 
L 551.935059 389.123875 
z
" clip-path="url(#pe5ec5fbe6f)" style="fill: #e74c3c; opacity: 0.7; stroke: #000000; stroke-linejoin: miter"/>
   </g>
   <g id="patch_16">
    <path d="M 632.575059 356.867875 
L 680.959059 356.867875 
L 680.959059 308.483875 
L 632.575059 308.483875 
z
" clip-path="url(#pe5ec5fbe6f)" style="fill: #3498db; opacity: 0.7; stroke: #000000; stroke-linejoin: miter"/>
   </g>
   <g id="patch_17">
    <path d="M 579.123237 410.319697 
Q 616.447385 372.995548 653.771534 335.6714 
" style="fill: none; stroke-dasharray: 7.4,3.2; stroke-dashoffset: 0; stroke: #ff0000; stroke-width: 2; stroke-linecap: round"/>
    <path d="M 583.365877 408.905484 
L 579.123237 410.319697 
L 580.53745 406.077056 
" style="fill: none; stroke-dasharray: 7.4,3.2; stroke-dashoffset: 0; stroke: #ff0000; stroke-width: 2; stroke-linecap: round"/>
    <path d="M 649.528893 337.085613 
L 653.771534 335.6714 
L 652.35732 339.914041 
" style="fill: none; stroke-dasharray: 7.4,3.2; stroke-dashoffset: 0; stroke: #ff0000; stroke-width: 2; stroke-linecap: round"/>
   </g>
   <g id="text_14">
    <!-- $\times$ -->
    <g style="fill: #ff0000" transform="translate(610.047059 297.874625) scale(0.2 -0.2)">
     <defs>
      <path id="STIXGeneral-Regular-d7" d="M 3821 141 
L 3526 -160 
L 2048 1312 
L 570 -160 
L 275 134 
L 1747 1613 
L 275 3091 
L 576 3386 
L 2048 1914 
L 3526 3386 
L 3821 3098 
L 2349 1613 
L 3821 141 
z
" transform="scale(0.015625)"/>
     </defs>
     <use xlink:href="#STIXGeneral-Regular-d7" transform="translate(0 0.09375)"/>
    </g>
   </g>
   <g id="text_15">
    <!-- Multiple bodies with -->
    <g style="fill: #808080" transform="translate(574.743309 457.125875) scale(0.08 -0.08)">
     <use xlink:href="#DejaVuSerif-Italic-4d"/>
     <use xlink:href="#DejaVuSerif-Italic-75" x="102.392578"/>
     <use xlink:href="#DejaVuSerif-Italic-6c" x="166.796875"/>
     <use xlink:href="#DejaVuSerif-Italic-74" x="198.779297"/>
     <use xlink:href="#DejaVuSerif-Italic-69" x="238.964844"/>
     <use xlink:href="#DejaVuSerif-Italic-70" x="270.947266"/>
     <use xlink:href="#DejaVuSerif-Italic-6c" x="334.960938"/>
     <use xlink:href="#DejaVuSerif-Italic-65" x="366.943359"/>
     <use xlink:href="#DejaVuSerif-Italic-20" x="426.123047"/>
     <use xlink:href="#DejaVuSerif-Italic-62" x="457.910156"/>
     <use xlink:href="#DejaVuSerif-Italic-6f" x="521.923828"/>
     <use xlink:href="#DejaVuSerif-Italic-64" x="582.128906"/>
     <use xlink:href="#DejaVuSerif-Italic-69" x="646.142578"/>
     <use xlink:href="#DejaVuSerif-Italic-65" x="678.125"/>
     <use xlink:href="#DejaVuSerif-Italic-73" x="737.304688"/>
     <use xlink:href="#DejaVuSerif-Italic-20" x="788.623047"/>
     <use xlink:href="#DejaVuSerif-Italic-77" x="820.410156"/>
     <use xlink:href="#DejaVuSerif-Italic-69" x="906.005859"/>
     <use xlink:href="#DejaVuSerif-Italic-74" x="937.988281"/>
     <use xlink:href="#DejaVuSerif-Italic-68" x="978.173828"/>
    </g>
    <!-- structure mismatch -->
    <g style="fill: #808080" transform="translate(576.597684 466.084125) scale(0.08 -0.08)">
     <use xlink:href="#DejaVuSerif-Italic-73"/>
     <use xlink:href="#DejaVuSerif-Italic-74" x="51.318359"/>
     <use xlink:href="#DejaVuSerif-Italic-72" x="91.503906"/>
     <use xlink:href="#DejaVuSerif-Italic-75" x="139.306641"/>
     <use xlink:href="#DejaVuSerif-Italic-63" x="203.710938"/>
     <use xlink:href="#DejaVuSerif-Italic-74" x="259.716797"/>
     <use xlink:href="#DejaVuSerif-Italic-75" x="299.902344"/>
     <use xlink:href="#DejaVuSerif-Italic-72" x="364.306641"/>
     <use xlink:href="#DejaVuSerif-Italic-65" x="412.109375"/>
     <use xlink:href="#DejaVuSerif-Italic-20" x="471.289062"/>
     <use xlink:href="#DejaVuSerif-Italic-6d" x="503.076172"/>
     <use xlink:href="#DejaVuSerif-Italic-69" x="597.900391"/>
     <use xlink:href="#DejaVuSerif-Italic-73" x="629.882812"/>
     <use xlink:href="#DejaVuSerif-Italic-6d" x="681.201172"/>
     <use xlink:href="#DejaVuSerif-Italic-61" x="776.025391"/>
     <use xlink:href="#DejaVuSerif-Italic-74" x="835.644531"/>
     <use xlink:href="#DejaVuSerif-Italic-63" x="875.830078"/>
     <use xlink:href="#DejaVuSerif-Italic-68" x="931.835938"/>
    </g>
   </g>
   <g id="text_16">
    <!-- Type 6: -->
    <g transform="translate(594.645574 253.721875) scale(0.11 -0.11)">
     <defs>
      <path id="DejaVuSerif-Bold-36" d="M 1575 2766 
Q 1778 2928 2029 3009 
Q 2281 3091 2578 3091 
Q 3294 3091 3701 2672 
Q 4109 2253 4109 1522 
Q 4109 750 3650 329 
Q 3191 -91 2344 -91 
Q 1388 -91 895 486 
Q 403 1063 403 2181 
Q 403 3453 950 4101 
Q 1497 4750 2572 4750 
Q 2853 4750 3175 4703 
Q 3497 4656 3866 4563 
L 3866 3738 
L 3488 3738 
Q 3409 4056 3192 4220 
Q 2975 4384 2631 4384 
Q 2075 4384 1826 4003 
Q 1578 3622 1575 2766 
z
M 2272 275 
Q 2594 275 2731 548 
Q 2869 822 2869 1497 
Q 2869 2172 2731 2445 
Q 2594 2719 2272 2719 
Q 1950 2719 1814 2445 
Q 1678 2172 1678 1497 
Q 1678 822 1814 548 
Q 1950 275 2272 275 
z
" transform="scale(0.015625)"/>
     </defs>
     <use xlink:href="#DejaVuSerif-Bold-54"/>
     <use xlink:href="#DejaVuSerif-Bold-79" x="63.414062"/>
     <use xlink:href="#DejaVuSerif-Bold-70" x="121.519531"/>
     <use xlink:href="#DejaVuSerif-Bold-65" x="191.441406"/>
     <use xlink:href="#DejaVuSerif-Bold-20" x="255.064453"/>
     <use xlink:href="#DejaVuSerif-Bold-36" x="289.878906"/>
     <use xlink:href="#DejaVuSerif-Bold-3a" x="359.458984"/>
    </g>
    <!-- Inconsistent -->
    <g transform="translate(577.998621 266.195875) scale(0.11 -0.11)">
     <defs>
      <path id="DejaVuSerif-Bold-49" d="M 300 0 
L 300 378 
L 897 378 
L 897 4288 
L 300 4288 
L 300 4666 
L 2700 4666 
L 2700 4288 
L 2100 4288 
L 2100 378 
L 2700 378 
L 2700 0 
L 300 0 
z
" transform="scale(0.015625)"/>
      <path id="DejaVuSerif-Bold-63" d="M 3609 1038 
Q 3491 469 3123 189 
Q 2756 -91 2125 -91 
Q 1238 -91 750 368 
Q 263 828 263 1663 
Q 263 2488 744 2950 
Q 1225 3413 2081 3413 
Q 2428 3413 2781 3347 
Q 3134 3281 3500 3150 
L 3500 2228 
L 3150 2228 
Q 3100 2650 2903 2854 
Q 2706 3059 2350 3059 
Q 1888 3059 1692 2746 
Q 1497 2434 1497 1663 
Q 1497 909 1687 586 
Q 1878 263 2309 263 
Q 2644 263 2845 463 
Q 3047 663 3091 1038 
L 3609 1038 
z
" transform="scale(0.015625)"/>
     </defs>
     <use xlink:href="#DejaVuSerif-Bold-49"/>
     <use xlink:href="#DejaVuSerif-Bold-6e" x="46.777344"/>
     <use xlink:href="#DejaVuSerif-Bold-63" x="119.482422"/>
     <use xlink:href="#DejaVuSerif-Bold-6f" x="180.371094"/>
     <use xlink:href="#DejaVuSerif-Bold-6e" x="247.070312"/>
     <use xlink:href="#DejaVuSerif-Bold-73" x="319.775391"/>
     <use xlink:href="#DejaVuSerif-Bold-69" x="376.074219"/>
     <use xlink:href="#DejaVuSerif-Bold-73" x="414.0625"/>
     <use xlink:href="#DejaVuSerif-Bold-74" x="470.361328"/>
     <use xlink:href="#DejaVuSerif-Bold-65" x="516.552734"/>
     <use xlink:href="#DejaVuSerif-Bold-6e" x="580.175781"/>
     <use xlink:href="#DejaVuSerif-Bold-74" x="652.880859"/>
    </g>
   </g>
  </g>
 </g>
 <defs>
  <clipPath id="p419dd93fbf">
   <rect x="3.6" y="30.275875" width="201.6" height="201.6"/>
  </clipPath>
  <clipPath id="p3d13c767bd">
   <rect x="259.623529" y="30.275875" width="201.6" height="201.6"/>
  </clipPath>
  <clipPath id="p8fee783095">
   <rect x="515.647059" y="30.275875" width="201.6" height="201.6"/>
  </clipPath>
  <clipPath id="p4e39fc84c9">
   <rect x="3.6" y="272.195875" width="201.6" height="201.6"/>
  </clipPath>
  <clipPath id="p7190a272e2">
   <rect x="259.623529" y="272.195875" width="201.6" height="201.6"/>
  </clipPath>
  <clipPath id="pe5ec5fbe6f">
   <rect x="515.647059" y="272.195875" width="201.6" height="201.6"/>
  </clipPath>
 </defs>
</svg>
