<?xml version="1.0" encoding="utf-8" standalone="no"?>
<!DOCTYPE svg PUBLIC "-//W3C//DTD SVG 1.1//EN"
  "http://www.w3.org/Graphics/SVG/1.1/DTD/svg11.dtd">
<svg xmlns:xlink="http://www.w3.org/1999/xlink" width="788.4pt" height="261.760956pt" viewBox="0 0 788.4 261.760956" xmlns="http://www.w3.org/2000/svg" version="1.1">
 <metadata>
  <rdf:RDF xmlns:dc="http://purl.org/dc/elements/1.1/" xmlns:cc="http://creativecommons.org/ns#" xmlns:rdf="http://www.w3.org/1999/02/22-rdf-syntax-ns#">
   <cc:Work>
    <dc:type rdf:resource="http://purl.org/dc/dcmitype/StillImage"/>
    <dc:date>2026-04-22T09:50:00.382123</dc:date>
    <dc:format>image/svg+xml</dc:format>
    <dc:creator>
     <cc:Agent>
      <dc:title>Matplotlib v3.7.5, https://matplotlib.org/</dc:title>
     </cc:Agent>
    </dc:creator>
   </cc:Work>
  </rdf:RDF>
 </metadata>
 <defs>
  <style type="text/css">*{stroke-linejoin: round; stroke-linecap: butt}</style>
 </defs>
 <g id="figure_1">
  <g id="patch_1">
   <path d="M 0 261.760956 
L 788.4 261.760956 
L 788.4 0 
L 0 0 
z
" style="fill: #ffffff"/>
  </g>
  <g id="axes_1">
   <g id="patch_2">
    <path d="M 49.552941 216.803309 
L 104.696471 216.803309 
L 104.696471 161.659779 
L 49.552941 161.659779 
z
" clip-path="url(#p84e4458304)" style="fill: #e74c3c; opacity: 0.8; stroke: #000000; stroke-linejoin: miter"/>
   </g>
   <g id="patch_3">
    <path d="M 141.458824 216.803309 
L 196.602353 216.803309 
L 196.602353 161.659779 
L 141.458824 161.659779 
z
" clip-path="url(#p84e4458304)" style="fill: #3498db; opacity: 0.6; stroke: #000000; stroke-linejoin: miter"/>
   </g>
   <g id="patch_4">
    <path d="M 50.701765 216.803309 
L 105.845294 216.803309 
L 105.845294 161.659779 
L 50.701765 161.659779 
z
" clip-path="url(#p84e4458304)" style="fill: #e74c3c; opacity: 0.8; stroke: #000000; stroke-linejoin: miter"/>
   </g>
   <g id="patch_5">
    <path d="M 142.607647 216.803309 
L 197.751176 216.803309 
L 197.751176 161.659779 
L 142.607647 161.659779 
z
" clip-path="url(#p84e4458304)" style="fill: #3498db; opacity: 0.6; stroke: #000000; stroke-linejoin: miter"/>
   </g>
   <g id="line2d_1">
    <path d="M 118.482353 258.160956 
L 118.482353 28.39625 
" clip-path="url(#p84e4458304)" style="fill: none; stroke-dasharray: 3.7,1.6; stroke-dashoffset: 0; stroke: #808080"/>
   </g>
   <g id="text_1">
    <!-- Density ($\rho$) -->
    <g transform="translate(33.951176 39.884485) scale(0.09 -0.09)">
     <defs>
      <path id="DejaVuSerif-Bold-44" d="M 2100 378 
L 2534 378 
Q 3266 378 3605 847 
Q 3944 1316 3944 2338 
Q 3944 3353 3606 3820 
Q 3269 4288 2534 4288 
L 2100 4288 
L 2100 378 
z
M 300 0 
L 300 378 
L 897 378 
L 897 4288 
L 300 4288 
L 300 4666 
L 2694 4666 
Q 3950 4666 4615 4066 
Q 5281 3466 5281 2338 
Q 5281 1203 4614 601 
Q 3947 0 2694 0 
L 300 0 
z
" transform="scale(0.015625)"/>
      <path id="DejaVuSerif-Bold-65" d="M 2566 1875 
Q 2566 2531 2444 2795 
Q 2322 3059 2028 3059 
Q 1744 3059 1620 2800 
Q 1497 2541 1497 1931 
L 1497 1875 
L 2566 1875 
z
M 3781 1503 
L 1497 1503 
L 1497 1478 
Q 1497 834 1690 548 
Q 1884 263 2316 263 
Q 2675 263 2897 453 
Q 3119 644 3181 1006 
L 3700 1006 
Q 3566 441 3166 175 
Q 2766 -91 2047 -91 
Q 1184 -91 723 364 
Q 263 819 263 1663 
Q 263 2488 734 2950 
Q 1206 3413 2047 3413 
Q 2872 3413 3312 2927 
Q 3753 2441 3781 1503 
z
" transform="scale(0.015625)"/>
      <path id="DejaVuSerif-Bold-6e" d="M 219 0 
L 219 378 
L 691 378 
L 691 2944 
L 219 2944 
L 219 3322 
L 1797 3322 
L 1797 2853 
Q 1997 3150 2253 3281 
Q 2509 3413 2900 3413 
Q 3459 3413 3745 3083 
Q 4031 2753 4031 2113 
L 4031 378 
L 4506 378 
L 4506 0 
L 2522 0 
L 2522 378 
L 2925 378 
L 2925 2144 
Q 2925 2566 2817 2730 
Q 2709 2894 2444 2894 
Q 2109 2894 1953 2648 
Q 1797 2403 1797 1869 
L 1797 378 
L 2203 378 
L 2203 0 
L 219 0 
z
" transform="scale(0.015625)"/>
      <path id="DejaVuSerif-Bold-73" d="M 300 97 
L 300 1025 
L 653 1025 
Q 697 653 931 458 
Q 1166 263 1569 263 
Q 1906 263 2086 380 
Q 2266 497 2266 716 
Q 2266 916 2152 1025 
Q 2038 1134 1709 1216 
L 1253 1331 
Q 738 1459 506 1698 
Q 275 1938 275 2344 
Q 275 2884 650 3148 
Q 1025 3413 1806 3413 
Q 2100 3413 2433 3364 
Q 2766 3316 3169 3213 
L 3169 2375 
L 2816 2375 
Q 2788 2716 2573 2887 
Q 2359 3059 1959 3059 
Q 1622 3059 1448 2951 
Q 1275 2844 1275 2638 
Q 1275 2469 1375 2372 
Q 1475 2275 1734 2209 
L 2188 2094 
Q 2841 1928 3091 1684 
Q 3341 1441 3341 1006 
Q 3341 444 2939 176 
Q 2538 -91 1691 -91 
Q 1381 -91 1034 -44 
Q 688 3 300 97 
z
" transform="scale(0.015625)"/>
      <path id="DejaVuSerif-Bold-69" d="M 588 4263 
Q 588 4516 763 4689 
Q 938 4863 1191 4863 
Q 1438 4863 1611 4689 
Q 1784 4516 1784 4263 
Q 1784 4016 1611 3842 
Q 1438 3669 1191 3669 
Q 938 3669 763 3841 
Q 588 4013 588 4263 
z
M 1797 378 
L 2272 378 
L 2272 0 
L 219 0 
L 219 378 
L 691 378 
L 691 2944 
L 219 2944 
L 219 3322 
L 1797 3322 
L 1797 378 
z
" transform="scale(0.015625)"/>
      <path id="DejaVuSerif-Bold-74" d="M 634 2944 
L 153 2944 
L 153 3322 
L 634 3322 
L 634 4353 
L 1741 4353 
L 1741 3322 
L 2663 3322 
L 2663 2944 
L 1741 2944 
L 1741 909 
Q 1741 475 1809 369 
Q 1878 263 2059 263 
Q 2259 263 2356 397 
Q 2453 531 2459 813 
L 2925 813 
Q 2897 313 2651 111 
Q 2406 -91 1806 -91 
Q 1122 -91 878 123 
Q 634 338 634 909 
L 634 2944 
z
" transform="scale(0.015625)"/>
      <path id="DejaVuSerif-Bold-79" d="M 1997 -750 
Q 1847 -1116 1634 -1269 
Q 1422 -1422 1063 -1422 
Q 909 -1422 721 -1387 
Q 534 -1353 313 -1288 
L 313 -594 
L 666 -597 
Q 675 -838 779 -953 
Q 884 -1069 1094 -1069 
Q 1297 -1069 1422 -958 
Q 1547 -847 1672 -538 
L 1722 -422 
L 275 2944 
L -84 2944 
L -84 3322 
L 1831 3322 
L 1831 2944 
L 1434 2944 
L 2278 978 
L 3066 2944 
L 2625 2944 
L 2625 3322 
L 3872 3322 
L 3872 2944 
L 3469 2944 
L 1997 -750 
z
" transform="scale(0.015625)"/>
      <path id="DejaVuSerif-Bold-20" transform="scale(0.015625)"/>
      <path id="DejaVuSerif-Bold-28" d="M 2694 -997 
Q 1641 -606 1122 122 
Q 603 850 603 1931 
Q 603 3013 1115 3731 
Q 1628 4450 2694 4863 
L 2694 4488 
Q 2200 4188 1983 3598 
Q 1766 3009 1766 1931 
Q 1766 856 1983 267 
Q 2200 -322 2694 -622 
L 2694 -997 
z
" transform="scale(0.015625)"/>
      <path id="STIXGeneral-Italic-3c1" d="M -58 -864 
L 422 966 
Q 640 1811 1081 2316 
Q 1523 2822 2042 2822 
Q 2189 2822 2278 2816 
Q 2368 2810 2525 2765 
Q 2682 2720 2774 2633 
Q 2867 2547 2940 2371 
Q 3014 2195 3014 1946 
Q 3014 1210 2403 570 
Q 1792 -70 1107 -70 
Q 864 -70 672 38 
L 442 -864 
Q 378 -1126 243 -1312 
L -256 -1312 
Q -128 -1114 -58 -864 
z
M 2445 1997 
Q 2445 2291 2333 2489 
Q 2221 2688 2022 2688 
Q 1747 2688 1472 2361 
Q 1197 2035 1056 1530 
Q 762 467 762 288 
Q 762 186 851 118 
Q 941 51 1075 51 
Q 1472 58 1798 390 
Q 2125 723 2285 1161 
Q 2445 1600 2445 1997 
z
" transform="scale(0.015625)"/>
      <path id="DejaVuSerif-Bold-29" d="M 325 -997 
L 325 -622 
Q 819 -322 1036 267 
Q 1253 856 1253 1931 
Q 1253 3009 1036 3598 
Q 819 4188 325 4488 
L 325 4863 
Q 1391 4450 1905 3731 
Q 2419 3013 2419 1931 
Q 2419 850 1898 122 
Q 1378 -606 325 -997 
z
" transform="scale(0.015625)"/>
     </defs>
     <use xlink:href="#DejaVuSerif-Bold-44" transform="translate(0 0.015625)"/>
     <use xlink:href="#DejaVuSerif-Bold-65" transform="translate(86.71875 0.015625)"/>
     <use xlink:href="#DejaVuSerif-Bold-6e" transform="translate(150.341797 0.015625)"/>
     <use xlink:href="#DejaVuSerif-Bold-73" transform="translate(223.046875 0.015625)"/>
     <use xlink:href="#DejaVuSerif-Bold-69" transform="translate(279.345703 0.015625)"/>
     <use xlink:href="#DejaVuSerif-Bold-74" transform="translate(317.333984 0.015625)"/>
     <use xlink:href="#DejaVuSerif-Bold-79" transform="translate(363.525391 0.015625)"/>
     <use xlink:href="#DejaVuSerif-Bold-20" transform="translate(421.630859 0.015625)"/>
     <use xlink:href="#DejaVuSerif-Bold-28" transform="translate(456.445312 0.015625)"/>
     <use xlink:href="#STIXGeneral-Italic-3c1" transform="translate(503.759766 0.015625)"/>
     <use xlink:href="#DejaVuSerif-Bold-29" transform="translate(554.15976 0.015625)"/>
    </g>
   </g>
   <g id="text_2">
    <!-- Suscept. ($\kappa$) -->
    <g transform="translate(146.628529 39.884485) scale(0.09 -0.09)">
     <defs>
      <path id="DejaVuSerif-Bold-53" d="M 494 225 
L 494 1331 
L 891 1331 
Q 981 806 1318 547 
Q 1656 288 2253 288 
Q 2738 288 2991 472 
Q 3244 656 3244 1013 
Q 3244 1294 3072 1450 
Q 2900 1606 2363 1741 
L 1663 1913 
Q 978 2088 700 2398 
Q 422 2709 422 3284 
Q 422 3978 883 4364 
Q 1344 4750 2175 4750 
Q 2584 4750 3026 4681 
Q 3469 4613 3944 4475 
L 3944 3444 
L 3547 3444 
Q 3456 3925 3150 4148 
Q 2844 4372 2278 4372 
Q 1816 4372 1580 4211 
Q 1344 4050 1344 3731 
Q 1344 3441 1506 3289 
Q 1669 3138 2303 2975 
L 3003 2803 
Q 3653 2641 3945 2297 
Q 4238 1953 4238 1350 
Q 4238 644 3750 276 
Q 3263 -91 2316 -91 
Q 1859 -91 1409 -12 
Q 959 66 494 225 
z
" transform="scale(0.015625)"/>
      <path id="DejaVuSerif-Bold-75" d="M 3963 3322 
L 3963 378 
L 4434 378 
L 4434 0 
L 2853 0 
L 2853 469 
Q 2656 172 2400 40 
Q 2144 -91 1753 -91 
Q 1194 -91 908 239 
Q 622 569 622 1209 
L 622 2944 
L 147 2944 
L 147 3322 
L 1728 3322 
L 1728 1381 
Q 1728 763 1831 595 
Q 1934 428 2209 428 
Q 2544 428 2698 675 
Q 2853 922 2853 1459 
L 2853 2944 
L 2450 2944 
L 2450 3322 
L 3963 3322 
z
" transform="scale(0.015625)"/>
      <path id="DejaVuSerif-Bold-63" d="M 3609 1038 
Q 3491 469 3123 189 
Q 2756 -91 2125 -91 
Q 1238 -91 750 368 
Q 263 828 263 1663 
Q 263 2488 744 2950 
Q 1225 3413 2081 3413 
Q 2428 3413 2781 3347 
Q 3134 3281 3500 3150 
L 3500 2228 
L 3150 2228 
Q 3100 2650 2903 2854 
Q 2706 3059 2350 3059 
Q 1888 3059 1692 2746 
Q 1497 2434 1497 1663 
Q 1497 909 1687 586 
Q 1878 263 2309 263 
Q 2644 263 2845 463 
Q 3047 663 3091 1038 
L 3609 1038 
z
" transform="scale(0.015625)"/>
      <path id="DejaVuSerif-Bold-70" d="M 1728 1825 
L 1728 1497 
Q 1728 916 1876 656 
Q 2025 397 2356 397 
Q 2697 397 2836 672 
Q 2975 947 2975 1663 
Q 2975 2378 2836 2651 
Q 2697 2925 2356 2925 
Q 2025 2925 1876 2665 
Q 1728 2406 1728 1825 
z
M 622 2944 
L 147 2944 
L 147 3322 
L 1728 3322 
L 1728 2900 
Q 1869 3159 2106 3286 
Q 2344 3413 2694 3413 
Q 3403 3413 3811 2945 
Q 4219 2478 4219 1663 
Q 4219 847 3811 378 
Q 3403 -91 2694 -91 
Q 2344 -91 2106 36 
Q 1869 163 1728 422 
L 1728 -953 
L 2241 -953 
L 2241 -1331 
L 147 -1331 
L 147 -953 
L 622 -953 
L 622 2944 
z
" transform="scale(0.015625)"/>
      <path id="DejaVuSerif-Bold-2e" d="M 519 506 
Q 519 750 694 925 
Q 869 1100 1113 1100 
Q 1359 1100 1534 925 
Q 1709 750 1709 506 
Q 1709 259 1534 84 
Q 1359 -91 1113 -91 
Q 869 -91 694 84 
Q 519 259 519 506 
z
" transform="scale(0.015625)"/>
      <path id="STIXGeneral-Italic-3ba" d="M 979 1440 
L 998 1446 
Q 1850 2541 2464 2790 
Q 2547 2822 2630 2822 
Q 2797 2822 2886 2736 
Q 2976 2650 2976 2522 
Q 2976 2387 2893 2307 
Q 2810 2227 2682 2227 
Q 2605 2227 2502 2288 
Q 2400 2349 2336 2349 
Q 2170 2349 1990 2205 
Q 1811 2061 1414 1645 
L 2042 544 
Q 2202 262 2310 182 
Q 2419 102 2624 102 
L 2624 0 
Q 2374 -83 2182 -83 
Q 1786 -83 1555 326 
L 960 1350 
L 576 0 
L 90 0 
L 640 1978 
Q 730 2317 730 2406 
Q 730 2560 518 2560 
L 339 2560 
L 339 2650 
Q 678 2694 1306 2822 
L 1325 2803 
L 979 1440 
z
" transform="scale(0.015625)"/>
     </defs>
     <use xlink:href="#DejaVuSerif-Bold-53" transform="translate(0 0.015625)"/>
     <use xlink:href="#DejaVuSerif-Bold-75" transform="translate(72.216797 0.015625)"/>
     <use xlink:href="#DejaVuSerif-Bold-73" transform="translate(144.921875 0.015625)"/>
     <use xlink:href="#DejaVuSerif-Bold-63" transform="translate(201.220703 0.015625)"/>
     <use xlink:href="#DejaVuSerif-Bold-65" transform="translate(262.109375 0.015625)"/>
     <use xlink:href="#DejaVuSerif-Bold-70" transform="translate(325.732422 0.015625)"/>
     <use xlink:href="#DejaVuSerif-Bold-74" transform="translate(395.654297 0.015625)"/>
     <use xlink:href="#DejaVuSerif-Bold-2e" transform="translate(441.845703 0.015625)"/>
     <use xlink:href="#DejaVuSerif-Bold-20" transform="translate(476.660156 0.015625)"/>
     <use xlink:href="#DejaVuSerif-Bold-28" transform="translate(511.474609 0.015625)"/>
     <use xlink:href="#STIXGeneral-Italic-3ba" transform="translate(558.789062 0.015625)"/>
     <use xlink:href="#DejaVuSerif-Bold-29" transform="translate(603.189056 0.015625)"/>
    </g>
   </g>
   <g id="patch_6">
    <path d="M 41.739436 166.255074 
Q 118.480217 166.255074 195.220998 166.255074 
" style="fill: none; stroke: #008000; stroke-width: 1.5; stroke-linecap: round"/>
    <path d="M 45.739436 168.255074 
L 41.739436 166.255074 
L 45.739436 164.255074 
" style="fill: none; stroke: #008000; stroke-width: 1.5; stroke-linecap: round"/>
    <path d="M 191.220998 164.255074 
L 195.220998 166.255074 
L 191.220998 168.255074 
" style="fill: none; stroke: #008000; stroke-width: 1.5; stroke-linecap: round"/>
   </g>
   <g id="text_3">
    <!-- Global Consistent -->
    <g transform="translate(68.687822 11.198438) scale(0.1 -0.1)">
     <defs>
      <path id="DejaVuSerif-Bold-47" d="M 4403 3200 
Q 4263 3819 3934 4095 
Q 3606 4372 3009 4372 
Q 2284 4372 1945 3880 
Q 1606 3388 1606 2328 
Q 1606 1278 1931 783 
Q 2256 288 2944 288 
Q 3206 288 3431 347 
Q 3656 406 3841 525 
L 3841 1806 
L 3278 1806 
L 3278 2181 
L 4959 2181 
L 4959 391 
Q 4434 147 3911 28 
Q 3388 -91 2841 -91 
Q 1641 -91 955 556 
Q 269 1203 269 2328 
Q 269 3456 955 4103 
Q 1641 4750 2841 4750 
Q 3341 4750 3825 4650 
Q 4309 4550 4800 4347 
L 4800 3200 
L 4403 3200 
z
" transform="scale(0.015625)"/>
      <path id="DejaVuSerif-Bold-6c" d="M 1797 378 
L 2272 378 
L 2272 0 
L 219 0 
L 219 378 
L 691 378 
L 691 4488 
L 219 4488 
L 219 4863 
L 1797 4863 
L 1797 378 
z
" transform="scale(0.015625)"/>
      <path id="DejaVuSerif-Bold-6f" d="M 2138 263 
Q 2488 263 2630 563 
Q 2772 863 2772 1663 
Q 2772 2463 2631 2761 
Q 2491 3059 2138 3059 
Q 1784 3059 1640 2757 
Q 1497 2456 1497 1663 
Q 1497 869 1640 566 
Q 1784 263 2138 263 
z
M 2138 -91 
Q 1259 -91 761 376 
Q 263 844 263 1663 
Q 263 2484 761 2948 
Q 1259 3413 2138 3413 
Q 3019 3413 3516 2948 
Q 4013 2484 4013 1663 
Q 4013 844 3514 376 
Q 3016 -91 2138 -91 
z
" transform="scale(0.015625)"/>
      <path id="DejaVuSerif-Bold-62" d="M 622 378 
L 622 4488 
L 147 4488 
L 147 4863 
L 1728 4863 
L 1728 2900 
Q 1869 3159 2106 3286 
Q 2344 3413 2694 3413 
Q 3403 3413 3811 2945 
Q 4219 2478 4219 1663 
Q 4219 847 3811 378 
Q 3403 -91 2694 -91 
Q 2344 -91 2106 36 
Q 1869 163 1728 422 
L 1728 0 
L 147 0 
L 147 378 
L 622 378 
z
M 1728 1497 
Q 1728 916 1876 656 
Q 2025 397 2356 397 
Q 2697 397 2836 672 
Q 2975 947 2975 1663 
Q 2975 2378 2836 2651 
Q 2697 2925 2356 2925 
Q 2025 2925 1876 2665 
Q 1728 2406 1728 1825 
L 1728 1497 
z
" transform="scale(0.015625)"/>
      <path id="DejaVuSerif-Bold-61" d="M 3525 2041 
L 3525 378 
L 4000 378 
L 4000 0 
L 2419 0 
L 2419 422 
Q 2200 159 1931 34 
Q 1663 -91 1319 -91 
Q 809 -91 536 182 
Q 263 456 263 966 
Q 263 1525 655 1803 
Q 1047 2081 1838 2081 
L 2419 2081 
L 2419 2278 
Q 2419 2681 2228 2873 
Q 2038 3066 1638 3066 
Q 1306 3066 1126 2930 
Q 947 2794 872 2484 
L 519 2484 
L 519 3200 
Q 816 3306 1134 3359 
Q 1453 3413 1806 3413 
Q 2697 3413 3111 3081 
Q 3525 2750 3525 2041 
z
M 2419 1044 
L 2419 1709 
L 2003 1709 
Q 1694 1709 1528 1540 
Q 1363 1372 1363 1056 
Q 1363 741 1483 584 
Q 1603 428 1850 428 
Q 2106 428 2262 597 
Q 2419 766 2419 1044 
z
" transform="scale(0.015625)"/>
      <path id="DejaVuSerif-Bold-43" d="M 4769 1331 
Q 4584 609 4106 259 
Q 3628 -91 2822 -91 
Q 1641 -91 955 561 
Q 269 1213 269 2328 
Q 269 3447 955 4098 
Q 1641 4750 2822 4750 
Q 3238 4750 3688 4650 
Q 4138 4550 4641 4347 
L 4641 3200 
L 4244 3200 
Q 4122 3788 3800 4080 
Q 3478 4372 2950 4372 
Q 2269 4372 1937 3870 
Q 1606 3369 1606 2328 
Q 1606 1288 1937 788 
Q 2269 288 2956 288 
Q 3422 288 3717 547 
Q 4013 806 4147 1331 
L 4769 1331 
z
" transform="scale(0.015625)"/>
     </defs>
     <use xlink:href="#DejaVuSerif-Bold-47"/>
     <use xlink:href="#DejaVuSerif-Bold-6c" x="85.400391"/>
     <use xlink:href="#DejaVuSerif-Bold-6f" x="123.388672"/>
     <use xlink:href="#DejaVuSerif-Bold-62" x="190.087891"/>
     <use xlink:href="#DejaVuSerif-Bold-61" x="260.009766"/>
     <use xlink:href="#DejaVuSerif-Bold-6c" x="324.804688"/>
     <use xlink:href="#DejaVuSerif-Bold-20" x="362.792969"/>
     <use xlink:href="#DejaVuSerif-Bold-43" x="397.607422"/>
     <use xlink:href="#DejaVuSerif-Bold-6f" x="477.197266"/>
     <use xlink:href="#DejaVuSerif-Bold-6e" x="543.896484"/>
     <use xlink:href="#DejaVuSerif-Bold-73" x="616.601562"/>
     <use xlink:href="#DejaVuSerif-Bold-69" x="672.900391"/>
     <use xlink:href="#DejaVuSerif-Bold-73" x="710.888672"/>
     <use xlink:href="#DejaVuSerif-Bold-74" x="767.1875"/>
     <use xlink:href="#DejaVuSerif-Bold-65" x="813.378906"/>
     <use xlink:href="#DejaVuSerif-Bold-6e" x="877.001953"/>
     <use xlink:href="#DejaVuSerif-Bold-74" x="949.707031"/>
    </g>
    <!-- Combination -->
    <g transform="translate(82.427665 22.39625) scale(0.1 -0.1)">
     <defs>
      <path id="DejaVuSerif-Bold-6d" d="M 3884 2778 
Q 4116 3109 4384 3261 
Q 4653 3413 5013 3413 
Q 5584 3413 5867 3089 
Q 6150 2766 6150 2113 
L 6150 378 
L 6625 378 
L 6625 0 
L 4647 0 
L 4647 378 
L 5044 378 
L 5044 1947 
Q 5044 2569 4948 2731 
Q 4853 2894 4594 2894 
Q 4300 2894 4137 2667 
Q 3975 2441 3975 2022 
L 3975 378 
L 4372 378 
L 4372 0 
L 2472 0 
L 2472 378 
L 2869 378 
L 2869 1947 
Q 2869 2569 2772 2731 
Q 2675 2894 2419 2894 
Q 2122 2894 1959 2667 
Q 1797 2441 1797 2022 
L 1797 378 
L 2194 378 
L 2194 0 
L 219 0 
L 219 378 
L 691 378 
L 691 2944 
L 219 2944 
L 219 3322 
L 1797 3322 
L 1797 2853 
Q 1991 3144 2241 3278 
Q 2491 3413 2834 3413 
Q 3241 3413 3494 3258 
Q 3747 3103 3884 2778 
z
" transform="scale(0.015625)"/>
     </defs>
     <use xlink:href="#DejaVuSerif-Bold-43"/>
     <use xlink:href="#DejaVuSerif-Bold-6f" x="79.589844"/>
     <use xlink:href="#DejaVuSerif-Bold-6d" x="146.289062"/>
     <use xlink:href="#DejaVuSerif-Bold-62" x="252.099609"/>
     <use xlink:href="#DejaVuSerif-Bold-69" x="322.021484"/>
     <use xlink:href="#DejaVuSerif-Bold-6e" x="360.009766"/>
     <use xlink:href="#DejaVuSerif-Bold-61" x="432.714844"/>
     <use xlink:href="#DejaVuSerif-Bold-74" x="497.509766"/>
     <use xlink:href="#DejaVuSerif-Bold-69" x="543.701172"/>
     <use xlink:href="#DejaVuSerif-Bold-6f" x="581.689453"/>
     <use xlink:href="#DejaVuSerif-Bold-6e" x="648.388672"/>
    </g>
   </g>
  </g>
  <g id="axes_2">
   <g id="patch_7">
    <path d="M 325.270588 216.803309 
L 380.414118 216.803309 
L 380.414118 161.659779 
L 325.270588 161.659779 
z
" clip-path="url(#p950073710b)" style="fill: #e74c3c; opacity: 0.8; stroke: #000000; stroke-linejoin: miter"/>
   </g>
   <g id="patch_8">
    <path d="M 417.176471 216.803309 
L 472.32 216.803309 
L 472.32 161.659779 
L 417.176471 161.659779 
z
" clip-path="url(#p950073710b)" style="fill: #3498db; opacity: 0.4; stroke: #000000; stroke-linejoin: miter"/>
   </g>
   <g id="patch_9">
    <path d="M 326.419412 216.803309 
L 381.562941 216.803309 
L 381.562941 161.659779 
L 326.419412 161.659779 
z
" clip-path="url(#p950073710b)" style="fill: #e74c3c; opacity: 0.5; stroke: #000000; stroke-linejoin: miter"/>
   </g>
   <g id="patch_10">
    <path d="M 418.325294 216.803309 
L 473.468824 216.803309 
L 473.468824 161.659779 
L 418.325294 161.659779 
z
" clip-path="url(#p950073710b)" style="fill: #3498db; opacity: 0.8; stroke: #000000; stroke-linejoin: miter"/>
   </g>
   <g id="line2d_2">
    <path d="M 394.2 258.160956 
L 394.2 28.39625 
" clip-path="url(#p950073710b)" style="fill: none; stroke-dasharray: 3.7,1.6; stroke-dashoffset: 0; stroke: #808080"/>
   </g>
   <g id="text_4">
    <!-- Density ($\rho$) -->
    <g transform="translate(309.668824 39.884485) scale(0.09 -0.09)">
     <use xlink:href="#DejaVuSerif-Bold-44" transform="translate(0 0.015625)"/>
     <use xlink:href="#DejaVuSerif-Bold-65" transform="translate(86.71875 0.015625)"/>
     <use xlink:href="#DejaVuSerif-Bold-6e" transform="translate(150.341797 0.015625)"/>
     <use xlink:href="#DejaVuSerif-Bold-73" transform="translate(223.046875 0.015625)"/>
     <use xlink:href="#DejaVuSerif-Bold-69" transform="translate(279.345703 0.015625)"/>
     <use xlink:href="#DejaVuSerif-Bold-74" transform="translate(317.333984 0.015625)"/>
     <use xlink:href="#DejaVuSerif-Bold-79" transform="translate(363.525391 0.015625)"/>
     <use xlink:href="#DejaVuSerif-Bold-20" transform="translate(421.630859 0.015625)"/>
     <use xlink:href="#DejaVuSerif-Bold-28" transform="translate(456.445312 0.015625)"/>
     <use xlink:href="#STIXGeneral-Italic-3c1" transform="translate(503.759766 0.015625)"/>
     <use xlink:href="#DejaVuSerif-Bold-29" transform="translate(554.15976 0.015625)"/>
    </g>
   </g>
   <g id="text_5">
    <!-- Suscept. ($\kappa$) -->
    <g transform="translate(422.346176 39.884485) scale(0.09 -0.09)">
     <use xlink:href="#DejaVuSerif-Bold-53" transform="translate(0 0.015625)"/>
     <use xlink:href="#DejaVuSerif-Bold-75" transform="translate(72.216797 0.015625)"/>
     <use xlink:href="#DejaVuSerif-Bold-73" transform="translate(144.921875 0.015625)"/>
     <use xlink:href="#DejaVuSerif-Bold-63" transform="translate(201.220703 0.015625)"/>
     <use xlink:href="#DejaVuSerif-Bold-65" transform="translate(262.109375 0.015625)"/>
     <use xlink:href="#DejaVuSerif-Bold-70" transform="translate(325.732422 0.015625)"/>
     <use xlink:href="#DejaVuSerif-Bold-74" transform="translate(395.654297 0.015625)"/>
     <use xlink:href="#DejaVuSerif-Bold-2e" transform="translate(441.845703 0.015625)"/>
     <use xlink:href="#DejaVuSerif-Bold-20" transform="translate(476.660156 0.015625)"/>
     <use xlink:href="#DejaVuSerif-Bold-28" transform="translate(511.474609 0.015625)"/>
     <use xlink:href="#STIXGeneral-Italic-3ba" transform="translate(558.789062 0.015625)"/>
     <use xlink:href="#DejaVuSerif-Bold-29" transform="translate(603.189056 0.015625)"/>
    </g>
   </g>
   <g id="patch_11">
    <path d="M 316.973526 187.408016 
Q 394.199648 143.278804 471.42577 99.149591 
" style="fill: none; stroke-dasharray: 5.55,2.4; stroke-dashoffset: 0; stroke: #ff0000; stroke-width: 1.5; stroke-linecap: round"/>
    <path d="M 321.438777 187.159947 
L 316.973526 187.408016 
L 319.454221 183.686974 
" style="fill: none; stroke-dasharray: 5.55,2.4; stroke-dashoffset: 0; stroke: #ff0000; stroke-width: 1.5; stroke-linecap: round"/>
    <path d="M 466.96052 99.397661 
L 471.42577 99.149591 
L 468.945076 102.870633 
" style="fill: none; stroke-dasharray: 5.55,2.4; stroke-dashoffset: 0; stroke: #ff0000; stroke-width: 1.5; stroke-linecap: round"/>
   </g>
   <g id="text_6">
    <!-- Partial Consistent -->
    <g transform="translate(343.694531 11.198438) scale(0.1 -0.1)">
     <defs>
      <path id="DejaVuSerif-Bold-50" d="M 300 0 
L 300 378 
L 897 378 
L 897 4288 
L 300 4288 
L 300 4666 
L 2956 4666 
Q 3734 4666 4193 4295 
Q 4653 3925 4653 3303 
Q 4653 2678 4192 2304 
Q 3731 1931 2956 1931 
L 2100 1931 
L 2100 378 
L 2853 378 
L 2853 0 
L 300 0 
z
M 2100 2309 
L 2450 2309 
Q 2856 2309 3098 2579 
Q 3341 2850 3341 3303 
Q 3341 3753 3100 4020 
Q 2859 4288 2450 4288 
L 2100 4288 
L 2100 2309 
z
" transform="scale(0.015625)"/>
      <path id="DejaVuSerif-Bold-72" d="M 3438 3359 
L 3438 2369 
L 3084 2369 
Q 3066 2634 2941 2764 
Q 2816 2894 2578 2894 
Q 2216 2894 2006 2575 
Q 1797 2256 1797 1691 
L 1797 378 
L 2400 378 
L 2400 0 
L 219 0 
L 219 378 
L 691 378 
L 691 2944 
L 184 2944 
L 184 3322 
L 1797 3322 
L 1797 2731 
Q 1959 3078 2226 3245 
Q 2494 3413 2881 3413 
Q 2978 3413 3117 3398 
Q 3256 3384 3438 3359 
z
" transform="scale(0.015625)"/>
     </defs>
     <use xlink:href="#DejaVuSerif-Bold-50"/>
     <use xlink:href="#DejaVuSerif-Bold-61" x="72.570312"/>
     <use xlink:href="#DejaVuSerif-Bold-72" x="137.365234"/>
     <use xlink:href="#DejaVuSerif-Bold-74" x="190.050781"/>
     <use xlink:href="#DejaVuSerif-Bold-69" x="236.242188"/>
     <use xlink:href="#DejaVuSerif-Bold-61" x="274.230469"/>
     <use xlink:href="#DejaVuSerif-Bold-6c" x="339.025391"/>
     <use xlink:href="#DejaVuSerif-Bold-20" x="377.013672"/>
     <use xlink:href="#DejaVuSerif-Bold-43" x="411.828125"/>
     <use xlink:href="#DejaVuSerif-Bold-6f" x="491.417969"/>
     <use xlink:href="#DejaVuSerif-Bold-6e" x="558.117188"/>
     <use xlink:href="#DejaVuSerif-Bold-73" x="630.822266"/>
     <use xlink:href="#DejaVuSerif-Bold-69" x="687.121094"/>
     <use xlink:href="#DejaVuSerif-Bold-73" x="725.109375"/>
     <use xlink:href="#DejaVuSerif-Bold-74" x="781.408203"/>
     <use xlink:href="#DejaVuSerif-Bold-65" x="827.599609"/>
     <use xlink:href="#DejaVuSerif-Bold-6e" x="891.222656"/>
     <use xlink:href="#DejaVuSerif-Bold-74" x="963.927734"/>
    </g>
    <!-- Combination -->
    <g transform="translate(358.145313 22.39625) scale(0.1 -0.1)">
     <use xlink:href="#DejaVuSerif-Bold-43"/>
     <use xlink:href="#DejaVuSerif-Bold-6f" x="79.589844"/>
     <use xlink:href="#DejaVuSerif-Bold-6d" x="146.289062"/>
     <use xlink:href="#DejaVuSerif-Bold-62" x="252.099609"/>
     <use xlink:href="#DejaVuSerif-Bold-69" x="322.021484"/>
     <use xlink:href="#DejaVuSerif-Bold-6e" x="360.009766"/>
     <use xlink:href="#DejaVuSerif-Bold-61" x="432.714844"/>
     <use xlink:href="#DejaVuSerif-Bold-74" x="497.509766"/>
     <use xlink:href="#DejaVuSerif-Bold-69" x="543.701172"/>
     <use xlink:href="#DejaVuSerif-Bold-6f" x="581.689453"/>
     <use xlink:href="#DejaVuSerif-Bold-6e" x="648.388672"/>
    </g>
   </g>
  </g>
  <g id="axes_3">
   <g id="patch_12">
    <path d="M 600.988235 216.803309 
L 656.131765 216.803309 
L 656.131765 161.659779 
L 600.988235 161.659779 
z
" clip-path="url(#p38857f5f5e)" style="fill: #e74c3c; opacity: 0.8; stroke: #000000; stroke-linejoin: miter"/>
   </g>
   <g id="patch_13">
    <path d="M 692.894118 124.897426 
L 748.037647 124.897426 
L 748.037647 69.753897 
L 692.894118 69.753897 
z
" clip-path="url(#p38857f5f5e)" style="fill: #3498db; opacity: 0.6; stroke: #000000; stroke-linejoin: miter"/>
   </g>
   <g id="patch_14">
    <path d="M 694.042941 216.803309 
L 749.186471 216.803309 
L 749.186471 161.659779 
L 694.042941 161.659779 
z
" clip-path="url(#p38857f5f5e)" style="fill: #e74c3c; opacity: 0.6; stroke: #000000; stroke-linejoin: miter"/>
   </g>
   <g id="patch_15">
    <path d="M 602.137059 124.897426 
L 657.280588 124.897426 
L 657.280588 69.753897 
L 602.137059 69.753897 
z
" clip-path="url(#p38857f5f5e)" style="fill: #3498db; opacity: 0.8; stroke: #000000; stroke-linejoin: miter"/>
   </g>
   <g id="line2d_3">
    <path d="M 669.917647 258.160956 
L 669.917647 28.39625 
" clip-path="url(#p38857f5f5e)" style="fill: none; stroke-dasharray: 3.7,1.6; stroke-dashoffset: 0; stroke: #808080"/>
   </g>
   <g id="text_7">
    <!-- Density ($\rho$) -->
    <g transform="translate(585.386471 39.884485) scale(0.09 -0.09)">
     <use xlink:href="#DejaVuSerif-Bold-44" transform="translate(0 0.015625)"/>
     <use xlink:href="#DejaVuSerif-Bold-65" transform="translate(86.71875 0.015625)"/>
     <use xlink:href="#DejaVuSerif-Bold-6e" transform="translate(150.341797 0.015625)"/>
     <use xlink:href="#DejaVuSerif-Bold-73" transform="translate(223.046875 0.015625)"/>
     <use xlink:href="#DejaVuSerif-Bold-69" transform="translate(279.345703 0.015625)"/>
     <use xlink:href="#DejaVuSerif-Bold-74" transform="translate(317.333984 0.015625)"/>
     <use xlink:href="#DejaVuSerif-Bold-79" transform="translate(363.525391 0.015625)"/>
     <use xlink:href="#DejaVuSerif-Bold-20" transform="translate(421.630859 0.015625)"/>
     <use xlink:href="#DejaVuSerif-Bold-28" transform="translate(456.445312 0.015625)"/>
     <use xlink:href="#STIXGeneral-Italic-3c1" transform="translate(503.759766 0.015625)"/>
     <use xlink:href="#DejaVuSerif-Bold-29" transform="translate(554.15976 0.015625)"/>
    </g>
   </g>
   <g id="text_8">
    <!-- Suscept. ($\kappa$) -->
    <g transform="translate(698.063824 39.884485) scale(0.09 -0.09)">
     <use xlink:href="#DejaVuSerif-Bold-53" transform="translate(0 0.015625)"/>
     <use xlink:href="#DejaVuSerif-Bold-75" transform="translate(72.216797 0.015625)"/>
     <use xlink:href="#DejaVuSerif-Bold-73" transform="translate(144.921875 0.015625)"/>
     <use xlink:href="#DejaVuSerif-Bold-63" transform="translate(201.220703 0.015625)"/>
     <use xlink:href="#DejaVuSerif-Bold-65" transform="translate(262.109375 0.015625)"/>
     <use xlink:href="#DejaVuSerif-Bold-70" transform="translate(325.732422 0.015625)"/>
     <use xlink:href="#DejaVuSerif-Bold-74" transform="translate(395.654297 0.015625)"/>
     <use xlink:href="#DejaVuSerif-Bold-2e" transform="translate(441.845703 0.015625)"/>
     <use xlink:href="#DejaVuSerif-Bold-20" transform="translate(476.660156 0.015625)"/>
     <use xlink:href="#DejaVuSerif-Bold-28" transform="translate(511.474609 0.015625)"/>
     <use xlink:href="#STIXGeneral-Italic-3ba" transform="translate(558.789062 0.015625)"/>
     <use xlink:href="#DejaVuSerif-Bold-29" transform="translate(603.189056 0.015625)"/>
    </g>
   </g>
   <g id="patch_16">
    <path d="M 592.691173 187.408016 
Q 669.917295 143.278804 747.143417 99.149591 
" style="fill: none; stroke-dasharray: 5.55,2.4; stroke-dashoffset: 0; stroke: #ff0000; stroke-width: 1.5; stroke-linecap: round"/>
    <path d="M 597.156424 187.159947 
L 592.691173 187.408016 
L 595.171868 183.686974 
" style="fill: none; stroke-dasharray: 5.55,2.4; stroke-dashoffset: 0; stroke: #ff0000; stroke-width: 1.5; stroke-linecap: round"/>
    <path d="M 742.678167 99.397661 
L 747.143417 99.149591 
L 744.662723 102.870633 
" style="fill: none; stroke-dasharray: 5.55,2.4; stroke-dashoffset: 0; stroke: #ff0000; stroke-width: 1.5; stroke-linecap: round"/>
   </g>
   <g id="text_9">
    <!-- Inconsistent -->
    <g transform="translate(634.964522 11.198438) scale(0.1 -0.1)">
     <defs>
      <path id="DejaVuSerif-Bold-49" d="M 300 0 
L 300 378 
L 897 378 
L 897 4288 
L 300 4288 
L 300 4666 
L 2700 4666 
L 2700 4288 
L 2100 4288 
L 2100 378 
L 2700 378 
L 2700 0 
L 300 0 
z
" transform="scale(0.015625)"/>
     </defs>
     <use xlink:href="#DejaVuSerif-Bold-49"/>
     <use xlink:href="#DejaVuSerif-Bold-6e" x="46.777344"/>
     <use xlink:href="#DejaVuSerif-Bold-63" x="119.482422"/>
     <use xlink:href="#DejaVuSerif-Bold-6f" x="180.371094"/>
     <use xlink:href="#DejaVuSerif-Bold-6e" x="247.070312"/>
     <use xlink:href="#DejaVuSerif-Bold-73" x="319.775391"/>
     <use xlink:href="#DejaVuSerif-Bold-69" x="376.074219"/>
     <use xlink:href="#DejaVuSerif-Bold-73" x="414.0625"/>
     <use xlink:href="#DejaVuSerif-Bold-74" x="470.361328"/>
     <use xlink:href="#DejaVuSerif-Bold-65" x="516.552734"/>
     <use xlink:href="#DejaVuSerif-Bold-6e" x="580.175781"/>
     <use xlink:href="#DejaVuSerif-Bold-74" x="652.880859"/>
    </g>
    <!-- Combination -->
    <g transform="translate(633.86296 22.39625) scale(0.1 -0.1)">
     <use xlink:href="#DejaVuSerif-Bold-43"/>
     <use xlink:href="#DejaVuSerif-Bold-6f" x="79.589844"/>
     <use xlink:href="#DejaVuSerif-Bold-6d" x="146.289062"/>
     <use xlink:href="#DejaVuSerif-Bold-62" x="252.099609"/>
     <use xlink:href="#DejaVuSerif-Bold-69" x="322.021484"/>
     <use xlink:href="#DejaVuSerif-Bold-6e" x="360.009766"/>
     <use xlink:href="#DejaVuSerif-Bold-61" x="432.714844"/>
     <use xlink:href="#DejaVuSerif-Bold-74" x="497.509766"/>
     <use xlink:href="#DejaVuSerif-Bold-69" x="543.701172"/>
     <use xlink:href="#DejaVuSerif-Bold-6f" x="581.689453"/>
     <use xlink:href="#DejaVuSerif-Bold-6e" x="648.388672"/>
    </g>
   </g>
  </g>
 </g>
 <defs>
  <clipPath id="p84e4458304">
   <rect x="3.6" y="28.39625" width="229.764706" height="229.764706"/>
  </clipPath>
  <clipPath id="p950073710b">
   <rect x="279.317647" y="28.39625" width="229.764706" height="229.764706"/>
  </clipPath>
  <clipPath id="p38857f5f5e">
   <rect x="555.035294" y="28.39625" width="229.764706" height="229.764706"/>
  </clipPath>
 </defs>
</svg>
